<?xml version="1.0" encoding="utf-8"?>
<!-- Generator: Adobe Illustrator 19.0.0, SVG Export Plug-In . SVG Version: 6.00 Build 0)  -->
<svg version="1.1" id="圖層_1" xmlns="http://www.w3.org/2000/svg" xmlns:xlink="http://www.w3.org/1999/xlink" x="0px" y="0px"
	 viewBox="-47 170.9 500 500" style="enable-background:new -47 170.9 500 500;" xml:space="preserve">
<style type="text/css">
	.st0{fill:#DA471C;stroke:#DA471C;stroke-width:3;stroke-miterlimit:10;}
	.st1{fill:#FFFFFF;}
</style>
<g id="圖層_2">
</g>
<polygon id="XMLID_38_" class="st0" points="385,313.3 387,524.6 205,631.9 21.1,528 19.1,316.7 201.1,209.4 "/>
<g id="XMLID_32_">
	<path id="XMLID_37_" class="st1" d="M228,519.3l-1,0.6c-11.4,6.9-24.5,10.3-38,9.8c-34.8-1.2-63.1-28.6-64.4-62.2
		c-0.7-17.4,5.7-34,17.9-46.7c12.7-13.2,30.5-20.7,49.1-20.7c10.2,0,44.1,6,44.5,6l2.9,0.5l-12.6-26.8l-2.4,5.6
		c-11.2-4.3-23-6.3-35.1-5.9c-45.9,1.4-83.3,37.5-85.1,82.2c-0.9,23,7.5,44.9,23.7,61.7c16.6,17.3,40,27.2,64.3,27.2
		c14.4,0,28.6-3.5,41.3-10l17.7-9.1l9.8,2.7l-15.5-24.8L228,519.3z"/>
	<path id="XMLID_34_" class="st1" d="M310.5,329.6c-14.4,0-26.1,11.7-26.1,26.1s11.7,26.1,26.1,26.1s26.1-11.7,26.1-26.1
		S324.9,329.6,310.5,329.6z M310.5,368.2c-6.9,0-12.5-5.6-12.5-12.5c0-6.9,5.6-12.5,12.5-12.5c6.9,0,12.5,5.6,12.5,12.5
		C322.9,362.6,317.3,368.2,310.5,368.2z"/>
	<path id="XMLID_33_" class="st1" d="M233.5,351.8c-6.9-5-12.4-11.6-15.8-19.3c-3.8-8.6-5-18-5.4-27.3c-0.2-5.2-0.1-10.3,0.1-15.5
		c0.2-5.2,0-10.4,2.6-15c0.6-1.1,1.4-2.1,2-3.2c0.3-0.5,0.5-1.2,0.3-1.8c-0.5-1.4-3.1-0.6-4-0.3c-3.6,1-7.1,2.9-10.4,4.7
		c-5,2.7-8.4-1.9-8.4-1.9l-0.2,2.1l-0.2,3.4c-1.5,32.7-3.1,66.5,28.4,89.4c25.3,18.4,37.1,46.8,31.8,76c-4.6,25-16.4,38.2-25.6,44.8
		c-0.8-7.3-3.3-14.1-7.4-20.3c-7.1-10.9-18.1-18.1-27.9-22.8c9.2-8.1,16.3-17.8,16.8-18.4l4.3-6.3l-24.5,0l-1.1,1.6
		c-0.6,0.7-8.1,10.1-17.1,13.3l-3.8,1.3l0,0.1c0,0,0,0,0,0c-2,2.6-3.1,4.3-3.6,7.4c-0.6,3.5,0.3,7.7,2.8,10.3
		c3.2,3.5,8.3,3.3,12.5,4.9c6.1,2.4,12.1,5.4,17.2,9.4c3.4,2.6,6.5,5.7,8.9,9.3c4.4,6.7,5,19.3,3.1,28.2c0,0.1-0.6,2.3-0.5,3.5
		c0,0.1,0.1,0.9,0.3,1.3c0.1,0.2,0.3,0.3,0.4,0.4c0.1,0.1,0.2,0.1,0.4,0.1c0.2,0,0.4-0.1,0.6-0.2c0.2-0.1,0.4-0.2,0.6-0.3
		c0.2-0.1,0.3-0.2,0.5-0.3c0.4-0.2,0.4-0.2,0.6-0.3c0.4-0.1,0.5-0.1,0.8-0.2c0.2,0,0.7-0.1,0.9-0.1c0.7,0,1.3,0.1,2,0.2
		c0.7,0.1,1.5,0.4,2.2,0.5c0.1,0,0.2,0.1,0.4,0.1c1,0.2,1.5,0.3,2.4,0.4c2,0.2,4.2-0.1,6.1-0.7c2.1-0.7,4.1-1.5,6.1-2.5
		c2.4-1.2,4.8-2.7,7-4.2c2.6-1.9,5.1-3.9,7.4-6.1c2.7-2.5,5.1-5.3,7.4-8.2c2.6-3.3,4.9-6.8,6.9-10.4c2.3-4.1,4.3-8.4,6-12.9
		c1.9-5,3.4-10.2,4.6-15.5c0.3-1.4,0.6-2.9,0.9-4.3C279.4,409.8,264.8,374.5,233.5,351.8z"/>
</g>
</svg>
