<?xml version="1.0" encoding="utf-8"?>
<!-- Generator: Adobe Illustrator 19.0.0, SVG Export Plug-In . SVG Version: 6.00 Build 0)  -->
<svg version="1.1" id="圖層_1" xmlns="http://www.w3.org/2000/svg" xmlns:xlink="http://www.w3.org/1999/xlink" x="0px" y="0px"
	 viewBox="0 0 200 200" style="enable-background:new 0 0 200 200;" xml:space="preserve">
<style type="text/css">
	.st0{fill:#DC481C;}
	.st1{fill:#FFFFFF;stroke:#FFFFFF;stroke-miterlimit:10;}
</style>
<polygon id="XMLID_77_" class="st0" points="168.5,62 169.2,140.6 101.5,180.5 33.1,141.8 32.3,63.2 100,23.3 "/>
<g id="XMLID_3_">
	<g id="XMLID_66_">
		<path id="XMLID_2_" class="st1" d="M110.3,141.4h-0.2c-4.4,2.7-9.7,4.2-15.3,4c-14.1-0.5-25.5-11.5-26-25.2
			c-0.6-14.9,11.8-27.3,27-27.3c4.2,0,8.2,0.9,11.8,2.6v-4c-3.9-1.6-8.2-2.4-12.8-2.3c-16.1,0.5-29.1,13.1-29.7,28.7
			c-0.7,17,13.4,31,30.7,31c5.2,0,10.1-1.3,14.4-3.5V141.4z"/>
		<path id="XMLID_63_" class="st1" d="M95.9,150.1c-8.8,0-17.3-3.6-23.3-9.9c-5.9-6.1-8.9-14-8.6-22.3c0.6-16.2,14.2-29.2,30.8-29.8
			c4.6-0.1,9,0.6,13.2,2.3l0.7,0.3v6.5l-1.6-0.8c-3.5-1.7-7.3-2.5-11.3-2.5c-7.2,0-14.1,2.9-19,8c-4.7,4.9-7.2,11.4-6.9,18.1
			c0.5,13,11.5,23.6,24.9,24.1c5.2,0.2,10.3-1.1,14.7-3.8l0.3-0.2h1.6v5.9l-0.6,0.3C106.3,148.8,101.1,150.1,95.9,150.1z M95.9,90.4
			c-0.3,0-0.6,0-1,0C79.4,90.9,66.9,103,66.3,118c-0.3,7.7,2.5,15,7.9,20.7c5.6,5.8,13.5,9.2,21.7,9.2c4.6,0,9.2-1.1,13.3-3.1v-1.5
			c-4.4,2.3-9.3,3.4-14.4,3.2c-14.6-0.5-26.5-12.1-27.1-26.3c-0.3-7.4,2.4-14.4,7.6-19.8c5.3-5.5,12.8-8.7,20.6-8.7
			c3.7,0,7.3,0.7,10.7,2v-1.5C103.1,91,99.6,90.4,95.9,90.4z"/>
	</g>
	<g id="XMLID_62_">
		<path id="XMLID_45_" class="st1" d="M89.6,115l-1.5-4.3c3.9-1.4,7.3-6.3,7.3-6.3l3.8,2.6C99,107.2,94.9,113.1,89.6,115z"/>
		<path id="XMLID_59_" class="st1" d="M88.9,116.4l-2.3-6.5l1.1-0.4c3.6-1.3,6.7-5.8,6.8-5.9l0.6-0.9l5.7,3.9l-0.6,0.9
			c-0.2,0.3-4.5,6.5-10.1,8.5L88.9,116.4z M89.5,111.3l0.8,2.2c3.4-1.6,6.1-4.7,7.3-6.3l-1.9-1.3C94.5,107.3,92.2,109.9,89.5,111.3z
			"/>
	</g>
	<g id="XMLID_58_">
		<path id="XMLID_44_" class="st1" d="M103.3,136.5l0.7-3.1c0.8-3.7,0.2-7.1-1.6-9.9c-4.5-6.8-14.8-8.9-14.9-8.9l0.8-3.9
			c0.5,0.1,12.1,2.5,17.5,10.7c1.9,2.8,2.7,6,2.6,9.4c3.8-2,10.2-7.1,12.4-19.1c2.1-11.5-2.5-22.6-12.4-29.8
			c-11.1-8-10.5-20.2-10-32.1l0-0.9l4,0.2l0,0.9c-0.5,11.2-1,21.9,8.3,28.7c11.2,8.1,16.4,20.7,14,33.8
			c-3.6,19.6-17.6,23.3-18.2,23.4L103.3,136.5z"/>
		<path id="XMLID_46_" class="st1" d="M101.9,138l1-4.9c0.7-3.4,0.2-6.5-1.5-9c-4.2-6.3-14.1-8.4-14.2-8.5l-1.1-0.2l1.2-6.1l1.1,0.2
			c0.5,0.1,12.6,2.6,18.2,11.1c1.6,2.5,2.5,5.1,2.8,8c3.5-2.4,8.4-7.4,10.2-17.3c2-11-2.5-21.8-12-28.7c-11.6-8.4-11-20.9-10.4-33
			l0.1-2l6.2,0.3l-0.1,2c-0.5,10.9-1,21.3,7.9,27.7c11.5,8.4,16.9,21.4,14.5,34.9c-3.7,20.3-18.5,24.2-19.1,24.3L101.9,138z
			 M88.8,113.7c2.9,0.8,10.7,3.3,14.6,9.2c2,3.1,2.6,6.7,1.8,10.8l-0.3,1.3l1.3-0.3c0.6-0.1,13.9-3.6,17.4-22.5
			c2.3-12.6-2.8-24.8-13.6-32.6c-9.8-7.1-9.3-17.9-8.8-29.4L99.5,50c-0.5,11.4-1,23.2,9.5,30.8c10.3,7.5,15.1,19,12.9,31
			c-2.3,12.5-9.1,17.8-13,19.9l-1.7,0.9l0.1-2c0.1-3.2-0.7-6.1-2.4-8.7c-4.2-6.4-12.6-9.1-15.6-9.9L88.8,113.7z"/>
	</g>
	<g id="XMLID_56_">
		<path id="XMLID_48_" class="st1" d="M140.3,88.7c-5.1,0-9.2-4.1-9.2-9.2c0-5.1,4.1-9.2,9.2-9.2s9.2,4.1,9.2,9.2
			C149.5,84.6,145.4,88.7,140.3,88.7z M140.3,74.3c-2.9,0-5.2,2.3-5.2,5.2c0,2.9,2.3,5.2,5.2,5.2c2.9,0,5.2-2.3,5.2-5.2
			C145.5,76.6,143.2,74.3,140.3,74.3z"/>
		<path id="XMLID_51_" class="st1" d="M140.3,89.1c-5.3,0-9.6-4.3-9.6-9.6c0-5.3,4.3-9.6,9.6-9.6c5.3,0,9.6,4.3,9.6,9.6
			C149.9,84.8,145.6,89.1,140.3,89.1z M140.3,70.7c-4.9,0-8.8,4-8.8,8.8c0,4.9,4,8.8,8.8,8.8c4.9,0,8.8-4,8.8-8.8
			C149.1,74.6,145.2,70.7,140.3,70.7z M140.3,85.1c-3.1,0-5.6-2.5-5.6-5.6s2.5-5.6,5.6-5.6c3.1,0,5.6,2.5,5.6,5.6
			S143.4,85.1,140.3,85.1z M140.3,74.7c-2.7,0-4.8,2.2-4.8,4.8c0,2.7,2.2,4.8,4.8,4.8c2.7,0,4.8-2.2,4.8-4.8
			C145.1,76.8,143,74.7,140.3,74.7z"/>
	</g>
</g>
</svg>
