<?xml version="1.0" encoding="iso-8859-1"?>
<!-- Generator: Adobe Illustrator 19.0.0, SVG Export Plug-In . SVG Version: 6.00 Build 0)  -->
<svg version="1.1" id="&#x5716;&#x5C64;_1" xmlns="http://www.w3.org/2000/svg" xmlns:xlink="http://www.w3.org/1999/xlink" x="0px"
	 y="0px" viewBox="0 0 960 560" style="enable-background:new 0 0 960 560;" xml:space="preserve">
<line id="XMLID_117_" style="fill:none;stroke:#FFA90B;stroke-miterlimit:10;" x1="87" y1="418" x2="207.064" y2="343.106"/>
<path id="XMLID_114_" style="fill:#00AA84;stroke:#00AA84;stroke-miterlimit:10;" d="M171,368"/>
<polygon id="XMLID_116_" style="fill:#FFA90B;" points="122.476,390.716 86.211,411.903 76.524,411.284 112.789,390.097 "/>
<g id="XMLID_2_">
	<path id="XMLID_26_" style="fill:#FFA90B;" d="M59.407,304.55l-0.549,0.358l0.053-15.203l0.576-0.376L59.407,304.55z"/>
	<path id="XMLID_28_" style="fill:#FFA90B;" d="M67.967,298.957l-0.55,0.359l0.053-15.203l0.576-0.377L67.967,298.957z"/>
	<path id="XMLID_30_" style="fill:#FFA90B;" d="M87.688,276.808l-1.389,0.907l2.077,6.572l-0.441,0.289l-2.077-6.573l-1.949,1.273
		c0.871,2.808,0.994,5.392,0.373,7.753l-0.469-0.105c0.622-2.143,0.507-4.594-0.345-7.359l-1.523,0.995l-0.167-0.529l1.523-0.995
		l-1.391-4.399l-1.281,0.837l-0.167-0.528l5.426-3.545l0.167,0.528l-1.313,0.858l1.391,4.399l1.389-0.907L87.688,276.808z
		 M85.69,277.474l-1.391-4.399l-1.949,1.273l1.391,4.399L85.69,277.474z M89.583,268.952c-0.433,1.879-1.278,3.719-2.535,5.52
		l-0.421-0.22c1.291-1.931,2.12-3.746,2.487-5.446L89.583,268.952z M90.857,272.637c-0.462,1.977-1.316,3.935-2.561,5.872
		l-0.42-0.221c1.248-1.874,2.084-3.803,2.509-5.789L90.857,272.637z M92.338,276.625c-0.208,1.093-0.605,2.318-1.189,3.674
		c-0.584,1.357-1.217,2.525-1.898,3.508l-0.413-0.218c1.497-2.293,2.51-4.657,3.039-7.091L92.338,276.625z"/>
	<path id="XMLID_40_" style="fill:#FFA90B;" d="M102.6,269.735c-1.045,2.284-2.187,4.547-3.427,6.792l-0.343-0.406l0.825-1.438
		l-3.302-10.448l0.441-0.288l3.19,10.094c0.762-1.411,1.554-3.04,2.377-4.888L102.6,269.735z M102.533,265.908l-0.302,0.524
		c-1.107-1.023-2.242-1.867-3.404-2.53l0.341-0.525C100.458,264.17,101.58,265.013,102.533,265.908z M108.671,270.598l-0.208,0.614
		c-0.961-0.671-2.112-1.326-3.454-1.968c-0.262,1.638-0.946,3.498-2.054,5.583l-0.462-0.21c1.405-2.541,2.143-4.839,2.214-6.896
		c0.071-2.057-0.402-4.753-1.416-8.087l0.452-0.295c1.199,4.054,1.651,7.141,1.355,9.26
		C106.302,269.151,107.494,269.817,108.671,270.598z"/>
	<path id="XMLID_44_" style="fill:#FFA90B;" d="M115.557,253.459l-1.41,0.921l0.237,0.752l-0.441,0.289l-0.237-0.752l-2.671,1.744
		l-0.163-0.516l2.671-1.744l-0.319-1.009l0.441-0.289l0.319,1.009l1.41-0.921L115.557,253.459z M123.197,260.125
		c0.246,0.779,0.067,1.367-0.534,1.76l-0.883,0.577l-0.291-0.465c0.258-0.13,0.498-0.267,0.721-0.412
		c0.305-0.199,0.496-0.371,0.572-0.513c0.076-0.142,0.083-0.313,0.02-0.512l-0.928-2.938l-3.672,2.398l0.537,1.698
		c0.622-0.496,1.158-0.944,1.607-1.345c-0.282-0.18-0.499-0.3-0.653-0.361l0.271-0.522c0.455,0.207,1.048,0.608,1.777,1.207
		l-0.299,0.574c-0.145-0.141-0.381-0.348-0.709-0.621c-1.347,1.178-2.913,2.441-4.699,3.792l-0.278-0.431
		c0.957-0.697,1.81-1.348,2.56-1.949l-0.555-1.754l-3.439,2.248l1.252,3.961l-0.441,0.288l-1.252-3.961l-0.646,0.422l-0.163-0.516
		l0.646-0.422l-0.181-0.57l0.44-0.288l0.181,0.57l3.44-2.248l-0.365-1.155l-3.23,2.11l-1.221-3.864l6.911-4.516l1.222,3.864
		l-3.24,2.117l0.365,1.155l4.112-2.687L123.197,260.125z M116.54,256.446l-0.365-1.156l-2.788,1.822l0.365,1.156L116.54,256.446z
		 M117.072,258.129l-0.374-1.183l-2.788,1.822l0.374,1.183L117.072,258.129z M120.584,250.174l-2.67,1.745l0.238,0.752l-0.442,0.289
		l-0.237-0.752l-1.41,0.921l-0.163-0.516l1.41-0.921l-0.319-1.009l0.441-0.289l0.319,1.009l2.67-1.745L120.584,250.174z
		 M119.78,254.329l-0.365-1.156l-2.799,1.829l0.365,1.156L119.78,254.329z M120.313,256.012l-0.375-1.183l-2.799,1.829l0.374,1.183
		L120.313,256.012z"/>
	<path id="XMLID_52_" style="fill:#FFA90B;" d="M130.512,247.677l-0.34,0.466l-0.298-0.427c-0.743,0.76-1.49,1.435-2.242,2.028
		l-0.28-0.413c0.402-0.89,0.74-1.87,1.014-2.938c-0.39,0.356-0.854,0.751-1.393,1.187l-0.284-0.427
		c0.318-0.747,0.565-1.878,0.738-3.397l0.481-0.038c-0.148,1.161-0.374,2.157-0.679,2.99c0.51-0.389,0.94-0.738,1.293-1.047
		l0.228-1.131l0.489,0.008c-0.295,1.643-0.701,3.062-1.22,4.258c0.555-0.464,1.089-0.941,1.6-1.432
		c-0.189-0.23-0.367-0.409-0.534-0.541l0.334-0.462C129.778,246.657,130.143,247.096,130.512,247.677z M128.534,249.902
		c0.069,1.153,0.074,1.998,0.015,2.535l-0.458-0.01c0.065-0.644,0.059-1.453-0.021-2.431L128.534,249.902z M130.067,250.892
		l-0.411,0.385c-0.294-0.697-0.577-1.23-0.849-1.595l0.396-0.394C129.466,249.669,129.754,250.205,130.067,250.892z
		 M139.118,250.538l0.021,0.599c-1.809,1.182-3.457,1.891-4.945,2.13c-0.963,1.307-2.441,2.645-4.433,4.015l-0.296-0.421l0.199-0.13
		c1.404-0.917,2.696-2.044,3.88-3.383c-0.819,0.054-1.584-0.026-2.296-0.238l0.214-0.535c0.784,0.232,1.63,0.287,2.538,0.164
		c0.764-1.092,1.259-2.309,1.484-3.648l-4.468,2.919c-0.469,1.079-0.977,2.02-1.524,2.819l-0.408-0.263
		c0.991-1.454,1.7-2.956,2.128-4.507l0.478,0.033c-0.096,0.382-0.213,0.754-0.353,1.12l6.275-4.101l0.154,0.487l-1.776,1.16
		c-0.217,1.452-0.669,2.739-1.357,3.861C135.905,252.354,137.399,251.661,139.118,250.538z M132.5,242.338l-3.047,1.99l-0.146-0.459
		l1.379-0.9c-0.144-0.22-0.368-0.469-0.671-0.746l0.352-0.407c0.334,0.291,0.592,0.576,0.771,0.857l1.216-0.794L132.5,242.338z
		 M130.949,249.903l-0.395,0.375c-0.237-0.561-0.505-1.038-0.803-1.432l0.382-0.393C130.441,248.89,130.712,249.374,130.949,249.903
		z M132.643,243.858l-2.486,1.625l-0.144-0.452l2.487-1.625L132.643,243.858z M133.063,245.188l-2.486,1.625l-0.146-0.46
		l2.487-1.625L133.063,245.188z M133.972,248.062l-2.487,1.625l-0.645-2.039l2.487-1.625L133.972,248.062z M133.411,247.951
		l-0.392-1.239l-1.609,1.051l0.392,1.239L133.411,247.951z M136.686,243.643l-0.34,0.466l-0.297-0.428
		c-0.726,0.732-1.512,1.433-2.355,2.102l-0.275-0.417c0.395-0.874,0.747-1.862,1.057-2.966c-0.42,0.386-0.861,0.767-1.327,1.144
		l-0.284-0.427c0.318-0.747,0.564-1.878,0.738-3.397l0.477-0.034c-0.146,1.158-0.369,2.153-0.674,2.986
		c0.494-0.379,0.92-0.725,1.276-1.037c0.093-0.391,0.174-0.771,0.243-1.142l0.49,0.008c-0.258,1.434-0.7,2.876-1.328,4.328
		c0.676-0.559,1.244-1.059,1.702-1.499c-0.186-0.232-0.362-0.412-0.529-0.544l0.334-0.462
		C135.953,242.623,136.317,243.063,136.686,243.643z M134.75,245.84c0.082,1.026,0.088,1.847,0.018,2.458l-0.479,0.01
		c0.089-0.87,0.088-1.661-0.003-2.375L134.75,245.84z M136.354,246.784l-0.4,0.378c-0.298-0.695-0.582-1.227-0.854-1.591
		l0.385-0.387C135.749,245.565,136.038,246.099,136.354,246.784z M137.439,245.797l-0.363,0.414c-0.319-0.586-0.637-1.04-0.95-1.361
		l0.346-0.428C136.809,244.806,137.131,245.265,137.439,245.797z"/>
	<path id="XMLID_67_" style="fill:#FFA90B;" d="M154.868,235.509l-0.196,0.633c-0.661-0.531-1.374-1.005-2.139-1.425l2,6.328
		l-0.441,0.289l-1.784-5.646c-0.237,0.934-0.521,1.858-0.852,2.773l-0.428-0.165c0.911-2.498,1.388-4.829,1.428-6.987l-2.767,1.807
		l-0.165-0.522l3.229-2.11l0.165,0.522c0.012,0.943-0.079,1.991-0.273,3.143C153.443,234.507,154.183,234.96,154.868,235.509z
		 M151.538,230.395l-0.32,0.487c-0.465-0.498-0.974-0.929-1.527-1.296l0.299-0.514C150.553,229.42,151.07,229.861,151.538,230.395z
		 M161.081,233.693c0.274,0.951,0.362,1.633,0.265,2.048c-0.099,0.414-0.253,0.689-0.46,0.825l-0.895,0.584
		c-0.42,0.274-0.729,0.094-0.931-0.542l-1.089-3.446l-1.243,0.813c0.324,1.3,0.411,2.438,0.26,3.413
		c-0.151,0.974-0.555,1.922-1.212,2.845l-0.438-0.26c1.228-1.607,1.537-3.507,0.928-5.695l-1.114,0.728l-2.299-7.274l4.488-2.933
		l2.3,7.274l-1.228,0.802l1.094,3.46c0.051,0.162,0.131,0.245,0.238,0.25c0.107,0.006,0.298-0.081,0.57-0.258
		c0.248-0.162,0.406-0.323,0.475-0.482c0.068-0.16,0.1-0.383,0.094-0.67c-0.006-0.287-0.098-0.744-0.272-1.367L161.081,233.693z
		 M157.597,227.293l-0.53-1.678l-3.606,2.356l0.53,1.678L157.597,227.293z M158.314,229.563l-0.55-1.741l-3.606,2.356l0.55,1.741
		L158.314,229.563z M159.032,231.832l-0.551-1.74l-3.606,2.356l0.55,1.74L159.032,231.832z"/>
	<path id="XMLID_74_" style="fill:#FFA90B;" d="M170.217,226.657c-0.336,0.65-1.293,2.158-2.871,4.521l-0.381-0.321l1.262-1.866
		l-1.362-4.31l-1.367,0.893l-0.167-0.528l1.367-0.893l-1.076-3.404l-1.49,0.974l-0.168-0.529l3.322-2.17l0.167,0.529l-1.39,0.907
		l1.076,3.404l1.222-0.798l0.167,0.528l-1.222,0.798l1.285,4.065c0.651-0.996,1.112-1.762,1.384-2.298L170.217,226.657z
		 M176.279,223.746c0.157,0.636,0.264,1.174,0.317,1.611c0.055,0.438,0.024,0.756-0.088,0.952c-0.113,0.198-0.453,0.482-1.021,0.853
		c-0.373,0.244-0.625,0.383-0.754,0.42s-0.255,0.014-0.378-0.067c-0.124-0.083-0.23-0.265-0.319-0.548l-1.113-3.522l-1.19,0.777
		c0.37,1.181,0.447,2.263,0.234,3.245c-0.215,0.982-0.771,2.087-1.674,3.315l-0.342-0.24c0.843-1.21,1.362-2.246,1.56-3.109
		c0.197-0.862,0.138-1.793-0.177-2.791l-0.042-0.132l-1.093,0.714l-2.309-7.303l4.656-3.042l2.309,7.303l-1.491,0.975l1.118,3.536
		c0.06,0.19,0.141,0.279,0.242,0.267c0.102-0.015,0.311-0.124,0.627-0.331c0.387-0.253,0.631-0.437,0.732-0.55
		c0.101-0.113,0.105-0.429,0.016-0.947c-0.09-0.518-0.192-0.971-0.307-1.361L176.279,223.746z M172.815,217.409l-0.546-1.726
		l-3.773,2.465l0.546,1.726L172.815,217.409z M173.53,219.671l-0.555-1.754l-3.773,2.465l0.555,1.754L173.53,219.671z
		 M174.251,221.955l-0.559-1.768l-3.773,2.465l0.559,1.768L174.251,221.955z"/>
	<path id="XMLID_80_" style="fill:#FFA90B;" d="M69.497,320.713l-0.441,0.289l-0.735-2.326l-1.357,0.887
		c0.276,1.299,0.029,2.51-0.742,3.635l-0.394-0.281c0.679-0.852,0.91-1.873,0.694-3.064l-1.48,0.967l-0.167-0.529l3.278-2.143
		l-0.379-1.197l-2.417,1.58l-0.599-1.894l0.441-0.288l0.432,1.365l1.976-1.291l-0.521-1.65l0.441-0.289L69.497,320.713z
		 M75.699,318.123l-5.017,3.277c-0.244,0.859-0.594,1.758-1.051,2.693l0.834,2.641c0.809-0.838,1.512-1.621,2.107-2.352l0.262,0.373
		c-0.872,1.08-1.739,2.066-2.604,2.961l-0.255-0.354c0.074-0.098,0.089-0.213,0.048-0.342l-0.72-2.277
		c-0.603,1.094-1.247,2.002-1.932,2.725l-0.355-0.322c1.406-1.552,2.431-3.338,3.073-5.359l-3.94,2.574l-0.167-0.529l4.775-3.119
		c-0.232-0.323-0.458-0.566-0.677-0.725l0.358-0.494c0.288,0.242,0.556,0.543,0.804,0.902l4.291-2.803L75.699,318.123z
		 M74.077,312.951l-2.412,1.574l0.756,2.395l2.159-1.41l0.167,0.529l-4.764,3.111l-0.167-0.527l2.164-1.414l-0.757-2.395
		l-2.417,1.579l-0.165-0.522l2.417-1.579l-0.555-1.754l0.441-0.288l0.554,1.754l2.412-1.576L74.077,312.951z M77.1,322.557
		l-0.075,0.646c-1.225,0.262-2.264,0.305-3.12,0.127c-0.855-0.178-1.74-0.631-2.654-1.361l0.281-0.486
		c0.755,0.526,1.416,0.891,1.981,1.092c0.688-1.195,1.167-2.287,1.44-3.275l0.44,0.141c-0.302,1.004-0.782,2.095-1.439,3.275
		C74.845,322.943,75.894,322.891,77.1,322.557z"/>
	<path id="XMLID_85_" style="fill:#FFA90B;" d="M83.692,307.861l-1.519,0.991l1.23,3.892c0.317-0.369,0.821-1.043,1.511-2.021
		l0.237,0.358c-0.216,0.342-0.744,1.072-1.581,2.19l1.175,3.718c0.11,0.348,0.112,0.644,0.005,0.888
		c-0.107,0.243-0.342,0.483-0.704,0.72l-0.452,0.279l-0.305-0.473l0.727-0.434c0.28-0.183,0.373-0.422,0.279-0.719l-1.104-3.494
		l-1.383,1.768l-0.304-0.406c0.925-1.143,1.43-1.777,1.515-1.906l-1.287-4.072l-1.642,1.072l-0.167-0.529l1.642-1.072l-0.869-2.748
		l0.441-0.289l0.869,2.749l1.518-0.991L83.692,307.861z M84.688,303.389c0.245,1.995,0.031,3.994-0.645,5.998l-0.493-0.164
		c0.649-1.825,0.866-3.719,0.652-5.686L84.688,303.389z M89.448,306.451c0.443,1.564,0.798,2.977,1.066,4.238
		c0.269,1.26,0.403,2.059,0.404,2.396c0.001,0.34-0.071,0.637-0.215,0.89c-0.145,0.255-0.381,0.493-0.708,0.72
		c-0.326,0.225-0.691,0.469-1.093,0.73l-0.349-0.443l0.994-0.617c0.38-0.248,0.618-0.457,0.714-0.627
		c0.096-0.168,0.145-0.376,0.147-0.625c0.001-0.246-0.123-0.959-0.374-2.135c-0.251-1.179-0.556-2.402-0.914-3.674l-2.293,1.498
		c0.438,1.59,0.586,3.045,0.445,4.369c-0.14,1.322-0.623,2.781-1.449,4.375l-0.457-0.275c0.811-1.514,1.287-2.875,1.425-4.078
		c0.139-1.205-0.01-2.565-0.444-4.078l-1.793,1.172l-0.167-0.529L89.448,306.451z M89.981,304.869l-0.146,0.625
		c-1.318-0.416-2.448-1.26-3.391-2.531l-0.959,0.627l-0.167-0.529l1.308-0.854C87.546,303.543,88.665,304.43,89.981,304.869z"/>
	<path id="XMLID_90_" style="fill:#FFA90B;" d="M107.617,301.048l-0.441,0.288l-0.22-0.695l-1.41,0.92l0.383,1.211l-0.441,0.289
		l-3.181-10.064l2.293-1.499L107.617,301.048z M106.784,300.098l-2.456-7.77l-1.41,0.922l2.456,7.768L106.784,300.098z
		 M114.083,294.916l-3.251,2.125c0.162,1.774-0.603,3.648-2.296,5.623l-0.432-0.279c1.594-1.753,2.348-3.434,2.265-5.041
		l-2.767,1.808l-0.168-0.529l0.705-0.46l-1.63-5.158l2.422-1.584c0.204-0.604,0.443-1.461,0.721-2.57l-2.449,1.602
		c-0.212,1.027-0.6,2.113-1.166,3.256l-0.416-0.225c0.8-1.715,1.257-3.346,1.371-4.893l0.479-0.021
		c-0.029,0.385-0.074,0.77-0.135,1.156l2.729-1.783l0.167,0.529c-0.072,0.316-0.304,1.167-0.693,2.553l2.072-1.354l1.631,5.158
		l0.673-0.44L114.083,294.916z M112.801,295.115l-1.463-4.629l-1.895,1.238c0.085,0.448,0.127,0.877,0.127,1.285
		c1.06,0.232,1.836,0.454,2.328,0.671l-0.145,0.607c-0.594-0.302-1.333-0.523-2.219-0.667c-0.087,0.846-0.347,1.71-0.778,2.59
		l-0.421-0.202c0.654-1.313,0.88-2.647,0.676-4.003l-1.895,1.238l1.463,4.629l1.729-1.129c-0.039-0.315-0.142-0.781-0.305-1.397
		l0.44-0.288c0.136,0.484,0.241,0.947,0.316,1.391L112.801,295.115z M114.873,297.928l-0.143,0.639
		c-1.521-0.416-2.636-0.592-3.344-0.527l0.149-0.619C112.634,297.42,113.748,297.589,114.873,297.928z"/>
	<path id="XMLID_96_" style="fill:#FFA90B;" d="M121.484,280.499l-1.422,0.929l0.636,2.01l1.066-0.695l2.928,9.266l-0.425,0.278
		l-0.284-0.899l-2.702,1.766l0.288,0.912l-0.43,0.282l-2.934-9.28l1.082-0.707l-0.636-2.011l-1.459,0.953l-0.171-0.543l4.29-2.803
		L121.484,280.499z M119.459,284.902l-0.651,0.426l1.184,3.744c0.097-0.773,0.099-1.452,0.006-2.035
		C119.905,286.455,119.725,285.743,119.459,284.902z M120.29,283.705l-0.636-2.011l-0.598,0.39l0.636,2.012L120.29,283.705z
		 M123.816,290.858l-1.188-3.76l-0.564,0.369c-0.323,0.211-0.551,0.108-0.683-0.31l-0.919-2.91l-0.598,0.391
		c0.307,0.971,0.504,1.789,0.594,2.455c0.089,0.667,0.076,1.414-0.04,2.238l-0.37-0.086l1.066,3.377L123.816,290.858z
		 M122.46,286.57l-0.95-3.008l-0.641,0.418l0.873,2.764c0.052,0.164,0.131,0.209,0.239,0.139L122.46,286.57z M122.827,289.496
		l-1.754,1.146l-0.172-0.543l1.755-1.146L122.827,289.496z M127.4,280.949l-4.167,2.723l-1.359-4.302l4.166-2.722L127.4,280.949z
		 M126.188,278.802l-0.422-1.338l-3.284,2.146l0.423,1.338L126.188,278.802z M126.797,280.73l-0.446-1.413l-3.284,2.146l0.447,1.412
		L126.797,280.73z M130.211,287.957l-5.162,3.373l-0.163-0.516l2.363-1.545l-0.653-2.066l-2.104,1.375l-0.161-0.51l2.105-1.375
		l-0.574-1.816l-1.491,0.975c-0.05,0.652-0.142,1.287-0.275,1.902l-0.424-0.086c0.265-1.162,0.364-2.404,0.298-3.721l0.437-0.059
		c0.017,0.381,0.018,0.822,0.003,1.324l1.292-0.844l-0.425-1.344l0.441-0.289l0.425,1.344l2.234-1.459l0.16,0.508l-2.234,1.461
		l0.574,1.816l2.105-1.376l0.16,0.509l-2.104,1.375l0.653,2.068l2.357-1.541L130.211,287.957z"/>
	<path id="XMLID_107_" style="fill:#FFA90B;" d="M142.884,267.859l-0.21,0.65c-0.787-0.422-1.642-0.756-2.564-1.004l0.188-0.602
		C141.25,267.144,142.114,267.461,142.884,267.859z M143.725,271.442l-0.156,0.698c-0.841-0.33-1.778-0.549-2.813-0.657l0.151-0.611
		C141.998,270.978,142.936,271.167,143.725,271.442z M149.812,265.037l-0.441,0.289l-0.86-2.722l-5.113,3.341l0.859,2.722
		l-0.441,0.288l-1.027-3.25l5.997-3.918L149.812,265.037z M144.625,273.122c-0.053,1.955-0.341,4.14-0.864,6.553l-0.5-0.144
		c0.595-2.544,0.885-4.728,0.872-6.55L144.625,273.122z M146.592,270.199c0.588,1.86,0.775,3.393,0.563,4.599
		c-0.213,1.205-0.612,2.358-1.199,3.459l-0.441-0.267c0.528-0.984,0.884-1.9,1.063-2.747c0.18-0.85,0.218-1.649,0.114-2.402
		s-0.306-1.607-0.608-2.564l-0.743-2.352l0.441-0.289L146.592,270.199z M151.825,269.845c0.289,0.914,0.486,1.684,0.591,2.31
		c0.104,0.626,0.103,1.072-0.005,1.339c-0.109,0.267-0.397,0.554-0.868,0.861c-0.366,0.239-0.612,0.368-0.737,0.389
		c-0.126,0.02-0.254-0.015-0.384-0.105c-0.132-0.091-0.237-0.265-0.317-0.52l-2.438-7.713l0.441-0.289l2.418,7.65
		c0.048,0.152,0.125,0.253,0.23,0.298s0.325-0.04,0.659-0.259c0.219-0.143,0.392-0.292,0.521-0.448
		c0.127-0.157,0.107-0.609-0.063-1.359c-0.17-0.749-0.357-1.447-0.563-2.097L151.825,269.845z"/>
	<path id="XMLID_115_" style="fill:#FFA90B;" d="M161.14,267.093l-0.441,0.289l-0.292-0.926l-1.454,0.949l0.392,1.239l-0.441,0.288
		l-3.447-10.908l2.336-1.526L161.14,267.093z M158.307,259.815l-0.789-2.499l-1.454,0.949l0.79,2.499L158.307,259.815z
		 M159.262,262.836l-0.789-2.499l-1.454,0.949l0.79,2.499L159.262,262.836z M160.239,265.927l-0.809-2.562l-1.454,0.949l0.81,2.562
		L160.239,265.927z M168.11,263.21l-6.239,4.077l-0.167-0.528l2.896-1.892l-0.645-2.04l-2.497,1.632l-0.165-0.521l2.497-1.632
		l-1.727-5.465l-2.832,1.85l-0.167-0.529l2.831-1.85l-0.559-1.769c-0.645,0.562-1.394,1.18-2.246,1.854l-0.351-0.392
		c1.781-1.298,3.436-2.769,4.964-4.411l0.354,0.316c-0.688,0.757-1.457,1.51-2.306,2.261l0.585,1.852l2.838-1.854l0.167,0.529
		l-2.837,1.854l1.727,5.465l2.503-1.635l0.165,0.521l-2.503,1.635l0.645,2.04l2.901-1.896L168.11,263.21z M162.403,260.011
		l-0.829,0.542l0.594,1.879l-0.425,0.278l-0.594-1.879l-1.082,0.707l-0.168-0.529l1.082-0.707l-0.486-1.539l0.426-0.278l0.486,1.539
		l0.829-0.542L162.403,260.011z M166.284,257.476l-1.082,0.707l0.594,1.879l-0.431,0.281l-0.594-1.879l-0.823,0.539l-0.168-0.529
		l0.824-0.539l-0.486-1.539l0.431-0.281l0.486,1.539l1.082-0.707L166.284,257.476z"/>
	<path id="XMLID_128_" style="fill:#FFA90B;" d="M81.019,337.646c-2.248,2.135-4.835,4.158-7.764,6.072l-0.373-0.379
		c3.46-2.299,6.029-4.299,7.708-6.001L81.019,337.646z M82.954,342.127l-0.441,0.287l-0.482-1.523l-8.08,5.279l0.481,1.523
		l-0.441,0.289l-0.64-2.025l8.962-5.855L82.954,342.127z M75.68,343.646l-0.269,0.588c-0.359-0.248-0.723-0.404-1.091-0.473
		l0.227-0.576C74.917,343.273,75.294,343.428,75.68,343.646z M75.894,346.293c-0.12,1.228-0.373,2.406-0.759,3.539l-0.452-0.117
		c0.438-1.283,0.684-2.429,0.737-3.438L75.894,346.293z M85.388,348.658l-0.071,0.658c-1.952,0.84-3.593,1.311-4.924,1.412
		c-1.151,1.553-2.568,3.075-4.253,4.566l-0.359-0.377c1.557-1.375,2.883-2.76,3.98-4.154c-0.821,0.021-1.637-0.098-2.45-0.355
		c-0.401,0.705-0.922,1.481-1.563,2.331l-0.404-0.272c0.624-0.766,1.14-1.505,1.548-2.213c-0.337-0.121-0.626-0.248-0.867-0.383
		l0.23-0.563c0.275,0.156,0.583,0.301,0.922,0.43c0.349-0.646,0.643-1.348,0.881-2.104l0.461,0.043
		c-0.141,0.434-0.255,0.755-0.345,0.965l4.236-2.768l0.156,0.494c-0.396,1.283-0.976,2.521-1.741,3.716
		C82.193,349.904,83.713,349.428,85.388,348.658z M80.656,343.855c0.115,0.596,0.146,1.018,0.096,1.26s-0.183,0.458-0.396,0.646
		c-0.214,0.187-0.734,0.55-1.559,1.089c-0.56,0.366-0.921,0.589-1.082,0.666c-0.162,0.078-0.313,0.078-0.455-0.002
		c-0.142-0.078-0.25-0.234-0.325-0.473l-0.545-1.725l0.441-0.289l0.528,1.67c0.054,0.174,0.134,0.25,0.24,0.234
		s0.492-0.24,1.159-0.678c0.769-0.502,1.238-0.836,1.411-1.002c0.173-0.165,0.169-0.621-0.01-1.365L80.656,343.855z M78.464,341.895
		l-0.354,0.525c-0.326-0.305-0.677-0.549-1.058-0.738l0.307-0.51C77.812,341.424,78.18,341.664,78.464,341.895z M81.98,346.752
		l-4.188,2.736l-0.191,0.402c0.812,0.236,1.684,0.32,2.617,0.246C80.985,349.055,81.572,347.926,81.98,346.752z M79.391,344.664
		l-0.231,0.563c-0.389-0.301-0.874-0.541-1.455-0.721l0.224-0.523C78.381,344.111,78.869,344.34,79.391,344.664z M80.962,338.682
		c-0.164,0.863-0.35,1.615-0.555,2.253l-0.458-0.095c0.236-0.664,0.413-1.387,0.529-2.168L80.962,338.682z M83.231,344.012
		l-0.287,0.531c-0.713-0.71-1.421-1.252-2.125-1.627l0.276-0.524C81.811,342.82,82.523,343.361,83.231,344.012z"/>
	<path id="XMLID_141_" style="fill:#FFA90B;" d="M94.814,342.701l-0.441,0.289l-0.392-1.24l-2.524,1.648l0.478,1.512l-0.442,0.289
		l-3.162-10.004l1.023-0.668c0.077-1.25,0.078-2.26,0.003-3.033l0.489-0.094c0.038,0.832,0.035,1.769-0.008,2.811l1.9-1.242
		L94.814,342.701z M92.502,337.072l-1.041-3.293l-2.524,1.648l1.041,3.295L92.502,337.072z M93.813,341.221l-1.144-3.619
		l-2.524,1.65l1.144,3.619L93.813,341.221z M97.235,329.445c0.625,2.088,1.175,4.119,1.647,6.096
		c0.473,1.975,0.701,3.094,0.685,3.357c-0.017,0.263-0.076,0.535-0.177,0.816c-0.102,0.281-0.515,0.66-1.239,1.133l-0.714,0.434
		l-0.317-0.447l0.69-0.426c0.639-0.418,1.015-0.727,1.127-0.926s0.159-0.467,0.142-0.803c-0.018-0.336-0.229-1.336-0.633-3
		c-0.405-1.664-0.902-3.463-1.491-5.396L94,332.215c-0.039,1.244-0.177,2.508-0.413,3.787l-0.501-0.186
		c0.449-2.006,0.56-4.262,0.335-6.77l0.48-0.162c0.078,0.93,0.111,1.82,0.099,2.674L97.235,329.445z M97.26,337.063l-0.287,0.615
		c-0.704-0.816-1.575-1.578-2.611-2.283l0.236-0.566C95.396,335.27,96.283,336.016,97.26,337.063z"/>
	<path id="XMLID_150_" style="fill:#FFA90B;" d="M113.206,321.656l-0.44,0.287l-0.753-2.381l-3.849,2.516l0.929,2.938l-0.441,0.287
		l-0.929-2.938l-3.849,2.516l0.752,2.381l-0.436,0.285l-0.896-2.834l4.284-2.799l-0.321-1.018l-3.956,2.584l-0.144-0.451
		l8.354-5.459l0.144,0.453l-3.957,2.584l0.321,1.018l4.29-2.803L113.206,321.656z M107.387,323.752l-0.003,0.522
		c-0.912,0.322-1.773,0.712-2.585,1.169l-0.025-0.512C105.561,324.494,106.433,324.102,107.387,323.752z M107.86,328.986
		l-2.304,1.506l-0.688-2.18l2.304-1.505L107.86,328.986z M107.823,325.09c-0.87,0.891-1.683,1.641-2.439,2.248l-0.253-0.39
		c0.916-0.733,1.722-1.466,2.416-2.2L107.823,325.09z M107.284,328.809l-0.4-1.268l-1.442,0.943l0.4,1.267L107.284,328.809z
		 M115.844,328.994l-9.55,6.238l-0.143-0.451l4.554-2.977l-0.848-2.68l-1.518,0.992c-0.039,0.312-0.107,0.658-0.203,1.039
		c0.761-0.025,1.402,0.009,1.922,0.105l-0.126,0.586c-0.61-0.139-1.257-0.197-1.939-0.177c-0.283,0.886-0.638,1.62-1.063,2.206
		l-0.417-0.189c0.71-1.014,1.165-2.102,1.363-3.268l-2.239,1.463l-0.146-0.459l8.887-5.807l0.146,0.459l-1.357,0.887
		c-0.045,0.32-0.117,0.67-0.215,1.047c0.563-0.016,1.203,0.021,1.918,0.107l-0.121,0.584c-0.67-0.123-1.316-0.182-1.939-0.178
		c-0.296,0.898-0.649,1.635-1.063,2.205l-0.417-0.189c0.647-0.91,1.103-1.999,1.364-3.268l-2.396,1.566l0.848,2.68l4.554-2.977
		L115.844,328.994z M110.858,327.027l-2.304,1.506l-0.688-2.18l2.304-1.505L110.858,327.027z M110.283,326.85l-0.401-1.268
		l-1.442,0.943l0.4,1.267L110.283,326.85z M111.799,320.902c-0.936,0.892-1.756,1.607-2.465,2.148l-0.259-0.369
		c0.776-0.584,1.593-1.295,2.45-2.129L111.799,320.902z M112.343,322.336l0.013,0.514c-1.029,0.347-2.006,0.762-2.933,1.244
		l0.001-0.514C110.436,323.082,111.409,322.668,112.343,322.336z M113.845,325.075l-2.304,1.505l-0.688-2.178l2.304-1.506
		L113.845,325.075z M113.27,324.898l-0.4-1.268l-1.443,0.943l0.4,1.266L113.27,324.898z"/>
	<path id="XMLID_180_" style="fill:#FFA90B;" d="M121.286,312.16l-3.014,1.971l-0.166-0.523l3.015-1.969L121.286,312.16z
		 M124.468,321.059l-0.369,0.518l-0.426-0.67c-0.816,1.086-1.592,2.053-2.325,2.896l-0.329-0.324
		c0.037-1.855-0.172-4.027-0.626-6.52l-1.232,0.807l-0.168-0.529l3.295-2.153l0.168,0.529l-1.588,1.038
		c0.433,2.645,0.66,4.674,0.684,6.088c0.432-0.457,1.041-1.211,1.83-2.264c-0.336-0.475-0.704-0.932-1.103-1.371l0.323-0.539
		C123.456,319.514,124.078,320.344,124.468,321.059z M130.665,317.563c0.066,0.595,0.064,1.057-0.005,1.385
		s-0.282,0.608-0.638,0.841l-1.275,0.833c-0.349,0.228-0.625,0.294-0.83,0.198s-0.379-0.367-0.521-0.818l-1.36-4.301l-0.937,0.611
		c0.466,1.594,0.648,2.924,0.548,3.993c-0.1,1.067-0.474,2.193-1.121,3.376l-0.456-0.229c0.619-1.111,0.975-2.187,1.065-3.225
		c0.092-1.041-0.067-2.25-0.478-3.628l-0.974,0.637l-1.663-5.263l1.173-0.767c0.129-0.729,0.189-1.358,0.182-1.892l0.521-0.078
		c-0.036,0.543-0.105,1.093-0.207,1.646l3.407-2.227l1.663,5.263l-2.281,1.491l1.406,4.447c0.042,0.135,0.116,0.236,0.225,0.303
		c0.107,0.066,0.234,0.057,0.38-0.029c0.146-0.088,0.417-0.26,0.811-0.518c0.413-0.27,0.671-0.461,0.774-0.572
		c0.103-0.113,0.152-0.357,0.147-0.734c-0.005-0.379-0.02-0.607-0.044-0.687L130.665,317.563z M125.058,312.793l-0.567-1.795
		l-1.862,1.217l0.567,1.795L125.058,312.793z M125.82,315.203l-0.595-1.881l-1.862,1.217l0.595,1.881L125.82,315.203z
		 M127.389,311.271l-0.568-1.797l-1.889,1.234l0.567,1.797L127.389,311.271z M128.15,313.68l-0.594-1.879l-1.89,1.234l0.595,1.879
		L128.15,313.68z M130.202,316.782l-0.287,0.507l-0.308-0.379c-0.607,0.738-1.121,1.338-1.543,1.799l-0.271-0.303
		c0.103-1.359,0.135-2.396,0.095-3.111l0.454-0.084c0.004,0.482-0.019,1.34-0.07,2.572c0.22-0.223,0.565-0.615,1.035-1.182
		c-0.175-0.17-0.37-0.345-0.588-0.523l0.239-0.499C129.506,316.039,129.921,316.439,130.202,316.782z"/>
	<path id="XMLID_189_" style="fill:#FFA90B;" d="M143.475,298.746l-0.203,0.652c-0.751-0.404-1.538-0.716-2.361-0.936l0.188-0.6
		C141.978,298.084,142.77,298.377,143.475,298.746z M144.309,302.434l-0.148,0.701c-0.768-0.305-1.624-0.515-2.569-0.631
		l0.151-0.611C142.679,301.98,143.535,302.161,144.309,302.434z M150.533,298.35l-5.227,3.416l-1.617-5.117l5.227-3.414
		L150.533,298.35z M144.902,304.473c0.08,2.267,0.019,4.292-0.184,6.076l-0.495-0.148c0.19-1.752,0.251-3.773,0.182-6.064
		L144.902,304.473z M149.924,298.109l-1.283-4.059l-4.344,2.838l1.283,4.061L149.924,298.109z M153.75,304.193l-7.606,4.971
		l-0.165-0.523l0.957-0.625l-1.465-4.637l5.932-3.877l1.466,4.637l0.716-0.467L153.75,304.193z M149.069,297.418l-0.25,0.607
		c-0.555-0.348-1.169-0.549-1.84-0.604c-0.148,0.871-0.403,1.703-0.763,2.497l-0.424-0.211c0.599-1.118,0.871-2.374,0.816-3.767
		l0.435-0.123c0.045,0.316,0.049,0.653,0.014,1.006C147.837,296.926,148.508,297.123,149.069,297.418z M148.767,306.818
		l-1.298-4.105l-1.389,0.907l1.298,4.106L148.767,306.818z M150.597,305.623l-1.298-4.105l-1.389,0.906l1.298,4.107L150.597,305.623
		z M152.427,304.428l-1.298-4.106l-1.389,0.907l1.298,4.106L152.427,304.428z"/>
	<path id="XMLID_200_" style="fill:#FFA90B;" d="M165.569,284.008l-8.015,5.236l1.458,4.615c0.455,1.438,0.727,2.635,0.815,3.586
		c0.089,0.955,0.078,2.002-0.032,3.143l-0.507-0.164c0.126-1.285,0.122-2.387-0.011-3.302c-0.134-0.915-0.371-1.911-0.711-2.987
		l-1.621-5.131l4.145-2.707c-0.172-0.186-0.438-0.426-0.8-0.723l0.276-0.541c0.545,0.479,0.881,0.793,1.008,0.947l3.827-2.502
		L165.569,284.008z M166.289,286.283l-1.966,1.285l0.73,2.311l-3.827,2.5l-0.73-2.311l-1.738,1.136l-0.167-0.529l1.738-1.136
		l-0.396-1.252l0.441-0.289l0.396,1.252l2.944-1.924l-0.396-1.252l0.441-0.287l0.396,1.252l1.966-1.285L166.289,286.283z
		 M168.967,293.982l-0.113,0.688c-1.666,0.686-3.056,1.044-4.167,1.075c-0.953,1.452-2.182,2.798-3.686,4.038l-0.407-0.404
		c1.47-1.158,2.627-2.354,3.471-3.588c-1.138-0.135-2.117-0.609-2.938-1.424l-0.474,0.311l-0.165-0.521l5.512-3.602l0.189,0.598
		c-0.084,1.27-0.469,2.594-1.154,3.971C166.07,295.053,167.38,294.672,168.967,293.982z M164.445,289.639l-0.563-1.783l-2.944,1.924
		l0.563,1.783L164.445,289.639z M165.666,291.402l-4.032,2.635c0.916,0.803,1.857,1.186,2.826,1.152
		C165.137,293.979,165.54,292.717,165.666,291.402z"/>
	<path id="XMLID_206_" style="fill:#FFA90B;" d="M177.045,278.827l-0.279,0.595c-0.122-0.111-0.357-0.295-0.708-0.554
		c-1.003,0.936-2.32,2.016-3.952,3.237l-0.288-0.357c0.473-1.148,0.729-2.655,0.769-4.516l0.482-0.073
		c-0.063,1.537-0.239,2.856-0.528,3.958c1.336-1.007,2.358-1.853,3.069-2.535c-0.309-0.224-0.774-0.477-1.396-0.759l0.224-0.591
		C175.493,277.723,176.362,278.255,177.045,278.827z M178.783,287.24c0.17,0.539,0.027,0.959-0.429,1.256l-0.979,0.641l-0.358-0.414
		l0.609-0.373c0.399-0.26,0.625-0.438,0.679-0.535s0.06-0.212,0.018-0.348l-0.788-2.491c-0.772,1.171-1.537,2.245-2.294,3.22
		l-0.333-0.211c0.164,0.783,0.231,1.666,0.2,2.648l-0.492-0.038c0.064-1.179-0.116-2.44-0.541-3.786l-1.182-3.738l3.79-2.477
		L178.783,287.24z M177.349,284.391l-0.95-3.008l-2.907,1.898l0.384,1.213c0.908-0.354,1.816-0.607,2.72-0.762l-0.105,0.631
		c-0.911,0.159-1.729,0.375-2.452,0.645l0.478,1.512c0.144,0.455,0.264,0.891,0.361,1.309
		C175.629,286.91,176.454,285.764,177.349,284.391z M181.919,277.625l-3.176,2.075c-0.441,0.289-0.749,0.156-0.924-0.396
		l-1.419-4.49l0.441-0.288l0.585,1.852l3.208-2.096l0.167,0.529l-3.208,2.096l0.616,1.949c0.091,0.287,0.253,0.354,0.486,0.202
		l3.046-1.991L181.919,277.625z M183.471,282.246c0.202,0.791,0.289,1.428,0.259,1.91c-0.029,0.48-0.249,0.855-0.657,1.123
		l-2.051,1.34c-0.5,0.326-0.848,0.176-1.046-0.451l-1.703-5.389l0.441-0.289l0.68,2.152l3.229-2.111l0.168,0.531l-3.23,2.109
		l0.801,2.533c0.08,0.252,0.191,0.371,0.334,0.357c0.143-0.012,0.504-0.207,1.082-0.586c0.785-0.512,1.229-0.855,1.331-1.027
		c0.101-0.173,0.133-0.441,0.096-0.806c-0.038-0.366-0.122-0.79-0.253-1.274L183.471,282.246z"/>
	<path id="XMLID_212_" style="fill:#FFA90B;" d="M195.626,266.494l-7.478,4.885l-1.003-3.174l7.478-4.885L195.626,266.494z
		 M197.005,267.282l-9.351,6.109l-0.151-0.48l9.35-6.109L197.005,267.282z M194.597,264.966l-0.284-0.898l-6.572,4.294l0.284,0.898
		L194.597,264.966z M195.031,266.337l-0.293-0.926l-6.572,4.294l0.293,0.926L195.031,266.337z M199.35,274.332l-9.549,6.239
		l-0.148-0.466l4.555-2.976l-0.33-1.044l-3.892,2.543l-0.143-0.453l3.892-2.543l-0.313-0.987l-3.516,2.297l-1.022-3.238l7.477-4.885
		l1.023,3.238l-3.521,2.3l0.312,0.987l3.871-2.529l0.143,0.453l-3.87,2.529l0.33,1.044l4.554-2.976L199.35,274.332z
		 M192.837,272.792l-0.293-0.926l-3.063,2.001l0.293,0.926L192.837,272.792z M193.28,274.192l-0.305-0.961l-3.063,2.001l0.304,0.961
		L193.28,274.192z M196.346,270.5l-0.293-0.926l-3.068,2.004l0.293,0.926L196.346,270.5z M196.789,271.899l-0.304-0.961
		l-3.068,2.004l0.304,0.961L196.789,271.899z"/>
	<path id="XMLID_222_" style="fill:#FFA90B;" d="M82.734,376.592l-0.22-0.695l3.176-2.076l0.22,0.695L82.734,376.592z"/>
	<path id="XMLID_224_" style="fill:#FFA90B;" d="M91.66,370.76l-0.22-0.695l3.176-2.076l0.22,0.695L91.66,370.76z"/>
	<path id="XMLID_226_" style="fill:#FFA90B;" d="M100.586,364.928l-0.22-0.695l3.177-2.076l0.22,0.695L100.586,364.928z"/>
	<path id="XMLID_228_" style="fill:#FFA90B;" d="M109.512,359.096l-0.221-0.695l3.177-2.076l0.22,0.695L109.512,359.096z"/>
	<path id="XMLID_230_" style="fill:#FFA90B;" d="M118.438,353.264l-0.22-0.695l3.176-2.076l0.22,0.695L118.438,353.264z"/>
	<path id="XMLID_232_" style="fill:#FFA90B;" d="M127.364,347.432l-0.22-0.695l3.176-2.076l0.22,0.695L127.364,347.432z"/>
	<path id="XMLID_234_" style="fill:#FFA90B;" d="M136.29,341.6l-0.22-0.695l3.176-2.075l0.22,0.695L136.29,341.6z"/>
	<path id="XMLID_237_" style="fill:#FFA90B;" d="M145.215,335.768l-0.22-0.695l3.177-2.076l0.22,0.695L145.215,335.768z"/>
	<path id="XMLID_239_" style="fill:#FFA90B;" d="M154.141,329.936l-0.22-0.695l3.177-2.075l0.22,0.695L154.141,329.936z"/>
	<path id="XMLID_241_" style="fill:#FFA90B;" d="M163.068,324.104l-0.22-0.695l3.176-2.075l0.221,0.695L163.068,324.104z"/>
	<path id="XMLID_243_" style="fill:#FFA90B;" d="M173.408,324.512l-0.549,0.358l0.053-15.202l0.575-0.377L173.408,324.512z"/>
	<path id="XMLID_245_" style="fill:#FFA90B;" d="M181.967,318.918l-0.549,0.359l0.053-15.202l0.576-0.376L181.967,318.918z"/>
</g>
<line id="XMLID_122_" style="fill:none;stroke:#FFA90B;stroke-miterlimit:10;" x1="207.5" y1="335" x2="207.5" y2="380"/>
<polyline id="XMLID_121_" style="fill:none;stroke:#FFA90B;stroke-width:4;stroke-miterlimit:10;" points="37,242 63,242 
	123,204.75 122,191.875 161,167.438 173,171.219 206,150.109 212,130.805 "/>
<polyline id="XMLID_443_" style="fill:none;stroke:#FFA90B;stroke-miterlimit:10;" points="40,46 236.5,106 235.5,180.5 
	223.5,180.5 223.5,206.5 236.5,206.5 236.5,226.5 223.5,226.5 223.5,251.5 236.5,251.5 236.5,273.5 223.5,273.5 223.5,297.5 
	236,297.5 235.5,374 75,476 "/>
<g id="XMLID_236_">
	<g id="XMLID_35_">
		<g id="XMLID_3_">
			<g id="XMLID_4_">
				<g id="XMLID_5_">
					<g id="XMLID_6_">
						<path id="XMLID_7_" style="fill:#FFD079;stroke:#FFD079;stroke-miterlimit:10;" d="M715.001,447.342
							c0,0-0.036,0.217-0.106,0.643c-0.036,0.213-0.125,0.471-0.206,0.783c-0.079,0.313-0.182,0.675-0.352,1.072
							c-0.602,1.6-1.842,3.927-4.253,6.4c-2.36,2.507-5.818,5.131-10.199,7.71c-4.4,2.556-9.721,5.084-15.873,7.456
							c-24.634,9.556-62.017,17.144-107.185,21.574c-22.6,2.204-47.185,3.622-73.207,4.042c-26.021,0.411-53.487-0.119-81.811-2.058
							c-28.308-1.976-57.531-5.215-86.722-11.15c-14.568-3.019-29.171-6.674-43.24-11.95c-3.51-1.329-6.978-2.776-10.362-4.39
							l-2.512-1.243c-0.802-0.429-1.621-0.831-2.41-1.284c-1.59-0.883-3.161-1.806-4.675-2.818
							c-1.519-1.003-2.996-2.074-4.382-3.256c-1.399-1.165-2.711-2.442-3.864-3.852c-1.155-1.405-2.163-2.947-2.857-4.633
							c-0.697-1.681-1.055-3.511-0.969-5.332c0.148-3.686,2.096-7.029,4.504-9.719c2.455-2.701,5.385-4.92,8.449-6.879
							c6.075-3.851,13.089-6.915,20.097-9.54c14.1-5.2,28.712-8.812,43.29-11.789c29.206-5.865,58.432-9.064,86.742-11.006
							c28.326-1.903,55.793-2.403,81.814-1.968c26.022,0.461,50.606,1.885,73.202,4.135c22.596,2.241,43.21,5.28,61.271,8.974
							c18.058,3.68,33.574,8.038,45.841,12.884c12.25,4.813,21.248,10.338,25.783,15.544c1.136,1.288,1.976,2.534,2.623,3.644
							c0.589,1.136,1.014,2.125,1.23,2.952c0.473,1.647,0.452,2.536,0.452,2.536l-1.481,0.098c0,0,0.021-0.768-0.397-2.221
							c-0.188-0.73-0.572-1.614-1.103-2.646c-0.594-1.013-1.367-2.167-2.437-3.381c-2.153-2.417-5.386-5.078-9.656-7.637
							c-4.248-2.59-9.498-5.097-15.561-7.509c-12.151-4.801-27.595-9.143-45.592-12.81c-18-3.682-38.568-6.714-61.12-8.951
							c-22.553-2.246-47.098-3.668-73.081-4.128c-25.982-0.434-53.41,0.066-81.688,1.965c-28.261,1.939-57.436,5.134-86.547,10.98
							c-14.528,2.966-29.084,6.568-43.067,11.726c-6.925,2.585-13.994,5.707-19.534,9.24c-2.869,1.834-5.612,3.911-7.91,6.44
							c-2.254,2.518-4.078,5.648-4.216,9.099c-0.081,1.705,0.254,3.418,0.907,4.992c0.65,1.579,1.594,3.022,2.675,4.338
							c1.08,1.32,2.308,2.516,3.618,3.606c1.298,1.107,2.681,2.11,4.103,3.048c1.417,0.948,2.888,1.812,4.377,2.639
							c0.739,0.423,1.507,0.801,2.259,1.203l2.463,1.219c3.338,1.592,6.77,3.025,10.249,4.342
							c13.95,5.232,28.496,8.877,43.013,11.884c29.096,5.915,58.267,9.151,86.525,11.123c28.276,1.936,55.703,2.465,81.685,2.055
							c25.984-0.419,50.529-1.834,73.087-4.035c45.077-4.418,82.377-12.004,106.792-21.481c6.096-2.35,11.348-4.847,15.661-7.353
							c4.292-2.526,7.641-5.078,9.875-7.453c2.289-2.351,3.398-4.475,3.938-5.898c0.155-0.355,0.245-0.675,0.313-0.951
							c0.071-0.275,0.153-0.503,0.183-0.69c0.06-0.373,0.091-0.563,0.091-0.563L715.001,447.342z"/>
						<path id="XMLID_8_" style="fill:#FFD079;stroke:#FFD079;stroke-miterlimit:10;" d="M585.093,387.851
							c0,0,2.166,0.241,5.957,0.662c3.79,0.438,9.204,1.084,15.694,1.986c12.98,1.792,30.266,4.603,47.467,8.689
							c17.204,4.066,34.308,9.485,47.003,16.074c3.174,1.641,6.073,3.35,8.627,5.081c2.553,1.733,4.76,3.517,6.542,5.177
							c1.787,1.63,3.135,3.228,4.03,4.333c0.888,1.161,1.338,1.825,1.338,1.825l-4.961,3.374c0,0-0.365-0.534-1.088-1.485
							c-0.745-0.911-1.856-2.243-3.411-3.66c-3.075-2.91-7.845-6.247-13.836-9.318c-11.97-6.227-28.707-11.574-45.631-15.564
							c-16.929-4.022-34.044-6.808-46.903-8.583c-6.43-0.894-11.799-1.535-15.558-1.969c-3.761-0.418-5.91-0.657-5.91-0.657
							L585.093,387.851z"/>
						<path id="XMLID_9_" style="fill:#FFD079;stroke:#FFD079;stroke-miterlimit:10;" d="M726.31,447.082
							c0,0-0.009,0.141-0.027,0.419c-0.014,0.279-0.048,0.692-0.139,1.223c-0.087,0.531-0.182,1.205-0.355,1.972
							c-0.201,0.741-0.413,1.645-0.75,2.57c-0.655,1.883-1.688,3.989-3.091,6.116c-1.411,2.095-3.182,4.142-5.225,6.08
							c-4.096,3.89-9.244,7.291-15.158,10.369c-5.92,3.085-12.632,5.878-19.983,8.417c-29.393,10.164-69.054,16.765-108.848,20.392
							c-39.796,3.657-79.675,4.197-109.556,3.451c-14.944-0.356-27.395-0.997-36.106-1.538c-8.712-0.543-13.688-0.948-13.688-0.948
							l0.463-5.982c0,0,4.94,0.402,13.595,0.942c8.654,0.537,21.025,1.175,35.879,1.528c29.7,0.742,69.363,0.203,108.867-3.428
							c39.48-3.586,78.842-10.184,107.427-20.085c7.141-2.466,13.597-5.161,19.173-8.068c5.575-2.897,10.276-6.043,13.806-9.404
							c1.764-1.674,3.236-3.386,4.372-5.07c1.12-1.706,1.917-3.335,2.411-4.758c0.258-0.701,0.406-1.372,0.564-1.927
							c0.127-0.57,0.193-1.067,0.261-1.46c0.072-0.393,0.095-0.696,0.103-0.902c0.012-0.204,0.019-0.308,0.019-0.308L726.31,447.082
							z"/>
						<path id="XMLID_10_" style="fill:#FFD079;stroke:#FFD079;stroke-miterlimit:10;" d="M252.462,444.447
							c0,0,0.002-0.413,0.123-1.198c0.059-0.392,0.093-0.887,0.248-1.452c0.127-0.572,0.278-1.232,0.541-1.953
							c0.902-2.928,3.162-6.9,7.329-10.959c2.091-2.023,4.645-4.078,7.663-6.048c0.764-0.48,1.543-0.97,2.338-1.469
							c0.816-0.47,1.648-0.948,2.495-1.436c0.861-0.457,1.737-0.922,2.629-1.395c0.776-0.383,1.565-0.772,2.367-1.168
							c6.363-3.048,13.664-5.835,21.703-8.393c32.173-10.214,76.082-16.727,120.094-19.792c44.03-3.126,88.162-2.699,121.194-0.843
							c16.519,0.907,30.265,2.122,39.877,3.108c4.806,0.491,8.579,0.926,11.152,1.223c2.571,0.311,3.943,0.477,3.943,0.477
							l-0.245,1.985c0,0-1.367-0.166-3.932-0.476c-2.565-0.296-6.328-0.729-11.122-1.219c-9.587-0.983-23.3-2.195-39.783-3.1
							c-32.958-1.853-77.014-2.278-120.944,0.841c-43.905,3.054-87.714,9.567-119.628,19.703c-7.971,2.536-15.191,5.295-21.443,8.29
							c-0.785,0.387-1.557,0.768-2.316,1.143c-0.835,0.442-1.655,0.876-2.461,1.302c-0.793,0.453-1.572,0.899-2.336,1.335
							c-0.746,0.463-1.478,0.917-2.195,1.363c-2.835,1.827-5.259,3.724-7.26,5.601c-3.994,3.759-6.235,7.479-7.127,10.243
							c-0.26,0.679-0.41,1.303-0.536,1.843c-0.153,0.534-0.189,1.002-0.249,1.373c-0.123,0.742-0.122,1.133-0.122,1.133
							L252.462,444.447z"/>
						<path id="XMLID_11_" style="fill:#FFD079;stroke:#FFD079;stroke-miterlimit:10;" d="M255.548,466.968
							c0,0-1.95-1.912-3.578-4.015c-0.394-0.533-0.789-1.065-1.158-1.565c-0.362-0.504-0.65-1-0.923-1.411
							c-0.55-0.821-0.842-1.407-0.842-1.407l8.778-2.805c0,0,0.269,0.45,0.756,1.068c0.453,0.642,1.13,1.446,1.826,2.236
							c1.41,1.565,3.012,2.971,3.012,2.971L255.548,466.968z"/>
						<path id="XMLID_12_" style="fill:#FFD079;stroke:#FFD079;stroke-miterlimit:10;" d="M288.386,486.131
							c0,0-0.636-0.234-1.271-0.468c-0.636-0.244-1.272-0.489-1.272-0.489l3.234-8.399c0,0,0.604,0.232,1.208,0.464
							c0.606,0.223,1.212,0.446,1.212,0.446L288.386,486.131z"/>
						<polygon id="XMLID_13_" style="fill:#FFD079;stroke:#FFD079;stroke-miterlimit:10;" points="318.556,495.078 316.016,494.452 
							318.187,485.717 320.663,486.328 						"/>
						<polygon id="XMLID_14_" style="fill:#FFD079;stroke:#FFD079;stroke-miterlimit:10;" points="395.151,507.363 392.603,507.108 
							393.522,498.155 396.042,498.408 						"/>
						<path id="XMLID_15_" style="fill:#FFD079;stroke:#FFD079;stroke-miterlimit:10;" d="M246.045,451.074
							c0,0-0.086-0.427-0.214-1.067c-0.163-0.634-0.2-1.512-0.311-2.376c-0.051-0.872-0.138-1.747-0.102-2.401
							c0.036-0.655,0.06-1.092,0.06-1.092l8.985,0.293c0,0-0.019,0.348-0.048,0.87c-0.028,0.522,0.04,1.219,0.083,1.913
							c0.143,1.389,0.523,2.73,0.523,2.73L246.045,451.074z"/>
					</g>
					<path id="XMLID_16_" style="fill:none;stroke:#FFD079;stroke-miterlimit:10;" d="M534.284,386.984l0.783-16.481
						c0,0-2.582-0.113-7.1-0.31c-4.518-0.18-10.972-0.406-18.714-0.572c-15.486-0.344-36.117-0.365-56.771,0.357
						c-20.652,0.687-41.317,2.146-56.827,3.679c-7.755,0.76-14.221,1.499-18.749,2.061c-4.529,0.577-7.117,0.907-7.117,0.907"/>
					<path id="XMLID_17_" style="fill:none;stroke:#FFD079;stroke-miterlimit:10;" d="M415.665,378.97c0,0-2.043,0.159-5.872,0.456
						c-3.83,0.306-9.447,0.789-16.594,1.512c-7.148,0.723-15.827,1.701-25.781,3.071c-9.954,1.382-21.182,3.133-33.436,5.58
						c-12.258,2.476-25.526,5.534-39.646,10.151c-7.063,2.325-14.34,5.057-21.893,8.756l-1.513,0.752l-2.022,1.066
						c-1.344,0.713-2.658,1.522-3.989,2.299c-1.346,0.762-2.579,1.666-3.878,2.495c-1.238,0.891-2.495,1.777-3.677,2.727
						c-1.159,0.969-2.348,1.921-3.406,2.97c-1.119,1.008-2.123,2.092-3.121,3.183c-1.934,2.217-3.625,4.582-5.031,7.091
						c-1.418,2.505-2.444,5.202-3.128,8.018c-0.17,0.703-0.279,1.424-0.421,2.137c-0.104,0.72-0.153,1.45-0.232,2.175l-0.122,2.195
						c0.037,0.732,0.071,1.467,0.127,2.199c0.439,5.886,2.763,11.419,6.312,16.241c1.773,2.423,3.808,4.733,6.17,6.836
						c0.555,0.55,1.179,1.052,1.791,1.563c0.621,0.503,1.205,1.039,1.859,1.516c1.312,0.951,2.584,1.944,3.978,2.82
						c0.687,0.447,1.361,0.91,2.059,1.346l2.136,1.259c1.419,0.86,2.863,1.63,4.329,2.393l3.256,1.613l3.074,1.416
						c8.188,3.634,16.341,6.428,24.509,8.856c8.167,2.428,16.343,4.451,24.516,6.247c16.343,3.56,32.672,6.168,48.753,8.215
						c16.08,2.043,31.909,3.482,47.229,4.515c30.643,2.048,59.238,2.407,83.745,1.972c24.511-0.434,44.941-1.72,59.238-2.884
						c7.149-0.584,12.765-1.119,16.594-1.514c3.829-0.403,5.871-0.618,5.871-0.618"/>
				</g>
				<path id="XMLID_18_" style="fill:#FFD079;stroke:#FFD079;stroke-miterlimit:10;" d="M296.256,458.332
					c0,0,5.229,2.091,13.643,4.616c8.394,2.54,19.972,5.409,31.793,7.699c11.809,2.323,23.808,4.149,32.843,5.348
					c4.518,0.602,8.294,1.057,10.939,1.369c2.647,0.302,4.16,0.474,4.16,0.474s-7.708,0.956-15.459,1.703
					c-7.747,0.771-15.544,1.333-15.544,1.333s-6.068-0.924-15.088-2.612c-9.009-1.708-20.975-4.238-32.585-7.579
					c-5.81-1.652-11.514-3.523-16.711-5.488c-2.596-0.986-5.052-2.01-7.343-3.021c-1.125-0.527-2.241-1.018-3.272-1.54
					c-0.26-0.128-0.518-0.255-0.774-0.38c-0.225-0.113-0.447-0.225-0.668-0.336c-0.363-0.191-0.72-0.378-1.069-0.561
					c-2.754-1.48-4.908-2.949-6.328-4.09c-1.412-1.15-2.127-1.911-2.127-1.911s0.342,0.183,0.948,0.458
					c0.595,0.284,1.463,0.644,2.475,0.995c2.031,0.714,4.624,1.301,6.87,1.489l0.842,0.065l0.406,0.026
					c0.12,0.002,0.402,0.076,0.594,0.109c0.856,0.169,1.667,0.351,2.496,0.492c1.625,0.306,3.176,0.546,4.495,0.751
					C294.457,458.13,296.256,458.332,296.256,458.332z"/>
				<path id="XMLID_19_" style="fill:#FFD079;stroke:#FFD079;stroke-miterlimit:10;" d="M334.84,421.68c0,0-1.463,0.32-4.025,0.88
					c-2.559,0.564-6.192,1.418-10.506,2.522c-8.589,2.211-20.013,5.53-30.103,9.985c-1.247,0.559-2.493,1.121-3.671,1.713
					l-0.892,0.438l-0.458,0.237c-0.271,0.143-0.547,0.283-0.798,0.429c-1.028,0.571-2.01,1.19-2.901,1.869
					c-1.778,1.336-3.226,3.01-3.617,4.79c-0.176,0.879-0.116,1.722,0.094,2.418c0.206,0.7,0.527,1.257,0.806,1.696
					c0.593,0.864,1.037,1.272,1.037,1.272s-0.25-0.074-0.682-0.244c-0.432-0.171-1.062-0.435-1.788-0.86
					c-0.734-0.417-1.556-1.011-2.296-1.798c-0.741-0.783-1.359-1.768-1.718-2.821c-0.737-2.127-0.323-4.342,0.254-5.961
					c0.292-0.811,0.616-1.49,0.866-1.959c0.24-0.483,0.41-0.742,0.41-0.742s0.816-0.672,2.359-1.689
					c0.77-0.509,1.723-1.103,2.846-1.728c0.555-0.32,1.166-0.642,1.814-0.979c0.166-0.086,0.334-0.174,0.504-0.263
					c0.226-0.111,0.455-0.223,0.687-0.337c0.463-0.228,0.937-0.461,1.421-0.699c7.821-3.756,19.182-7.732,30.9-10.839
					c11.707-3.156,23.713-5.568,32.752-7.189c9.048-1.608,15.128-2.484,15.128-2.484s-7.279,2.885-14.39,5.971
					C341.746,418.377,334.84,421.68,334.84,421.68z"/>
				<path id="XMLID_20_" style="fill:#FFD079;stroke:#FFD079;stroke-miterlimit:10;" d="M459.06,408.622
					c0,0-24.503,0.615-48.843,2.707c-12.17,1.016-24.287,2.344-33.327,3.531c-4.523,0.583-8.277,1.124-10.903,1.508
					c-2.623,0.396-4.121,0.623-4.121,0.623s7.153-2.923,14.455-5.649c7.287-2.747,14.694-5.331,14.694-5.331
					s6.113-0.69,15.315-1.496c9.2-0.816,21.495-1.704,33.813-2.291c24.636-1.264,49.329-1.125,49.329-1.125
					s-7.663,1.761-15.264,3.646C466.6,406.615,459.06,408.622,459.06,408.622z"/>
				<path id="XMLID_21_" style="fill:#FFD079;stroke:#FFD079;stroke-miterlimit:10;" d="M581.778,412.974
					c0,0-6.056-0.667-15.178-1.46c-9.12-0.803-21.317-1.652-33.541-2.23c-12.223-0.582-24.469-0.884-33.657-0.992
					c-9.188-0.113-15.315-0.065-15.315-0.065s7.594-1.816,15.245-3.499c7.646-1.7,15.348-3.258,15.348-3.258
					s24.682,0.586,49.238,2.667c12.278,1.006,24.517,2.324,33.658,3.512c9.145,1.168,15.204,2.13,15.204,2.13
					s-7.797,0.602-15.545,1.418C589.483,411.99,581.778,412.974,581.778,412.974z"/>
			</g>
			<polygon id="XMLID_22_" style="fill:#FFD079;stroke:#FFD079;stroke-miterlimit:10;" points="606.86,466.622 612.307,465.797 
				614.359,478.924 608.787,479.768 			"/>
			<polygon id="XMLID_23_" style="fill:#FFD079;stroke:#FFD079;stroke-miterlimit:10;" points="551.633,472.217 557.194,471.816 
				558.196,485.065 552.547,485.473 			"/>
			<polygon id="XMLID_24_" style="fill:#FFD079;stroke:#FFD079;stroke-miterlimit:10;" points="625.441,463.574 630.802,462.562 
				633.344,475.603 627.829,476.645 			"/>
			<path id="XMLID_25_" style="fill:none;stroke:#FFD079;stroke-miterlimit:10;" d="M633.861,475.4c0,0-4.068,0.831-11.254,2.071
				c-7.187,1.233-17.502,2.846-29.973,4.349c-12.467,1.513-27.084,2.918-42.797,3.952c-15.713,1.039-32.519,1.696-49.337,1.918
				c-33.648,0.497-67.29-0.985-92.361-3.183c-12.542-1.071-22.947-2.27-30.21-3.197c-7.264-0.926-11.394-1.551-11.394-1.551"/>
		</g>
	</g>
</g>
<g id="XMLID_434_">
	<g id="XMLID_435_">
		<g id="XMLID_440_">
			<polyline id="XMLID_442_" style="fill:none;stroke:#FFA90B;stroke-miterlimit:10;" points="175.103,382.045 170.734,374.591 
				127.964,401.837 			"/>
			
				<line id="XMLID_441_" style="fill:none;stroke:#FFA90B;stroke-miterlimit:10;" x1="141.541" y1="397.531" x2="5.2" y2="484.387"/>
		</g>
		<polygon id="XMLID_439_" style="fill:#FFA90B;" points="92.5,448.524 66.123,465.327 72.419,456.896 98.796,440.093 		"/>
		<polygon id="XMLID_438_" style="fill:#FFA90B;" points="127.111,426.33 100.734,443.134 107.03,434.702 133.407,417.899 		"/>
		<polygon id="XMLID_437_" style="fill:#FFA90B;" points="161.046,404.857 134.669,421.661 140.965,413.229 167.342,396.426 		"/>
		<polygon id="XMLID_436_" style="fill:#FFA90B;" points="194.161,383.762 167.784,400.565 174.079,392.134 200.456,375.33 		"/>
	</g>
</g>
<line id="XMLID_429_" style="fill:none;stroke:#FFA90B;stroke-miterlimit:10;" x1="873.5" y1="418" x2="753.436" y2="343.106"/>
<polygon id="XMLID_428_" style="fill:#FFA90B;" points="838.024,390.716 874.289,411.903 883.976,411.284 847.711,390.097 "/>
<polyline id="XMLID_427_" style="fill:none;stroke:#FFA90B;stroke-width:4;stroke-miterlimit:10;" points="936,230 909.5,230 
	849.5,193.75 850.5,181.375 811.5,157.188 799.5,161.094 766.5,140.047 760.75,119.773 "/>
<polyline id="XMLID_409_" style="fill:none;stroke:#FFA90B;stroke-miterlimit:10;" points="920.5,46 724,106 725,180.5 736.5,180.5 
	736.5,206.5 723.5,206.5 723.5,226.5 736.5,226.5 736.5,251.5 723.5,251.5 723.5,273.5 736.5,273.5 736.5,297.5 724.5,297.5 
	725,374 885.5,476 "/>
<g id="XMLID_400_">
	<g id="XMLID_401_">
		<g id="XMLID_406_">
			<polyline id="XMLID_408_" style="fill:none;stroke:#FFA90B;stroke-miterlimit:10;" points="785.397,382.045 789.766,374.591 
				832.536,401.837 			"/>
			
				<line id="XMLID_407_" style="fill:none;stroke:#FFA90B;stroke-miterlimit:10;" x1="818.959" y1="397.531" x2="955.3" y2="484.387"/>
		</g>
		<polygon id="XMLID_405_" style="fill:#FFA90B;" points="868,448.524 894.377,465.327 888.081,456.896 861.704,440.093 		"/>
		<polygon id="XMLID_404_" style="fill:#FFA90B;" points="833.389,426.33 859.766,443.134 853.47,434.702 827.093,417.899 		"/>
		<polygon id="XMLID_403_" style="fill:#FFA90B;" points="799.454,404.857 825.831,421.661 819.535,413.229 793.158,396.426 		"/>
		<polygon id="XMLID_402_" style="fill:#FFA90B;" points="766.339,383.762 792.716,400.565 786.421,392.134 760.044,375.33 		"/>
	</g>
</g>
</svg>
