<?xml version="1.0" encoding="iso-8859-1"?>
<!-- Generator: Adobe Illustrator 19.0.0, SVG Export Plug-In . SVG Version: 6.00 Build 0)  -->
<svg version="1.1" xmlns="http://www.w3.org/2000/svg" xmlns:xlink="http://www.w3.org/1999/xlink" x="0px" y="0px"
	 viewBox="0 0 960 560" style="enable-background:new 0 0 960 560;" xml:space="preserve">
<g id="&#x5716;&#x5C64;_2" style="display:none;">
	<rect id="XMLID_2_" style="display:inline;fill:#FFF4CB;" width="960" height="560"/>
</g>
<g id="&#x5716;&#x5C64;_1">
	<line id="XMLID_117_" style="fill:none;stroke:#FFFFFF;stroke-miterlimit:10;" x1="87" y1="412" x2="207.064" y2="337.106"/>
	<path id="XMLID_114_" style="fill:#00AA84;stroke:#00AA84;stroke-miterlimit:10;" d="M171,368"/>
	<polygon id="XMLID_116_" style="fill:#FFFFFF;" points="122.476,384.716 86.211,405.903 76.524,405.284 112.789,384.097 	"/>
	<g id="XMLID_118_">
		<path id="XMLID_300_" style="fill:#FFFFFF;" d="M44.667,304.55l-0.549,0.358l0.053-15.203l0.576-0.376L44.667,304.55z"/>
		<path id="XMLID_302_" style="fill:#FFFFFF;" d="M53.227,298.957l-0.55,0.359l0.053-15.203l0.576-0.377L53.227,298.957z"/>
		<path id="XMLID_304_" style="fill:#FFFFFF;" d="M72.948,276.808l-1.389,0.907l2.077,6.572l-0.441,0.289l-2.077-6.573l-1.949,1.273
			c0.871,2.808,0.994,5.392,0.373,7.753l-0.469-0.105c0.622-2.143,0.507-4.594-0.345-7.359l-1.523,0.995l-0.167-0.529l1.523-0.995
			l-1.391-4.399l-1.281,0.837l-0.167-0.528l5.426-3.545l0.167,0.528l-1.313,0.858l1.391,4.399l1.389-0.907L72.948,276.808z
			 M70.95,277.474l-1.391-4.399l-1.949,1.273l1.391,4.399L70.95,277.474z M74.842,268.952c-0.433,1.879-1.278,3.719-2.535,5.52
			l-0.421-0.22c1.291-1.931,2.12-3.746,2.487-5.446L74.842,268.952z M76.117,272.637c-0.462,1.977-1.316,3.935-2.561,5.872
			l-0.42-0.221c1.248-1.874,2.084-3.803,2.509-5.789L76.117,272.637z M77.598,276.625c-0.208,1.093-0.605,2.318-1.189,3.674
			c-0.584,1.357-1.217,2.525-1.898,3.508l-0.413-0.218c1.497-2.293,2.51-4.657,3.039-7.091L77.598,276.625z"/>
		<path id="XMLID_310_" style="fill:#FFFFFF;" d="M87.86,269.735c-1.045,2.284-2.187,4.547-3.427,6.792l-0.343-0.406l0.825-1.438
			l-3.302-10.448l0.441-0.288l3.19,10.094c0.762-1.411,1.554-3.04,2.377-4.888L87.86,269.735z M87.792,265.908l-0.302,0.524
			c-1.107-1.023-2.242-1.867-3.404-2.53l0.341-0.525C85.717,264.17,86.839,265.013,87.792,265.908z M93.931,270.598l-0.208,0.614
			c-0.961-0.671-2.112-1.326-3.454-1.968c-0.262,1.638-0.946,3.498-2.054,5.583l-0.462-0.21c1.405-2.541,2.143-4.839,2.214-6.896
			c0.071-2.057-0.402-4.753-1.416-8.087l0.452-0.295c1.199,4.054,1.651,7.141,1.355,9.26
			C91.562,269.151,92.753,269.817,93.931,270.598z"/>
		<path id="XMLID_314_" style="fill:#FFFFFF;" d="M100.817,253.459l-1.41,0.921l0.237,0.752l-0.441,0.289l-0.237-0.752l-2.671,1.744
			l-0.163-0.516l2.671-1.744l-0.319-1.009l0.441-0.289l0.319,1.009l1.41-0.921L100.817,253.459z M108.457,260.125
			c0.246,0.779,0.067,1.367-0.534,1.76l-0.883,0.577l-0.291-0.465c0.258-0.13,0.498-0.267,0.721-0.412
			c0.305-0.199,0.496-0.371,0.572-0.513c0.076-0.142,0.083-0.313,0.02-0.512l-0.928-2.938l-3.672,2.398l0.537,1.698
			c0.622-0.496,1.158-0.944,1.607-1.345c-0.282-0.18-0.499-0.3-0.653-0.361l0.271-0.522c0.455,0.207,1.048,0.608,1.777,1.207
			l-0.299,0.574c-0.145-0.141-0.381-0.348-0.709-0.621c-1.347,1.178-2.913,2.441-4.699,3.792l-0.278-0.431
			c0.957-0.697,1.81-1.348,2.56-1.949l-0.555-1.754l-3.439,2.248l1.252,3.961l-0.441,0.288l-1.252-3.961l-0.646,0.422l-0.163-0.516
			l0.646-0.422l-0.181-0.57l0.44-0.288l0.181,0.57l3.44-2.248l-0.365-1.155l-3.23,2.11l-1.221-3.864l6.911-4.516l1.222,3.864
			l-3.24,2.117l0.365,1.155l4.112-2.687L108.457,260.125z M101.799,256.446l-0.365-1.156l-2.788,1.822l0.365,1.156L101.799,256.446z
			 M102.332,258.129l-0.374-1.183l-2.788,1.822l0.374,1.183L102.332,258.129z M105.844,250.174l-2.67,1.745l0.238,0.752
			l-0.442,0.289l-0.237-0.752l-1.41,0.921l-0.163-0.516l1.41-0.921l-0.319-1.009l0.441-0.289l0.319,1.009l2.67-1.745
			L105.844,250.174z M105.04,254.329l-0.365-1.156l-2.799,1.829l0.365,1.156L105.04,254.329z M105.573,256.012l-0.375-1.183
			l-2.799,1.829l0.374,1.183L105.573,256.012z"/>
		<path id="XMLID_322_" style="fill:#FFFFFF;" d="M115.772,247.677l-0.34,0.466l-0.298-0.427c-0.743,0.76-1.49,1.435-2.242,2.028
			l-0.28-0.413c0.402-0.89,0.74-1.87,1.014-2.938c-0.39,0.356-0.854,0.751-1.393,1.187l-0.284-0.427
			c0.318-0.747,0.565-1.878,0.738-3.397l0.481-0.038c-0.148,1.161-0.374,2.157-0.679,2.99c0.51-0.389,0.94-0.738,1.293-1.047
			l0.228-1.131l0.489,0.008c-0.295,1.643-0.701,3.062-1.22,4.258c0.555-0.464,1.089-0.941,1.6-1.432
			c-0.189-0.23-0.367-0.409-0.534-0.541l0.334-0.462C115.038,246.657,115.403,247.096,115.772,247.677z M113.793,249.902
			c0.069,1.153,0.074,1.998,0.015,2.535l-0.458-0.01c0.065-0.644,0.059-1.453-0.021-2.431L113.793,249.902z M115.327,250.892
			l-0.411,0.385c-0.294-0.697-0.577-1.23-0.849-1.595l0.396-0.394C114.726,249.669,115.014,250.205,115.327,250.892z
			 M124.377,250.538l0.021,0.599c-1.809,1.182-3.457,1.891-4.945,2.13c-0.963,1.307-2.441,2.645-4.433,4.015l-0.296-0.421
			l0.199-0.13c1.404-0.917,2.696-2.044,3.88-3.383c-0.819,0.054-1.584-0.026-2.296-0.238l0.214-0.535
			c0.784,0.232,1.63,0.287,2.538,0.164c0.764-1.092,1.259-2.309,1.484-3.648l-4.468,2.919c-0.469,1.079-0.977,2.02-1.524,2.819
			l-0.408-0.263c0.991-1.454,1.7-2.956,2.128-4.507l0.478,0.033c-0.096,0.382-0.213,0.754-0.353,1.12l6.275-4.101l0.154,0.487
			l-1.776,1.16c-0.217,1.452-0.669,2.739-1.357,3.861C121.165,252.354,122.659,251.661,124.377,250.538z M117.76,242.338
			l-3.047,1.99l-0.146-0.459l1.379-0.9c-0.144-0.22-0.368-0.469-0.671-0.746l0.352-0.407c0.334,0.291,0.592,0.576,0.771,0.857
			l1.216-0.794L117.76,242.338z M116.208,249.903l-0.395,0.375c-0.237-0.561-0.505-1.038-0.803-1.432l0.382-0.393
			C115.701,248.89,115.972,249.374,116.208,249.903z M117.903,243.858l-2.486,1.625l-0.144-0.452l2.487-1.625L117.903,243.858z
			 M118.323,245.188l-2.486,1.625l-0.146-0.46l2.487-1.625L118.323,245.188z M119.232,248.062l-2.487,1.625l-0.645-2.039
			l2.487-1.625L119.232,248.062z M118.67,247.951l-0.392-1.239l-1.609,1.051l0.392,1.239L118.67,247.951z M121.946,243.643
			l-0.34,0.466l-0.297-0.428c-0.726,0.732-1.512,1.433-2.355,2.102l-0.275-0.417c0.395-0.874,0.747-1.862,1.057-2.966
			c-0.42,0.386-0.861,0.767-1.327,1.144l-0.284-0.427c0.318-0.747,0.564-1.878,0.738-3.397l0.477-0.034
			c-0.146,1.158-0.369,2.153-0.674,2.986c0.494-0.379,0.92-0.725,1.276-1.037c0.093-0.391,0.174-0.771,0.243-1.142l0.49,0.008
			c-0.258,1.434-0.7,2.876-1.328,4.328c0.676-0.559,1.244-1.059,1.702-1.499c-0.186-0.232-0.362-0.412-0.529-0.544l0.334-0.462
			C121.212,242.623,121.577,243.063,121.946,243.643z M120.01,245.84c0.082,1.026,0.088,1.847,0.018,2.458l-0.479,0.01
			c0.089-0.87,0.088-1.661-0.003-2.375L120.01,245.84z M121.614,246.784l-0.4,0.378c-0.298-0.695-0.582-1.227-0.854-1.591
			l0.385-0.387C121.008,245.565,121.297,246.099,121.614,246.784z M122.699,245.797l-0.363,0.414
			c-0.319-0.586-0.637-1.04-0.95-1.361l0.346-0.428C122.069,244.806,122.391,245.265,122.699,245.797z"/>
		<path id="XMLID_338_" style="fill:#FFFFFF;" d="M140.127,235.509l-0.196,0.633c-0.661-0.531-1.374-1.005-2.139-1.425l2,6.328
			l-0.441,0.289l-1.784-5.646c-0.237,0.934-0.521,1.858-0.852,2.773l-0.428-0.165c0.911-2.498,1.388-4.829,1.428-6.987l-2.767,1.807
			l-0.165-0.522l3.229-2.11l0.165,0.522c0.012,0.943-0.079,1.991-0.273,3.143C138.703,234.507,139.443,234.96,140.127,235.509z
			 M136.797,230.395l-0.32,0.487c-0.465-0.498-0.974-0.929-1.527-1.296l0.299-0.514C135.813,229.42,136.33,229.861,136.797,230.395z
			 M146.34,233.693c0.274,0.951,0.362,1.633,0.265,2.048c-0.099,0.414-0.253,0.689-0.46,0.825l-0.895,0.584
			c-0.42,0.274-0.729,0.094-0.931-0.542l-1.089-3.446l-1.243,0.813c0.324,1.3,0.411,2.438,0.26,3.413
			c-0.151,0.974-0.555,1.922-1.212,2.845l-0.438-0.26c1.228-1.607,1.537-3.507,0.928-5.695l-1.114,0.728l-2.299-7.274l4.488-2.933
			l2.3,7.274l-1.228,0.802l1.094,3.46c0.051,0.162,0.131,0.245,0.238,0.25c0.107,0.006,0.298-0.081,0.57-0.258
			c0.248-0.162,0.406-0.323,0.475-0.482c0.068-0.16,0.1-0.383,0.094-0.67c-0.006-0.287-0.098-0.744-0.272-1.367L146.34,233.693z
			 M142.857,227.293l-0.53-1.678l-3.606,2.356l0.53,1.678L142.857,227.293z M143.574,229.563l-0.55-1.741l-3.606,2.356l0.55,1.741
			L143.574,229.563z M144.292,231.832l-0.551-1.74l-3.606,2.356l0.55,1.74L144.292,231.832z"/>
		<path id="XMLID_345_" style="fill:#FFFFFF;" d="M155.477,226.657c-0.336,0.65-1.293,2.158-2.871,4.521l-0.381-0.321l1.262-1.866
			l-1.362-4.31l-1.367,0.893l-0.167-0.528l1.367-0.893l-1.076-3.404l-1.49,0.974l-0.168-0.529l3.322-2.17l0.167,0.529l-1.39,0.907
			l1.076,3.404l1.222-0.798l0.167,0.528l-1.222,0.798l1.285,4.065c0.651-0.996,1.112-1.762,1.384-2.298L155.477,226.657z
			 M161.539,223.746c0.157,0.636,0.264,1.174,0.317,1.611c0.055,0.438,0.024,0.756-0.088,0.952
			c-0.113,0.198-0.453,0.482-1.021,0.853c-0.373,0.244-0.625,0.383-0.754,0.42s-0.255,0.014-0.378-0.067
			c-0.124-0.083-0.23-0.265-0.319-0.548l-1.113-3.522l-1.19,0.777c0.37,1.181,0.447,2.263,0.234,3.245
			c-0.215,0.982-0.771,2.087-1.674,3.315l-0.342-0.24c0.843-1.21,1.362-2.246,1.56-3.109c0.197-0.862,0.138-1.793-0.177-2.791
			l-0.042-0.132l-1.093,0.714l-2.309-7.303l4.656-3.042l2.309,7.303l-1.491,0.975l1.118,3.536c0.06,0.19,0.141,0.279,0.242,0.267
			c0.102-0.015,0.311-0.124,0.627-0.331c0.387-0.253,0.631-0.437,0.732-0.55c0.101-0.113,0.105-0.429,0.016-0.947
			c-0.09-0.518-0.192-0.971-0.307-1.361L161.539,223.746z M158.075,217.409l-0.546-1.726l-3.773,2.465l0.546,1.726L158.075,217.409z
			 M158.79,219.671l-0.555-1.754l-3.773,2.465l0.555,1.754L158.79,219.671z M159.511,221.955l-0.559-1.768l-3.773,2.465l0.559,1.768
			L159.511,221.955z"/>
		<path id="XMLID_351_" style="fill:#FFFFFF;" d="M54.756,320.713l-0.441,0.289l-0.735-2.326l-1.357,0.887
			c0.276,1.299,0.029,2.51-0.742,3.635l-0.394-0.281c0.679-0.852,0.91-1.873,0.694-3.064l-1.48,0.967l-0.167-0.529l3.278-2.143
			l-0.379-1.197l-2.417,1.58l-0.599-1.894l0.441-0.288l0.432,1.365l1.976-1.291l-0.521-1.65l0.441-0.289L54.756,320.713z
			 M60.958,318.123l-5.017,3.277c-0.244,0.859-0.594,1.758-1.051,2.693l0.834,2.641c0.809-0.838,1.512-1.621,2.107-2.352
			l0.262,0.373c-0.872,1.08-1.739,2.066-2.604,2.961l-0.255-0.354c0.074-0.098,0.089-0.213,0.048-0.342l-0.72-2.277
			c-0.603,1.094-1.247,2.002-1.932,2.725l-0.355-0.322c1.406-1.552,2.431-3.338,3.073-5.359l-3.94,2.574l-0.167-0.529l4.775-3.119
			c-0.232-0.323-0.458-0.566-0.677-0.725l0.358-0.494c0.288,0.242,0.556,0.543,0.804,0.902l4.291-2.803L60.958,318.123z
			 M59.337,312.951l-2.412,1.574l0.756,2.395l2.159-1.41l0.167,0.529l-4.764,3.111l-0.167-0.527l2.164-1.414l-0.757-2.395
			l-2.417,1.579l-0.165-0.522l2.417-1.579l-0.555-1.754l0.441-0.288l0.554,1.754l2.412-1.576L59.337,312.951z M62.36,322.557
			l-0.075,0.646c-1.225,0.262-2.264,0.305-3.12,0.127c-0.855-0.178-1.74-0.631-2.654-1.361l0.281-0.486
			c0.755,0.526,1.416,0.891,1.981,1.092c0.688-1.195,1.167-2.287,1.44-3.275l0.44,0.141c-0.302,1.004-0.782,2.095-1.439,3.275
			C60.105,322.943,61.154,322.891,62.36,322.557z"/>
		<path id="XMLID_356_" style="fill:#FFFFFF;" d="M68.952,307.861l-1.519,0.991l1.23,3.892c0.317-0.369,0.821-1.043,1.511-2.021
			l0.237,0.358c-0.216,0.342-0.744,1.072-1.581,2.19l1.175,3.718c0.11,0.348,0.112,0.644,0.005,0.888
			c-0.107,0.243-0.342,0.483-0.704,0.72l-0.452,0.279l-0.305-0.473l0.727-0.434c0.28-0.183,0.373-0.422,0.279-0.719l-1.104-3.494
			l-1.383,1.768l-0.304-0.406c0.925-1.143,1.43-1.777,1.515-1.906l-1.287-4.072l-1.642,1.072l-0.167-0.529l1.642-1.072l-0.869-2.748
			l0.441-0.289l0.869,2.749l1.518-0.991L68.952,307.861z M69.948,303.389c0.245,1.995,0.031,3.994-0.645,5.998l-0.493-0.164
			c0.649-1.825,0.866-3.719,0.652-5.686L69.948,303.389z M74.708,306.451c0.443,1.564,0.798,2.977,1.066,4.238
			c0.269,1.26,0.403,2.059,0.404,2.396c0.001,0.34-0.071,0.637-0.215,0.89c-0.145,0.255-0.381,0.493-0.708,0.72
			c-0.326,0.225-0.691,0.469-1.093,0.73l-0.349-0.443l0.994-0.617c0.38-0.248,0.618-0.457,0.714-0.627
			c0.096-0.168,0.145-0.376,0.147-0.625c0.001-0.246-0.123-0.959-0.374-2.135c-0.251-1.179-0.556-2.402-0.914-3.674l-2.293,1.498
			c0.438,1.59,0.586,3.045,0.445,4.369c-0.14,1.322-0.623,2.781-1.449,4.375l-0.457-0.275c0.811-1.514,1.287-2.875,1.425-4.078
			c0.139-1.205-0.01-2.565-0.444-4.078l-1.793,1.172l-0.167-0.529L74.708,306.451z M75.241,304.869l-0.146,0.625
			c-1.318-0.416-2.448-1.26-3.391-2.531l-0.959,0.627l-0.167-0.529l1.308-0.854C72.806,303.543,73.924,304.43,75.241,304.869z"/>
		<path id="XMLID_361_" style="fill:#FFFFFF;" d="M92.876,301.048l-0.441,0.288l-0.22-0.695l-1.41,0.92l0.383,1.211l-0.441,0.289
			l-3.181-10.064l2.293-1.499L92.876,301.048z M92.043,300.098l-2.456-7.77l-1.41,0.922l2.456,7.768L92.043,300.098z
			 M99.342,294.916l-3.251,2.125c0.162,1.774-0.603,3.648-2.296,5.623l-0.432-0.279c1.594-1.753,2.348-3.434,2.265-5.041
			l-2.767,1.808l-0.168-0.529l0.705-0.46l-1.63-5.158l2.422-1.584c0.204-0.604,0.443-1.461,0.721-2.57l-2.449,1.602
			c-0.212,1.027-0.6,2.113-1.166,3.256l-0.416-0.225c0.8-1.715,1.257-3.346,1.371-4.893l0.479-0.021
			c-0.029,0.385-0.074,0.77-0.135,1.156l2.729-1.783l0.167,0.529c-0.072,0.316-0.304,1.167-0.693,2.553l2.072-1.354l1.631,5.158
			l0.673-0.44L99.342,294.916z M98.061,295.115l-1.463-4.629l-1.895,1.238c0.085,0.448,0.127,0.877,0.127,1.285
			c1.06,0.232,1.836,0.454,2.328,0.671l-0.145,0.607c-0.594-0.302-1.333-0.523-2.219-0.667c-0.087,0.846-0.347,1.71-0.778,2.59
			l-0.421-0.202c0.654-1.313,0.88-2.647,0.676-4.003l-1.895,1.238l1.463,4.629l1.729-1.129c-0.039-0.315-0.142-0.781-0.305-1.397
			l0.44-0.288c0.136,0.484,0.241,0.947,0.316,1.391L98.061,295.115z M100.132,297.928l-0.143,0.639
			c-1.521-0.416-2.636-0.592-3.344-0.527l0.149-0.619C97.894,297.42,99.007,297.589,100.132,297.928z"/>
		<path id="XMLID_367_" style="fill:#FFFFFF;" d="M106.744,280.499l-1.422,0.929l0.636,2.01l1.066-0.695l2.928,9.266l-0.425,0.278
			l-0.284-0.899l-2.702,1.766l0.288,0.912l-0.43,0.282l-2.934-9.28l1.082-0.707l-0.636-2.011l-1.459,0.953l-0.171-0.543l4.29-2.803
			L106.744,280.499z M104.719,284.902l-0.651,0.426l1.184,3.744c0.097-0.773,0.099-1.452,0.006-2.035
			C105.165,286.455,104.985,285.743,104.719,284.902z M105.549,283.705l-0.636-2.011l-0.598,0.39l0.636,2.012L105.549,283.705z
			 M109.076,290.858l-1.188-3.76l-0.564,0.369c-0.323,0.211-0.551,0.108-0.683-0.31l-0.919-2.91l-0.598,0.391
			c0.307,0.971,0.504,1.789,0.594,2.455c0.089,0.667,0.076,1.414-0.04,2.238l-0.37-0.086l1.066,3.377L109.076,290.858z
			 M107.72,286.57l-0.95-3.008l-0.641,0.418l0.873,2.764c0.052,0.164,0.131,0.209,0.239,0.139L107.72,286.57z M108.086,289.496
			l-1.754,1.146l-0.172-0.543l1.755-1.146L108.086,289.496z M112.66,280.949l-4.167,2.723l-1.359-4.302l4.166-2.722L112.66,280.949z
			 M111.448,278.802l-0.422-1.338l-3.284,2.146l0.423,1.338L111.448,278.802z M112.057,280.73l-0.446-1.413l-3.284,2.146
			l0.447,1.412L112.057,280.73z M115.471,287.957l-5.162,3.373l-0.163-0.516l2.363-1.545l-0.653-2.066l-2.104,1.375l-0.161-0.51
			l2.105-1.375l-0.574-1.816l-1.491,0.975c-0.05,0.652-0.142,1.287-0.275,1.902l-0.424-0.086c0.265-1.162,0.364-2.404,0.298-3.721
			l0.437-0.059c0.017,0.381,0.018,0.822,0.003,1.324l1.292-0.844l-0.425-1.344l0.441-0.289l0.425,1.344l2.234-1.459l0.16,0.508
			l-2.234,1.461l0.574,1.816l2.105-1.376l0.16,0.509l-2.104,1.375l0.653,2.068l2.357-1.541L115.471,287.957z"/>
		<path id="XMLID_378_" style="fill:#FFFFFF;" d="M128.144,267.859l-0.21,0.65c-0.787-0.422-1.642-0.756-2.564-1.004l0.188-0.602
			C126.51,267.144,127.374,267.461,128.144,267.859z M128.985,271.442l-0.156,0.698c-0.841-0.33-1.778-0.549-2.813-0.657
			l0.151-0.611C127.257,270.978,128.196,271.167,128.985,271.442z M135.072,265.037l-0.441,0.289l-0.86-2.722l-5.113,3.341
			l0.859,2.722l-0.441,0.288l-1.027-3.25l5.997-3.918L135.072,265.037z M129.885,273.122c-0.053,1.955-0.341,4.14-0.864,6.553
			l-0.5-0.144c0.595-2.544,0.885-4.728,0.872-6.55L129.885,273.122z M131.852,270.199c0.588,1.86,0.775,3.393,0.563,4.599
			c-0.213,1.205-0.612,2.358-1.199,3.459l-0.441-0.267c0.528-0.984,0.884-1.9,1.063-2.747c0.18-0.85,0.218-1.649,0.114-2.402
			s-0.306-1.607-0.608-2.564l-0.743-2.352l0.441-0.289L131.852,270.199z M137.084,269.845c0.289,0.914,0.486,1.684,0.591,2.31
			c0.104,0.626,0.103,1.072-0.005,1.339c-0.109,0.267-0.397,0.554-0.868,0.861c-0.366,0.239-0.612,0.368-0.737,0.389
			c-0.126,0.02-0.254-0.015-0.384-0.105c-0.132-0.091-0.237-0.265-0.317-0.52l-2.438-7.713l0.441-0.289l2.418,7.65
			c0.048,0.152,0.125,0.253,0.23,0.298s0.325-0.04,0.659-0.259c0.219-0.143,0.392-0.292,0.521-0.448
			c0.127-0.157,0.107-0.609-0.063-1.359c-0.17-0.749-0.357-1.447-0.563-2.097L137.084,269.845z"/>
		<path id="XMLID_385_" style="fill:#FFFFFF;" d="M146.4,267.093l-0.441,0.289l-0.292-0.926l-1.454,0.949l0.392,1.239l-0.441,0.288
			l-3.447-10.908l2.336-1.526L146.4,267.093z M143.567,259.815l-0.789-2.499l-1.454,0.949l0.79,2.499L143.567,259.815z
			 M144.522,262.836l-0.789-2.499l-1.454,0.949l0.79,2.499L144.522,262.836z M145.499,265.927l-0.809-2.562l-1.454,0.949l0.81,2.562
			L145.499,265.927z M153.37,263.21l-6.239,4.077l-0.167-0.528l2.896-1.892l-0.645-2.04l-2.497,1.632l-0.165-0.521l2.497-1.632
			l-1.727-5.465l-2.832,1.85l-0.167-0.529l2.831-1.85l-0.559-1.769c-0.645,0.562-1.394,1.18-2.246,1.854L144,256.004
			c1.781-1.298,3.436-2.769,4.964-4.411l0.354,0.316c-0.688,0.757-1.457,1.51-2.306,2.261l0.585,1.852l2.838-1.854l0.167,0.529
			l-2.837,1.854l1.727,5.465l2.503-1.635l0.165,0.521l-2.503,1.635l0.645,2.04l2.901-1.896L153.37,263.21z M147.663,260.011
			l-0.829,0.542l0.594,1.879l-0.425,0.278l-0.594-1.879l-1.082,0.707l-0.168-0.529l1.082-0.707l-0.486-1.539l0.426-0.278
			l0.486,1.539l0.829-0.542L147.663,260.011z M151.543,257.476l-1.082,0.707l0.594,1.879l-0.431,0.281l-0.594-1.879l-0.823,0.539
			l-0.168-0.529l0.824-0.539l-0.486-1.539l0.431-0.281l0.486,1.539l1.082-0.707L151.543,257.476z"/>
		<path id="XMLID_393_" style="fill:#FFFFFF;" d="M66.278,337.646c-2.248,2.135-4.835,4.158-7.764,6.072l-0.373-0.379
			c3.46-2.299,6.029-4.299,7.708-6.001L66.278,337.646z M68.213,342.127l-0.441,0.287l-0.482-1.523l-8.08,5.279l0.481,1.523
			l-0.441,0.289l-0.64-2.025l8.962-5.855L68.213,342.127z M60.939,343.646l-0.269,0.588c-0.359-0.248-0.723-0.404-1.091-0.473
			l0.227-0.576C60.176,343.273,60.554,343.428,60.939,343.646z M61.153,346.293c-0.12,1.228-0.373,2.406-0.759,3.539l-0.452-0.117
			c0.438-1.283,0.684-2.429,0.737-3.438L61.153,346.293z M70.648,348.658l-0.071,0.658c-1.952,0.84-3.593,1.311-4.924,1.412
			c-1.151,1.553-2.568,3.075-4.253,4.566l-0.359-0.377c1.557-1.375,2.883-2.76,3.98-4.154c-0.821,0.021-1.637-0.098-2.45-0.355
			c-0.401,0.705-0.922,1.481-1.563,2.331l-0.404-0.272c0.624-0.766,1.14-1.505,1.548-2.213c-0.337-0.121-0.626-0.248-0.867-0.383
			l0.23-0.563c0.275,0.156,0.583,0.301,0.922,0.43c0.349-0.646,0.643-1.348,0.881-2.104l0.461,0.043
			c-0.141,0.434-0.255,0.755-0.345,0.965l4.236-2.768l0.156,0.494c-0.396,1.283-0.976,2.521-1.741,3.716
			C67.453,349.904,68.973,349.428,70.648,348.658z M65.916,343.855c0.115,0.596,0.146,1.018,0.096,1.26s-0.183,0.458-0.396,0.646
			c-0.214,0.187-0.734,0.55-1.559,1.089c-0.56,0.366-0.921,0.589-1.082,0.666c-0.162,0.078-0.313,0.078-0.455-0.002
			c-0.142-0.078-0.25-0.234-0.325-0.473l-0.545-1.725l0.441-0.289l0.528,1.67c0.054,0.174,0.134,0.25,0.24,0.234
			s0.492-0.24,1.159-0.678c0.769-0.502,1.238-0.836,1.411-1.002c0.173-0.165,0.169-0.621-0.01-1.365L65.916,343.855z
			 M63.724,341.895l-0.354,0.525c-0.326-0.305-0.677-0.549-1.058-0.738l0.307-0.51C63.071,341.424,63.439,341.664,63.724,341.895z
			 M67.24,346.752l-4.188,2.736l-0.191,0.402c0.812,0.236,1.684,0.32,2.617,0.246C66.245,349.055,66.832,347.926,67.24,346.752z
			 M64.651,344.664l-0.231,0.563c-0.389-0.301-0.874-0.541-1.455-0.721l0.224-0.523C63.641,344.111,64.128,344.34,64.651,344.664z
			 M66.222,338.682c-0.164,0.863-0.35,1.615-0.555,2.253l-0.458-0.095c0.236-0.664,0.413-1.387,0.529-2.168L66.222,338.682z
			 M68.491,344.012l-0.287,0.531c-0.713-0.71-1.421-1.252-2.125-1.627l0.276-0.524C67.071,342.82,67.783,343.361,68.491,344.012z"/>
		<path id="XMLID_414_" style="fill:#FFFFFF;" d="M80.074,342.701l-0.441,0.289l-0.392-1.24l-2.524,1.648l0.478,1.512l-0.442,0.289
			l-3.162-10.004l1.023-0.668c0.077-1.25,0.078-2.26,0.003-3.033l0.489-0.094c0.038,0.832,0.035,1.769-0.008,2.811l1.9-1.242
			L80.074,342.701z M77.762,337.072l-1.041-3.293l-2.524,1.648l1.041,3.295L77.762,337.072z M79.073,341.221l-1.144-3.619
			l-2.524,1.65l1.144,3.619L79.073,341.221z M82.495,329.445c0.625,2.088,1.175,4.119,1.647,6.096
			c0.473,1.975,0.701,3.094,0.685,3.357c-0.017,0.263-0.076,0.535-0.177,0.816c-0.102,0.281-0.515,0.66-1.239,1.133l-0.714,0.434
			l-0.317-0.447l0.69-0.426c0.639-0.418,1.015-0.727,1.127-0.926s0.159-0.467,0.142-0.803c-0.018-0.336-0.229-1.336-0.633-3
			c-0.405-1.664-0.902-3.463-1.491-5.396l-2.955,1.932c-0.039,1.244-0.177,2.508-0.413,3.787l-0.501-0.186
			c0.449-2.006,0.56-4.262,0.335-6.77l0.48-0.162c0.078,0.93,0.111,1.82,0.099,2.674L82.495,329.445z M82.52,337.063l-0.287,0.615
			c-0.704-0.816-1.575-1.578-2.611-2.283l0.236-0.566C80.656,335.27,81.543,336.016,82.52,337.063z"/>
		<path id="XMLID_420_" style="fill:#FFFFFF;" d="M98.465,321.656l-0.44,0.287l-0.753-2.381l-3.849,2.516l0.929,2.938l-0.441,0.287
			l-0.929-2.938l-3.849,2.516l0.752,2.381l-0.436,0.285l-0.896-2.834l4.284-2.799l-0.321-1.018l-3.956,2.584l-0.144-0.451
			l8.354-5.459l0.144,0.453l-3.957,2.584l0.321,1.018l4.29-2.803L98.465,321.656z M92.647,323.752l-0.003,0.522
			c-0.912,0.322-1.773,0.712-2.585,1.169l-0.025-0.512C90.821,324.494,91.692,324.102,92.647,323.752z M93.12,328.986l-2.304,1.506
			l-0.688-2.18l2.304-1.505L93.12,328.986z M93.083,325.09c-0.87,0.891-1.683,1.641-2.439,2.248l-0.253-0.39
			c0.916-0.733,1.722-1.466,2.416-2.2L93.083,325.09z M92.543,328.809l-0.4-1.268l-1.442,0.943l0.4,1.267L92.543,328.809z
			 M101.104,328.994l-9.55,6.238l-0.143-0.451l4.554-2.977l-0.848-2.68l-1.518,0.992c-0.039,0.312-0.107,0.658-0.203,1.039
			c0.761-0.025,1.402,0.009,1.922,0.105l-0.126,0.586c-0.61-0.139-1.257-0.197-1.939-0.177c-0.283,0.886-0.638,1.62-1.063,2.206
			l-0.417-0.189c0.71-1.014,1.165-2.102,1.363-3.268l-2.239,1.463l-0.146-0.459l8.887-5.807l0.146,0.459l-1.357,0.887
			c-0.045,0.32-0.117,0.67-0.215,1.047c0.563-0.016,1.203,0.021,1.918,0.107l-0.121,0.584c-0.67-0.123-1.316-0.182-1.939-0.178
			c-0.296,0.898-0.649,1.635-1.063,2.205l-0.417-0.189c0.647-0.91,1.103-1.999,1.364-3.268l-2.396,1.566l0.848,2.68l4.554-2.977
			L101.104,328.994z M96.118,327.027l-2.304,1.506l-0.688-2.18l2.304-1.505L96.118,327.027z M95.542,326.85l-0.401-1.268
			l-1.442,0.943l0.4,1.267L95.542,326.85z M97.059,320.902c-0.936,0.892-1.756,1.607-2.465,2.148l-0.259-0.369
			c0.776-0.584,1.593-1.295,2.45-2.129L97.059,320.902z M97.603,322.336l0.013,0.514c-1.029,0.347-2.006,0.762-2.933,1.244
			l0.001-0.514C95.696,323.082,96.668,322.668,97.603,322.336z M99.105,325.075l-2.304,1.505l-0.688-2.178l2.304-1.506
			L99.105,325.075z M98.53,324.898l-0.4-1.268l-1.443,0.943l0.4,1.266L98.53,324.898z"/>
		<path id="XMLID_445_" style="fill:#FFFFFF;" d="M106.545,312.16l-3.014,1.971l-0.166-0.523l3.015-1.969L106.545,312.16z
			 M109.728,321.059l-0.369,0.518l-0.426-0.67c-0.816,1.086-1.592,2.053-2.325,2.896l-0.329-0.324
			c0.037-1.855-0.172-4.027-0.626-6.52l-1.232,0.807l-0.168-0.529l3.295-2.153l0.168,0.529l-1.588,1.038
			c0.433,2.645,0.66,4.674,0.684,6.088c0.432-0.457,1.041-1.211,1.83-2.264c-0.336-0.475-0.704-0.932-1.103-1.371l0.323-0.539
			C108.715,319.514,109.337,320.344,109.728,321.059z M115.924,317.563c0.066,0.595,0.064,1.057-0.005,1.385
			s-0.282,0.608-0.638,0.841l-1.275,0.833c-0.349,0.228-0.625,0.294-0.83,0.198s-0.379-0.367-0.521-0.818l-1.36-4.301l-0.937,0.611
			c0.466,1.594,0.648,2.924,0.548,3.993c-0.1,1.067-0.474,2.193-1.121,3.376l-0.456-0.229c0.619-1.111,0.975-2.187,1.065-3.225
			c0.092-1.041-0.067-2.25-0.478-3.628l-0.974,0.637l-1.663-5.263l1.173-0.767c0.129-0.729,0.189-1.358,0.182-1.892l0.521-0.078
			c-0.036,0.543-0.105,1.093-0.207,1.646l3.407-2.227l1.663,5.263l-2.281,1.491l1.406,4.447c0.042,0.135,0.116,0.236,0.225,0.303
			c0.107,0.066,0.234,0.057,0.38-0.029c0.146-0.088,0.417-0.26,0.811-0.518c0.413-0.27,0.671-0.461,0.774-0.572
			c0.103-0.113,0.152-0.357,0.147-0.734c-0.005-0.379-0.02-0.607-0.044-0.687L115.924,317.563z M110.318,312.793l-0.567-1.795
			l-1.862,1.217l0.567,1.795L110.318,312.793z M111.08,315.203l-0.595-1.881l-1.862,1.217l0.595,1.881L111.08,315.203z
			 M112.649,311.271l-0.568-1.797l-1.889,1.234l0.567,1.797L112.649,311.271z M113.41,313.68l-0.594-1.879l-1.89,1.234l0.595,1.879
			L113.41,313.68z M115.461,316.782l-0.287,0.507l-0.308-0.379c-0.607,0.738-1.121,1.338-1.543,1.799l-0.271-0.303
			c0.103-1.359,0.135-2.396,0.095-3.111l0.454-0.084c0.004,0.482-0.019,1.34-0.07,2.572c0.22-0.223,0.565-0.615,1.035-1.182
			c-0.175-0.17-0.37-0.345-0.588-0.523l0.239-0.499C114.766,316.039,115.181,316.439,115.461,316.782z"/>
		<path id="XMLID_454_" style="fill:#FFFFFF;" d="M128.735,298.746l-0.203,0.652c-0.751-0.404-1.538-0.716-2.361-0.936l0.188-0.6
			C127.238,298.084,128.03,298.377,128.735,298.746z M129.569,302.434l-0.148,0.701c-0.768-0.305-1.624-0.515-2.569-0.631
			l0.151-0.611C127.939,301.98,128.794,302.161,129.569,302.434z M135.792,298.35l-5.227,3.416l-1.617-5.117l5.227-3.414
			L135.792,298.35z M130.162,304.473c0.08,2.267,0.019,4.292-0.184,6.076l-0.495-0.148c0.19-1.752,0.251-3.773,0.182-6.064
			L130.162,304.473z M135.184,298.109l-1.283-4.059l-4.344,2.838l1.283,4.061L135.184,298.109z M139.01,304.193l-7.606,4.971
			l-0.165-0.523l0.957-0.625l-1.465-4.637l5.932-3.877l1.466,4.637l0.716-0.467L139.01,304.193z M134.329,297.418l-0.25,0.607
			c-0.555-0.348-1.169-0.549-1.84-0.604c-0.148,0.871-0.403,1.703-0.763,2.497l-0.424-0.211c0.599-1.118,0.871-2.374,0.816-3.767
			l0.435-0.123c0.045,0.316,0.049,0.653,0.014,1.006C133.097,296.926,133.768,297.123,134.329,297.418z M134.027,306.818
			l-1.298-4.105l-1.389,0.907l1.298,4.106L134.027,306.818z M135.857,305.623l-1.298-4.105l-1.389,0.906l1.298,4.107
			L135.857,305.623z M137.687,304.428l-1.298-4.106L135,301.229l1.298,4.106L137.687,304.428z"/>
		<path id="XMLID_465_" style="fill:#FFFFFF;" d="M150.829,284.008l-8.015,5.236l1.458,4.615c0.455,1.438,0.727,2.635,0.815,3.586
			c0.089,0.955,0.078,2.002-0.032,3.143l-0.507-0.164c0.126-1.285,0.122-2.387-0.011-3.302c-0.134-0.915-0.371-1.911-0.711-2.987
			l-1.621-5.131l4.145-2.707c-0.172-0.186-0.438-0.426-0.8-0.723l0.276-0.541c0.545,0.479,0.881,0.793,1.008,0.947l3.827-2.502
			L150.829,284.008z M151.548,286.283l-1.966,1.285l0.73,2.311l-3.827,2.5l-0.73-2.311l-1.738,1.136l-0.167-0.529l1.738-1.136
			l-0.396-1.252l0.441-0.289l0.396,1.252l2.944-1.924l-0.396-1.252l0.441-0.287l0.396,1.252l1.966-1.285L151.548,286.283z
			 M154.227,293.982l-0.113,0.688c-1.666,0.686-3.056,1.044-4.167,1.075c-0.953,1.452-2.182,2.798-3.686,4.038l-0.407-0.404
			c1.47-1.158,2.627-2.354,3.471-3.588c-1.138-0.135-2.117-0.609-2.938-1.424l-0.474,0.311l-0.165-0.521l5.512-3.602l0.189,0.598
			c-0.084,1.27-0.469,2.594-1.154,3.971C151.33,295.053,152.64,294.672,154.227,293.982z M149.705,289.639l-0.563-1.783
			l-2.944,1.924l0.563,1.783L149.705,289.639z M150.925,291.402l-4.032,2.635c0.916,0.803,1.857,1.186,2.826,1.152
			C150.397,293.979,150.799,292.717,150.925,291.402z"/>
		<path id="XMLID_471_" style="fill:#FFFFFF;" d="M162.305,278.827l-0.279,0.595c-0.122-0.111-0.357-0.295-0.708-0.554
			c-1.003,0.936-2.32,2.016-3.952,3.237l-0.288-0.357c0.473-1.148,0.729-2.655,0.769-4.516l0.482-0.073
			c-0.063,1.537-0.239,2.856-0.528,3.958c1.336-1.007,2.358-1.853,3.069-2.535c-0.309-0.224-0.774-0.477-1.396-0.759l0.224-0.591
			C160.752,277.723,161.622,278.255,162.305,278.827z M164.042,287.24c0.17,0.539,0.027,0.959-0.429,1.256l-0.979,0.641
			l-0.358-0.414l0.609-0.373c0.399-0.26,0.625-0.438,0.679-0.535s0.06-0.212,0.018-0.348l-0.788-2.491
			c-0.772,1.171-1.537,2.245-2.294,3.22l-0.333-0.211c0.164,0.783,0.231,1.666,0.2,2.648l-0.492-0.038
			c0.064-1.179-0.116-2.44-0.541-3.786l-1.182-3.738l3.79-2.477L164.042,287.24z M162.609,284.391l-0.95-3.008l-2.907,1.898
			l0.384,1.213c0.908-0.354,1.816-0.607,2.72-0.762l-0.105,0.631c-0.911,0.159-1.729,0.375-2.452,0.645l0.478,1.512
			c0.144,0.455,0.264,0.891,0.361,1.309C160.889,286.91,161.713,285.764,162.609,284.391z M167.179,277.625l-3.176,2.075
			c-0.441,0.289-0.749,0.156-0.924-0.396l-1.419-4.49l0.441-0.288l0.585,1.852l3.208-2.096l0.167,0.529l-3.208,2.096l0.616,1.949
			c0.091,0.287,0.253,0.354,0.486,0.202l3.046-1.991L167.179,277.625z M168.731,282.246c0.202,0.791,0.289,1.428,0.259,1.91
			c-0.029,0.48-0.249,0.855-0.657,1.123l-2.051,1.34c-0.5,0.326-0.848,0.176-1.046-0.451l-1.703-5.389l0.441-0.289l0.68,2.152
			l3.229-2.111l0.168,0.531l-3.23,2.109l0.801,2.533c0.08,0.252,0.191,0.371,0.334,0.357c0.143-0.012,0.504-0.207,1.082-0.586
			c0.785-0.512,1.229-0.855,1.331-1.027c0.101-0.173,0.133-0.441,0.096-0.806c-0.038-0.366-0.122-0.79-0.253-1.274L168.731,282.246z
			"/>
		<path id="XMLID_477_" style="fill:#FFFFFF;" d="M180.886,266.494l-7.478,4.885l-1.003-3.174l7.478-4.885L180.886,266.494z
			 M182.265,267.282l-9.351,6.109l-0.151-0.48l9.35-6.109L182.265,267.282z M179.857,264.966l-0.284-0.898L173,268.361l0.284,0.898
			L179.857,264.966z M180.291,266.337l-0.293-0.926l-6.572,4.294l0.293,0.926L180.291,266.337z M184.61,274.332l-9.549,6.239
			l-0.148-0.466l4.555-2.976l-0.33-1.044l-3.892,2.543l-0.143-0.453l3.892-2.543l-0.313-0.987l-3.516,2.297l-1.022-3.238
			l7.477-4.885l1.023,3.238l-3.521,2.3l0.312,0.987l3.871-2.529l0.143,0.453l-3.87,2.529l0.33,1.044l4.554-2.976L184.61,274.332z
			 M178.097,272.792l-0.293-0.926l-3.063,2.001l0.293,0.926L178.097,272.792z M178.54,274.192l-0.305-0.961l-3.063,2.001
			l0.304,0.961L178.54,274.192z M181.606,270.5l-0.293-0.926l-3.068,2.004l0.293,0.926L181.606,270.5z M182.048,271.899
			l-0.304-0.961l-3.068,2.004l0.304,0.961L182.048,271.899z"/>
		<path id="XMLID_487_" style="fill:#FFFFFF;" d="M67.994,376.592l-0.22-0.695l3.176-2.076l0.22,0.695L67.994,376.592z"/>
		<path id="XMLID_489_" style="fill:#FFFFFF;" d="M76.92,370.76l-0.22-0.695l3.176-2.076l0.22,0.695L76.92,370.76z"/>
		<path id="XMLID_491_" style="fill:#FFFFFF;" d="M85.846,364.928l-0.22-0.695l3.177-2.076l0.22,0.695L85.846,364.928z"/>
		<path id="XMLID_493_" style="fill:#FFFFFF;" d="M94.772,359.096l-0.221-0.695l3.177-2.076l0.22,0.695L94.772,359.096z"/>
		<path id="XMLID_495_" style="fill:#FFFFFF;" d="M103.698,353.264l-0.22-0.695l3.176-2.076l0.22,0.695L103.698,353.264z"/>
		<path id="XMLID_497_" style="fill:#FFFFFF;" d="M112.624,347.432l-0.22-0.695l3.176-2.076l0.22,0.695L112.624,347.432z"/>
		<path id="XMLID_499_" style="fill:#FFFFFF;" d="M121.549,341.6l-0.22-0.695l3.176-2.075l0.22,0.695L121.549,341.6z"/>
		<path id="XMLID_501_" style="fill:#FFFFFF;" d="M130.475,335.768l-0.22-0.695l3.177-2.076l0.22,0.695L130.475,335.768z"/>
		<path id="XMLID_503_" style="fill:#FFFFFF;" d="M139.401,329.936l-0.22-0.695l3.177-2.075l0.22,0.695L139.401,329.936z"/>
		<path id="XMLID_505_" style="fill:#FFFFFF;" d="M148.328,324.104l-0.22-0.695l3.176-2.075l0.221,0.695L148.328,324.104z"/>
		<path id="XMLID_507_" style="fill:#FFFFFF;" d="M158.667,324.512l-0.549,0.358l0.053-15.202l0.575-0.377L158.667,324.512z"/>
		<path id="XMLID_532_" style="fill:#FFFFFF;" d="M167.227,318.918l-0.549,0.359l0.053-15.202l0.576-0.376L167.227,318.918z"/>
	</g>
	<g id="XMLID_5_">
		<path id="XMLID_36_" style="fill:#FFFFFF;" d="M767.646,177.303l0.108-0.094l6.808,0.706l-0.514,0.444l-5.51-0.569l-0.02,0.017
			l1.715,3.85l-0.528,0.457L767.646,177.303z"/>
		<path id="XMLID_38_" style="fill:#FFFFFF;" d="M778.497,189.208l0.987-0.853l-0.02-0.013c-0.538,0.191-1.075,0.257-1.615,0.196
			c-0.538-0.061-1.009-0.225-1.411-0.491c-0.664-0.44-0.948-1.011-0.854-1.712c0.095-0.701,0.564-1.417,1.41-2.148
			c0.572-0.495,1.187-0.87,1.843-1.125c0.657-0.256,1.295-0.367,1.914-0.333c0.617,0.033,1.161,0.204,1.626,0.513
			c0.792,0.525,1.021,1.188,0.689,1.987l0.02,0.013l3.489-3.016l0.497,0.33l-8.079,6.983L778.497,189.208z M781.813,186.342
			c0.53-0.458,0.803-0.94,0.823-1.444c0.02-0.505-0.223-0.924-0.728-1.259c-0.564-0.374-1.247-0.485-2.047-0.332
			c-0.801,0.153-1.571,0.549-2.312,1.189c-0.721,0.623-1.135,1.22-1.242,1.792c-0.109,0.571,0.104,1.034,0.638,1.387
			c0.577,0.382,1.22,0.527,1.926,0.433c0.707-0.094,1.354-0.394,1.939-0.9L781.813,186.342z"/>
		<path id="XMLID_50_" style="fill:#FFFFFF;" d="M784.417,193.132l5.458-4.718l0.498,0.33l-5.458,4.718L784.417,193.132z
			 M791.496,187.386c-0.105-0.069-0.159-0.166-0.161-0.288c-0.003-0.122,0.059-0.237,0.184-0.345
			c0.112-0.097,0.246-0.152,0.403-0.166c0.157-0.014,0.291,0.015,0.398,0.087c0.109,0.072,0.167,0.167,0.176,0.283
			c0.01,0.117-0.047,0.228-0.169,0.333c-0.118,0.103-0.258,0.163-0.42,0.181C791.744,187.488,791.609,187.461,791.496,187.386z"/>
		<path id="XMLID_57_" style="fill:#FFFFFF;" d="M792.089,198.218l-0.455-0.301l3.419-6.071l0.545,0.362l-2.758,4.775
			c-0.14,0.238-0.279,0.442-0.419,0.611l0.019,0.012c0.27-0.159,0.51-0.286,0.722-0.381l5.952-2.688l0.541,0.359L792.089,198.218z"
			/>
		<path id="XMLID_59_" style="fill:#FFFFFF;" d="M809.188,209.184c-0.64-0.042-1.232-0.244-1.777-0.605
			c-0.477-0.315-0.783-0.694-0.921-1.138c-0.14-0.444-0.099-0.914,0.123-1.41s0.604-0.979,1.147-1.448
			c0.565-0.489,1.189-0.855,1.87-1.097c0.68-0.242,1.348-0.336,2.001-0.282c0.654,0.054,1.236,0.251,1.748,0.59
			c0.414,0.274,0.723,0.61,0.926,1.006l-0.567,0.49c-0.144-0.462-0.44-0.842-0.891-1.141c-0.398-0.264-0.861-0.413-1.387-0.445
			c-0.528-0.033-1.066,0.056-1.617,0.267c-0.55,0.21-1.063,0.52-1.537,0.929c-0.704,0.608-1.092,1.213-1.168,1.814
			c-0.074,0.601,0.179,1.094,0.76,1.479c0.529,0.352,1.136,0.53,1.818,0.534L809.188,209.184z"/>
		<path id="XMLID_61_" style="fill:#FFFFFF;" d="M813.947,212.708l8.079-6.983l0.498,0.33l-8.079,6.983L813.947,212.708z"/>
		<path id="XMLID_63_" style="fill:#FFFFFF;" d="M823.021,218.725l1.081-0.934l-0.019-0.013c-0.557,0.208-1.104,0.3-1.638,0.275
			c-0.535-0.025-0.994-0.166-1.377-0.419c-0.494-0.328-0.749-0.717-0.761-1.164c-0.012-0.448,0.207-0.867,0.658-1.256
			c0.967-0.836,2.155-0.93,3.565-0.282l1.88,0.862c1.158-1.001,1.313-1.782,0.464-2.346c-0.584-0.387-1.393-0.557-2.426-0.507
			l0.607-0.525c0.401-0.005,0.813,0.053,1.233,0.174c0.421,0.121,0.787,0.284,1.097,0.489c0.556,0.368,0.808,0.801,0.758,1.297
			c-0.05,0.498-0.409,1.034-1.077,1.611l-3.549,3.067L823.021,218.725z M821.519,215.534c-0.333,0.287-0.493,0.589-0.481,0.906
			c0.011,0.317,0.196,0.594,0.554,0.831c0.328,0.218,0.716,0.34,1.161,0.367c0.446,0.027,0.904-0.046,1.375-0.219
			c0.471-0.173,0.9-0.427,1.288-0.763l0.533-0.46l-1.657-0.775c-0.625-0.294-1.149-0.43-1.572-0.408
			C822.297,215.033,821.896,215.207,821.519,215.534z"/>
		<path id="XMLID_66_" style="fill:#FFFFFF;" d="M829.408,221.661c0.021,0.251,0.111,0.502,0.273,0.755s0.338,0.442,0.53,0.57
			c0.823,0.546,1.579,0.522,2.267-0.072c0.23-0.199,0.347-0.425,0.349-0.677c0.001-0.253-0.121-0.614-0.368-1.084
			c-0.273-0.514-0.396-0.946-0.369-1.296c0.028-0.351,0.223-0.683,0.585-0.996c0.438-0.378,0.961-0.577,1.571-0.598
			c0.61-0.021,1.16,0.133,1.652,0.458c0.446,0.297,0.741,0.637,0.883,1.022l-0.572,0.495c-0.134-0.49-0.411-0.875-0.831-1.154
			c-0.339-0.225-0.708-0.33-1.108-0.316c-0.399,0.014-0.748,0.151-1.048,0.409c-0.204,0.176-0.333,0.337-0.385,0.484
			c-0.054,0.145-0.058,0.313-0.011,0.506c0.046,0.191,0.147,0.442,0.307,0.753c0.213,0.407,0.348,0.744,0.404,1.01
			c0.055,0.266,0.042,0.498-0.04,0.698c-0.081,0.2-0.245,0.406-0.492,0.619c-0.45,0.39-0.978,0.596-1.581,0.618
			s-1.175-0.146-1.714-0.503c-0.512-0.339-0.813-0.73-0.909-1.175L829.408,221.661z"/>
		<path id="XMLID_68_" style="fill:#FFFFFF;" d="M837.268,226.871c0.021,0.251,0.111,0.502,0.272,0.755
			c0.162,0.253,0.339,0.442,0.53,0.57c0.824,0.546,1.58,0.522,2.268-0.073c0.23-0.199,0.346-0.424,0.348-0.678
			c0.002-0.252-0.121-0.613-0.367-1.083c-0.274-0.514-0.397-0.946-0.37-1.297c0.028-0.351,0.224-0.683,0.586-0.995
			c0.438-0.378,0.961-0.578,1.57-0.599c0.61-0.02,1.161,0.133,1.652,0.459c0.447,0.296,0.741,0.637,0.883,1.022l-0.573,0.495
			c-0.133-0.491-0.409-0.875-0.83-1.154c-0.339-0.225-0.707-0.33-1.108-0.316c-0.399,0.014-0.749,0.151-1.048,0.409
			c-0.204,0.176-0.333,0.337-0.385,0.483c-0.053,0.146-0.058,0.314-0.011,0.506c0.046,0.192,0.148,0.443,0.308,0.754
			c0.213,0.407,0.347,0.744,0.402,1.009c0.057,0.266,0.043,0.499-0.038,0.698c-0.082,0.199-0.245,0.406-0.492,0.619
			c-0.45,0.39-0.979,0.596-1.582,0.618s-1.175-0.146-1.714-0.503c-0.511-0.339-0.813-0.73-0.908-1.175L837.268,226.871z"/>
		<path id="XMLID_70_" style="fill:#FFFFFF;" d="M846.728,231.508l0.459-0.396l4.702,3.117l-0.459,0.396L846.728,231.508z
			 M848.806,229.712l0.459-0.396l4.702,3.117l-0.459,0.396L848.806,229.712z"/>
		<path id="XMLID_73_" style="fill:#FFFFFF;" d="M860.949,235.848l-0.459-0.305l2.394-2.069l0.459,0.305L860.949,235.848z
			 M862.257,236.715l-0.46-0.305l2.394-2.069l0.46,0.305L862.257,236.715z"/>
		<path id="XMLID_76_" style="fill:#FFFFFF;" d="M863.939,244.389l-0.957,0.827l-0.498-0.331l8.079-6.983l0.498,0.331l-3.735,3.229
			l0.02,0.013c0.596-0.218,1.177-0.304,1.744-0.257c0.566,0.046,1.059,0.209,1.478,0.486c0.666,0.441,0.949,0.997,0.849,1.667
			c-0.1,0.67-0.557,1.355-1.369,2.058c-0.596,0.515-1.225,0.909-1.889,1.182c-0.664,0.273-1.304,0.401-1.921,0.381
			c-0.617-0.02-1.157-0.183-1.62-0.49c-0.789-0.523-1.009-1.223-0.658-2.101L863.939,244.389z M865.292,243.22
			c-0.361,0.313-0.617,0.653-0.77,1.02c-0.15,0.368-0.175,0.717-0.07,1.049c0.103,0.333,0.325,0.611,0.667,0.838
			c0.543,0.36,1.217,0.445,2.025,0.257c0.808-0.188,1.6-0.618,2.376-1.289c0.675-0.583,1.056-1.149,1.148-1.699
			c0.091-0.55-0.119-0.995-0.633-1.336c-0.565-0.374-1.224-0.511-1.977-0.409c-0.752,0.103-1.444,0.426-2.076,0.972L865.292,243.22z
			"/>
		<path id="XMLID_79_" style="fill:#FFFFFF;" d="M876.816,253.768c-1.017,0.878-1.981,1.382-2.895,1.511
			c-0.913,0.129-1.833-0.114-2.758-0.728c-0.518-0.342-0.906-0.812-1.17-1.408l0.528-0.457c0.245,0.655,0.617,1.148,1.115,1.478
			c1.448,0.96,2.966,0.757,4.548-0.61l0.706-0.61l-0.02-0.013c-1.165,0.358-2.17,0.257-3.016-0.304
			c-0.438-0.29-0.714-0.643-0.827-1.06c-0.113-0.417-0.052-0.864,0.183-1.345c0.233-0.48,0.631-0.962,1.19-1.445
			c0.575-0.498,1.191-0.875,1.846-1.132c0.655-0.257,1.292-0.37,1.91-0.339c0.62,0.031,1.165,0.203,1.638,0.516
			c0.772,0.513,1.005,1.172,0.698,1.978l0.02,0.013l0.859-0.742l0.496,0.33L876.816,253.768z M879.271,250.888
			c0.322-0.279,0.548-0.584,0.677-0.915c0.13-0.332,0.142-0.652,0.037-0.96c-0.106-0.309-0.318-0.569-0.638-0.78
			c-0.578-0.384-1.269-0.498-2.07-0.343c-0.801,0.154-1.572,0.551-2.313,1.191c-0.717,0.62-1.129,1.216-1.235,1.789
			c-0.107,0.572,0.115,1.042,0.668,1.408c0.549,0.364,1.18,0.499,1.894,0.404s1.352-0.386,1.914-0.872L879.271,250.888z"/>
		<path id="XMLID_82_" style="fill:#FFFFFF;" d="M883.289,257.215l-0.958,0.827l-0.498-0.33l8.079-6.983l0.498,0.33l-3.736,3.229
			l0.02,0.014c0.596-0.218,1.178-0.304,1.745-0.257c0.566,0.046,1.059,0.208,1.478,0.485c0.666,0.442,0.949,0.998,0.85,1.667
			c-0.101,0.669-0.558,1.355-1.37,2.058c-0.596,0.515-1.225,0.909-1.889,1.182c-0.664,0.274-1.305,0.401-1.922,0.381
			c-0.616-0.019-1.156-0.183-1.619-0.49c-0.789-0.523-1.009-1.224-0.657-2.101L883.289,257.215z M884.641,256.046
			c-0.361,0.313-0.618,0.653-0.77,1.02c-0.15,0.368-0.175,0.717-0.071,1.05c0.104,0.332,0.326,0.611,0.668,0.838
			c0.543,0.36,1.217,0.445,2.025,0.257c0.808-0.188,1.6-0.618,2.376-1.289c0.674-0.583,1.057-1.149,1.148-1.699
			c0.091-0.55-0.119-0.995-0.634-1.335c-0.564-0.375-1.224-0.511-1.976-0.409c-0.753,0.102-1.444,0.425-2.076,0.971L884.641,256.046
			z"/>
		<path id="XMLID_85_" style="fill:#FFFFFF;" d="M894.999,266.44l0.987-0.853l-0.019-0.013c-1.112,0.404-2.053,0.35-2.825-0.162
			c-1.252-0.829-1.068-1.943,0.55-3.343l3.163-2.734l0.504,0.333l-3.04,2.628c-0.727,0.628-1.14,1.164-1.237,1.606
			c-0.098,0.443,0.105,0.832,0.61,1.166c0.485,0.322,1.064,0.424,1.737,0.304c0.674-0.119,1.312-0.438,1.914-0.958l3.113-2.692
			l0.498,0.33l-5.458,4.718L894.999,266.44z"/>
		<path id="XMLID_87_" style="fill:#FFFFFF;" d="M902.373,269.867l-0.957,0.827l-0.498-0.33l8.079-6.983l0.498,0.33l-3.735,3.229
			l0.02,0.013c0.596-0.218,1.177-0.304,1.744-0.257c0.566,0.046,1.059,0.208,1.477,0.485c0.667,0.442,0.95,0.998,0.85,1.667
			c-0.1,0.67-0.557,1.355-1.369,2.058c-0.596,0.515-1.225,0.91-1.889,1.183c-0.664,0.273-1.305,0.401-1.922,0.381
			c-0.617-0.02-1.156-0.183-1.619-0.49c-0.789-0.522-1.009-1.224-0.658-2.101L902.373,269.867z M903.726,268.698
			c-0.361,0.313-0.618,0.653-0.77,1.02c-0.15,0.367-0.175,0.717-0.071,1.049c0.104,0.332,0.326,0.611,0.668,0.838
			c0.543,0.36,1.217,0.446,2.025,0.257c0.808-0.188,1.599-0.618,2.375-1.289c0.674-0.583,1.057-1.149,1.149-1.699
			c0.091-0.55-0.119-0.995-0.634-1.336c-0.564-0.374-1.225-0.511-1.976-0.409c-0.753,0.102-1.444,0.426-2.076,0.972L903.726,268.698
			z"/>
		<path id="XMLID_90_" style="fill:#FFFFFF;" d="M912.047,276.28l-0.957,0.827l-0.498-0.33l8.079-6.983l0.498,0.33l-3.735,3.229
			l0.02,0.013c0.596-0.218,1.177-0.304,1.744-0.257c0.566,0.046,1.059,0.208,1.478,0.485c0.666,0.442,0.949,0.998,0.849,1.667
			c-0.1,0.67-0.557,1.355-1.369,2.058c-0.596,0.515-1.225,0.91-1.889,1.183c-0.664,0.273-1.305,0.401-1.922,0.381
			c-0.617-0.02-1.156-0.183-1.619-0.49c-0.789-0.523-1.009-1.224-0.658-2.101L912.047,276.28z M913.399,275.111
			c-0.361,0.313-0.618,0.653-0.77,1.02c-0.15,0.367-0.175,0.717-0.071,1.049c0.104,0.332,0.326,0.611,0.668,0.838
			c0.543,0.36,1.217,0.446,2.025,0.257c0.808-0.188,1.599-0.618,2.375-1.29c0.674-0.583,1.057-1.149,1.149-1.699
			c0.091-0.55-0.119-0.995-0.634-1.336c-0.564-0.374-1.225-0.511-1.976-0.409c-0.753,0.102-1.444,0.426-2.076,0.972L913.399,275.111
			z"/>
		<path id="XMLID_93_" style="fill:#FFFFFF;" d="M920.267,283.19l8.079-6.983l0.498,0.33l-8.079,6.983L920.267,283.19z"/>
		<path id="XMLID_95_" style="fill:#FFFFFF;" d="M748.44,193.421c-0.74,0.64-1.153,1.25-1.239,1.832
			c-0.086,0.581,0.166,1.066,0.753,1.456c0.598,0.396,1.399,0.586,2.409,0.572l-0.538,0.465c-0.947-0.02-1.759-0.254-2.435-0.703
			c-0.709-0.47-1.008-1.066-0.896-1.789s0.607-1.465,1.489-2.227c0.517-0.447,1.095-0.793,1.737-1.038
			c0.642-0.246,1.268-0.355,1.879-0.329c0.611,0.025,1.145,0.189,1.602,0.492c0.645,0.427,0.912,0.962,0.807,1.606
			c-0.105,0.643-0.58,1.329-1.422,2.057l-0.232,0.2L748.44,193.421z M752.305,195.274c0.603-0.551,0.939-1.065,1.013-1.544
			c0.072-0.48-0.128-0.876-0.6-1.189c-0.498-0.331-1.08-0.452-1.747-0.366c-0.666,0.086-1.347,0.373-2.043,0.862L752.305,195.274z"
			/>
		<path id="XMLID_98_" style="fill:#FFFFFF;" d="M755.272,200.769c0.021,0.251,0.112,0.501,0.273,0.755
			c0.162,0.253,0.339,0.442,0.53,0.57c0.824,0.546,1.58,0.522,2.268-0.073c0.23-0.199,0.346-0.425,0.348-0.678
			c0.002-0.252-0.121-0.613-0.367-1.083c-0.274-0.514-0.397-0.945-0.37-1.296c0.028-0.351,0.224-0.683,0.585-0.995
			c0.438-0.378,0.962-0.578,1.571-0.599c0.61-0.02,1.161,0.133,1.652,0.459c0.447,0.296,0.741,0.637,0.883,1.022l-0.573,0.495
			c-0.133-0.49-0.409-0.875-0.83-1.154c-0.339-0.225-0.708-0.329-1.107-0.315c-0.4,0.014-0.75,0.15-1.049,0.409
			c-0.204,0.176-0.333,0.337-0.385,0.483c-0.054,0.146-0.057,0.314-0.011,0.506c0.046,0.192,0.148,0.443,0.308,0.754
			c0.213,0.407,0.346,0.744,0.402,1.01c0.057,0.266,0.043,0.499-0.038,0.698c-0.081,0.2-0.245,0.407-0.492,0.62
			c-0.451,0.39-0.979,0.596-1.582,0.617c-0.604,0.022-1.175-0.146-1.714-0.503c-0.511-0.339-0.813-0.73-0.908-1.175L755.272,200.769
			z"/>
		<path id="XMLID_100_" style="fill:#FFFFFF;" d="M772.943,213.78l0.987-0.853l-0.02-0.013c-0.538,0.191-1.075,0.257-1.614,0.196
			c-0.539-0.061-1.009-0.224-1.411-0.491c-0.664-0.44-0.949-1.01-0.854-1.712c0.095-0.701,0.565-1.417,1.411-2.147
			c0.572-0.495,1.187-0.87,1.843-1.126c0.656-0.255,1.294-0.367,1.913-0.333c0.618,0.034,1.161,0.205,1.627,0.513
			c0.792,0.525,1.021,1.187,0.688,1.987l0.02,0.013l3.489-3.016l0.498,0.33l-8.079,6.983L772.943,213.78z M776.26,210.913
			c0.529-0.458,0.804-0.939,0.823-1.444c0.021-0.504-0.222-0.924-0.727-1.259c-0.564-0.374-1.247-0.485-2.048-0.332
			c-0.8,0.153-1.57,0.549-2.311,1.188c-0.721,0.623-1.135,1.22-1.242,1.792c-0.109,0.571,0.104,1.034,0.637,1.387
			c0.577,0.382,1.219,0.527,1.927,0.433c0.707-0.094,1.353-0.394,1.938-0.9L776.26,210.913z"/>
		<path id="XMLID_103_" style="fill:#FFFFFF;" d="M778.863,217.704l5.458-4.718l0.498,0.33l-5.458,4.718L778.863,217.704z
			 M785.942,211.958c-0.104-0.069-0.158-0.166-0.16-0.288c-0.004-0.122,0.059-0.237,0.184-0.345
			c0.112-0.097,0.245-0.152,0.403-0.167c0.157-0.014,0.289,0.015,0.397,0.087c0.109,0.072,0.168,0.166,0.177,0.282
			c0.009,0.117-0.047,0.228-0.169,0.333c-0.118,0.102-0.259,0.162-0.421,0.181C786.191,212.06,786.055,212.032,785.942,211.958z"/>
		<path id="XMLID_106_" style="fill:#FFFFFF;" d="M786.536,222.791l-0.455-0.302l3.417-6.071l0.546,0.362l-2.757,4.775
			c-0.141,0.238-0.28,0.442-0.419,0.611l0.019,0.013c0.269-0.158,0.509-0.285,0.722-0.381l5.951-2.688l0.541,0.359L786.536,222.791z
			"/>
		<path id="XMLID_108_" style="fill:#FFFFFF;" d="M793.322,227.289l5.458-4.718l0.498,0.33l-5.458,4.718L793.322,227.289z
			 M800.401,221.543c-0.105-0.069-0.159-0.166-0.161-0.288c-0.004-0.123,0.059-0.237,0.184-0.346
			c0.111-0.097,0.246-0.152,0.402-0.166c0.158-0.014,0.291,0.015,0.399,0.086c0.108,0.072,0.167,0.167,0.176,0.283
			c0.01,0.116-0.048,0.228-0.169,0.333c-0.118,0.102-0.259,0.162-0.42,0.18C800.649,221.645,800.514,221.617,800.401,221.543z"/>
		<path id="XMLID_111_" style="fill:#FFFFFF;" d="M799.816,230.299c0.021,0.25,0.112,0.501,0.274,0.754
			c0.161,0.253,0.338,0.442,0.53,0.57c0.824,0.546,1.579,0.522,2.267-0.072c0.23-0.199,0.347-0.425,0.349-0.678
			c0.001-0.252-0.121-0.614-0.368-1.084c-0.273-0.513-0.396-0.945-0.369-1.296c0.028-0.352,0.223-0.683,0.585-0.996
			c0.438-0.378,0.961-0.577,1.571-0.598c0.61-0.02,1.161,0.133,1.652,0.458c0.447,0.296,0.741,0.637,0.883,1.022l-0.573,0.495
			c-0.133-0.49-0.409-0.875-0.83-1.154c-0.339-0.225-0.708-0.33-1.108-0.316c-0.399,0.014-0.749,0.15-1.048,0.409
			c-0.204,0.176-0.333,0.337-0.385,0.483c-0.055,0.146-0.058,0.314-0.011,0.506c0.046,0.191,0.148,0.442,0.307,0.754
			c0.213,0.407,0.347,0.744,0.403,1.009c0.056,0.266,0.043,0.499-0.039,0.698c-0.081,0.2-0.244,0.406-0.491,0.619
			c-0.451,0.39-0.979,0.596-1.582,0.618s-1.175-0.146-1.714-0.503c-0.512-0.339-0.813-0.73-0.909-1.175L799.816,230.299z"/>
		<path id="XMLID_113_" style="fill:#FFFFFF;" d="M807.1,236.422l5.458-4.718l0.498,0.331l-5.458,4.718L807.1,236.422z
			 M814.179,230.677c-0.104-0.07-0.158-0.166-0.161-0.288c-0.003-0.123,0.059-0.237,0.184-0.346
			c0.111-0.097,0.246-0.152,0.404-0.166c0.157-0.014,0.289,0.016,0.397,0.087c0.109,0.072,0.167,0.167,0.177,0.283
			c0.009,0.116-0.047,0.227-0.169,0.332c-0.118,0.103-0.259,0.163-0.421,0.181C814.428,230.779,814.291,230.751,814.179,230.677z"/>
		<path id="XMLID_120_" style="fill:#FFFFFF;" d="M815.018,241.875c-0.498-0.331-0.82-0.725-0.967-1.183
			c-0.146-0.458-0.108-0.941,0.113-1.448c0.222-0.506,0.611-0.999,1.167-1.479c0.586-0.507,1.203-0.88,1.851-1.121
			c0.648-0.241,1.286-0.333,1.91-0.275c0.624,0.057,1.195,0.257,1.713,0.6c0.757,0.501,1.098,1.118,1.023,1.85
			c-0.075,0.732-0.557,1.484-1.448,2.255c-0.56,0.483-1.16,0.845-1.802,1.085c-0.643,0.24-1.271,0.336-1.886,0.288
			C816.076,242.397,815.519,242.207,815.018,241.875z M820.316,237.353c-0.632-0.419-1.351-0.557-2.155-0.415
			c-0.805,0.142-1.579,0.535-2.323,1.177c-0.714,0.617-1.103,1.23-1.17,1.839c-0.067,0.608,0.209,1.119,0.828,1.529
			c0.632,0.418,1.331,0.561,2.096,0.425c0.768-0.136,1.528-0.53,2.285-1.184c0.776-0.671,1.201-1.296,1.273-1.877
			C821.224,238.269,820.946,237.77,820.316,237.353z"/>
		<path id="XMLID_125_" style="fill:#FFFFFF;" d="M826.304,249.154l3.173-2.743c1.304-1.126,1.499-1.992,0.586-2.597
			c-0.501-0.333-1.104-0.444-1.808-0.335s-1.344,0.412-1.92,0.91l-3.134,2.708l-0.498-0.33l5.458-4.718l0.498,0.33l-0.986,0.853
			l0.02,0.013c1.136-0.388,2.11-0.312,2.926,0.229c0.571,0.378,0.812,0.838,0.722,1.379c-0.091,0.541-0.499,1.125-1.227,1.754
			l-3.321,2.871L826.304,249.154z"/>
		<path id="XMLID_127_" style="fill:#FFFFFF;" d="M829.83,253.685l0.489-0.422l4.396,2.914l-0.489,0.422L829.83,253.685z"/>
		<path id="XMLID_129_" style="fill:#FFFFFF;" d="M840.236,258.39l8.079-6.983l0.498,0.331l-8.079,6.983L840.236,258.39z"/>
		<path id="XMLID_131_" style="fill:#FFFFFF;" d="M846.156,262.314l5.458-4.718l0.498,0.331l-5.458,4.718L846.156,262.314z
			 M853.235,256.568c-0.104-0.07-0.158-0.166-0.16-0.288c-0.004-0.123,0.058-0.237,0.183-0.346c0.111-0.097,0.246-0.152,0.404-0.166
			c0.157-0.014,0.289,0.015,0.397,0.086c0.109,0.072,0.168,0.167,0.177,0.283c0.009,0.116-0.047,0.228-0.169,0.333
			c-0.118,0.102-0.259,0.162-0.421,0.18C853.484,256.67,853.348,256.643,853.235,256.568z"/>
		<path id="XMLID_134_" style="fill:#FFFFFF;" d="M855.677,268.625l3.173-2.743c1.304-1.126,1.498-1.992,0.586-2.597
			c-0.502-0.333-1.104-0.444-1.809-0.335s-1.344,0.412-1.92,0.91l-3.134,2.708l-0.498-0.33l5.458-4.718l0.498,0.33l-0.986,0.853
			l0.02,0.013c1.137-0.387,2.111-0.312,2.926,0.229c0.571,0.378,0.813,0.838,0.723,1.379c-0.091,0.541-0.499,1.125-1.227,1.754
			l-3.321,2.871L855.677,268.625z"/>
		<path id="XMLID_136_" style="fill:#FFFFFF;" d="M864.315,270.237c-0.74,0.64-1.153,1.25-1.239,1.831
			c-0.086,0.582,0.166,1.067,0.753,1.456c0.597,0.396,1.399,0.586,2.409,0.573l-0.538,0.465c-0.948-0.02-1.759-0.254-2.436-0.703
			c-0.709-0.47-1.007-1.066-0.896-1.789c0.11-0.723,0.606-1.465,1.488-2.228c0.517-0.446,1.096-0.792,1.737-1.038
			c0.643-0.245,1.269-0.354,1.88-0.329c0.611,0.025,1.145,0.189,1.602,0.492c0.645,0.428,0.912,0.962,0.807,1.606
			c-0.106,0.643-0.581,1.329-1.423,2.057l-0.232,0.201L864.315,270.237z M868.179,272.09c0.603-0.551,0.94-1.065,1.014-1.544
			c0.072-0.48-0.128-0.876-0.6-1.189c-0.499-0.33-1.081-0.452-1.747-0.366c-0.667,0.086-1.347,0.373-2.043,0.862L868.179,272.09z"/>
		<path id="XMLID_139_" style="fill:#FFFFFF;" d="M872.026,278.002l-0.957,0.828l-0.498-0.331l8.079-6.983l0.498,0.331l-3.736,3.229
			l0.02,0.013c0.596-0.218,1.177-0.304,1.744-0.256c0.566,0.046,1.06,0.208,1.478,0.485c0.667,0.442,0.95,0.998,0.849,1.667
			c-0.1,0.669-0.557,1.355-1.369,2.058c-0.596,0.515-1.225,0.909-1.889,1.183c-0.663,0.273-1.304,0.4-1.921,0.381
			c-0.617-0.02-1.156-0.183-1.62-0.49c-0.788-0.523-1.008-1.224-0.657-2.102L872.026,278.002z M873.379,276.833
			c-0.361,0.313-0.618,0.653-0.771,1.02c-0.149,0.368-0.174,0.716-0.07,1.049c0.104,0.333,0.325,0.612,0.667,0.838
			c0.543,0.36,1.218,0.445,2.025,0.257s1.6-0.618,2.376-1.289c0.674-0.583,1.057-1.15,1.149-1.699
			c0.091-0.55-0.119-0.995-0.634-1.336c-0.564-0.375-1.225-0.51-1.976-0.409c-0.753,0.102-1.445,0.426-2.076,0.972L873.379,276.833z
			"/>
		<path id="XMLID_142_" style="fill:#FFFFFF;" d="M884.902,287.381c-1.018,0.879-1.981,1.383-2.895,1.512s-1.833-0.115-2.759-0.729
			c-0.517-0.342-0.906-0.813-1.169-1.408l0.527-0.457c0.245,0.655,0.617,1.148,1.115,1.479c1.449,0.961,2.967,0.758,4.549-0.61
			l0.706-0.61l-0.02-0.013c-1.165,0.358-2.171,0.257-3.017-0.304c-0.438-0.29-0.713-0.643-0.826-1.061
			c-0.113-0.416-0.052-0.864,0.182-1.345c0.234-0.481,0.632-0.962,1.191-1.445c0.575-0.498,1.19-0.876,1.846-1.132
			c0.654-0.257,1.292-0.37,1.91-0.339c0.619,0.031,1.165,0.202,1.637,0.516c0.772,0.513,1.006,1.172,0.699,1.978l0.02,0.014
			l0.858-0.742l0.497,0.33L884.902,287.381z M887.355,284.501c0.323-0.278,0.547-0.584,0.678-0.915
			c0.129-0.332,0.142-0.652,0.036-0.96c-0.105-0.309-0.318-0.569-0.638-0.78c-0.577-0.384-1.268-0.498-2.069-0.344
			s-1.573,0.552-2.313,1.191c-0.717,0.621-1.129,1.217-1.234,1.789c-0.108,0.572,0.115,1.041,0.668,1.408
			c0.549,0.363,1.179,0.498,1.894,0.403c0.713-0.095,1.352-0.386,1.914-0.872L887.355,284.501z"/>
		<path id="XMLID_145_" style="fill:#FFFFFF;" d="M900.044,298.037l0.987-0.854l-0.02-0.012c-1.111,0.404-2.053,0.35-2.825-0.162
			c-1.251-0.83-1.068-1.944,0.551-3.344l3.163-2.734l0.503,0.334l-3.04,2.628c-0.727,0.628-1.14,1.163-1.237,1.606
			s0.106,0.832,0.611,1.166c0.484,0.321,1.064,0.423,1.737,0.304c0.674-0.118,1.312-0.438,1.914-0.958l3.113-2.692l0.498,0.33
			l-5.458,4.718L900.044,298.037z"/>
		<path id="XMLID_148_" style="fill:#FFFFFF;" d="M909.004,303.978l0.167-3.997l-0.02-0.014l-2.689,2.325l-0.498-0.331l8.079-6.982
			l0.498,0.33l-5.202,4.496l0.02,0.014l4.975-0.645l0.643,0.426l-5.159,0.62l-0.099,4.231L909.004,303.978z"/>
		<path id="XMLID_150_" style="fill:#FFFFFF;" d="M916.549,304.486l0.493-0.426l2.825,1.873l-0.493,0.426L916.549,304.486z"/>
		<path id="XMLID_153_" style="fill:#FFFFFF;" d="M767.488,237.12c0.021,0.25,0.112,0.502,0.274,0.754
			c0.161,0.253,0.337,0.443,0.53,0.57c0.824,0.546,1.578,0.521,2.267-0.073c0.229-0.199,0.347-0.425,0.349-0.677
			c0.001-0.253-0.121-0.614-0.368-1.084c-0.273-0.513-0.397-0.946-0.369-1.296c0.028-0.351,0.223-0.683,0.584-0.995
			c0.438-0.378,0.962-0.577,1.572-0.599c0.609-0.02,1.161,0.133,1.652,0.459c0.447,0.296,0.741,0.637,0.883,1.022l-0.573,0.495
			c-0.133-0.49-0.409-0.875-0.83-1.154c-0.339-0.225-0.708-0.33-1.108-0.316c-0.399,0.014-0.749,0.15-1.048,0.409
			c-0.204,0.176-0.333,0.337-0.385,0.483c-0.055,0.146-0.058,0.314-0.011,0.506c0.046,0.191,0.148,0.442,0.307,0.754
			c0.212,0.407,0.347,0.744,0.403,1.009c0.056,0.266,0.043,0.499-0.038,0.698c-0.082,0.2-0.245,0.406-0.492,0.619
			c-0.451,0.39-0.979,0.596-1.582,0.618s-1.175-0.146-1.714-0.503c-0.512-0.339-0.813-0.73-0.91-1.175L767.488,237.12z"/>
		<path id="XMLID_155_" style="fill:#FFFFFF;" d="M777.601,241.004c-0.74,0.64-1.153,1.251-1.239,1.832
			c-0.086,0.582,0.166,1.067,0.752,1.456c0.598,0.396,1.4,0.586,2.41,0.572l-0.538,0.465c-0.948-0.02-1.759-0.254-2.436-0.703
			c-0.709-0.47-1.009-1.066-0.896-1.789c0.11-0.723,0.607-1.465,1.489-2.227c0.517-0.446,1.096-0.792,1.737-1.038
			c0.643-0.246,1.269-0.355,1.88-0.33c0.611,0.025,1.145,0.189,1.601,0.492c0.646,0.427,0.913,0.962,0.808,1.606
			c-0.106,0.643-0.581,1.328-1.423,2.056l-0.232,0.201L777.601,241.004z M781.464,242.857c0.603-0.55,0.94-1.065,1.014-1.544
			c0.072-0.48-0.128-0.877-0.601-1.19c-0.498-0.33-1.08-0.452-1.746-0.366c-0.667,0.085-1.347,0.373-2.043,0.861L781.464,242.857z"
			/>
		<path id="XMLID_158_" style="fill:#FFFFFF;" d="M787.537,251.338c-0.639-0.042-1.232-0.244-1.777-0.605
			c-0.477-0.316-0.783-0.695-0.922-1.139c-0.139-0.443-0.097-0.914,0.125-1.41c0.221-0.497,0.604-0.979,1.147-1.448
			c0.565-0.489,1.188-0.855,1.868-1.098c0.682-0.242,1.349-0.336,2.002-0.282c0.654,0.054,1.237,0.25,1.748,0.589
			c0.414,0.275,0.724,0.611,0.926,1.006l-0.567,0.491c-0.144-0.462-0.439-0.842-0.89-1.14c-0.399-0.265-0.861-0.413-1.389-0.446
			c-0.526-0.032-1.065,0.057-1.616,0.267c-0.551,0.21-1.063,0.52-1.536,0.929c-0.704,0.609-1.094,1.214-1.169,1.814
			c-0.074,0.602,0.179,1.095,0.759,1.48c0.531,0.351,1.137,0.53,1.818,0.534L787.537,251.338z"/>
		<path id="XMLID_161_" style="fill:#FFFFFF;" d="M794.486,256.201c-0.368-0.058-0.663-0.162-0.887-0.309
			c-0.789-0.523-0.697-1.204,0.273-2.042l3.646-3.152l-0.953-0.632l0.464-0.401l0.953,0.632l1.412-1.22l0.661,0.175l-1.585,1.369
			l1.398,0.927l-0.464,0.401l-1.398-0.927l-3.578,3.093c-0.375,0.324-0.589,0.596-0.641,0.818c-0.054,0.221,0.061,0.425,0.341,0.611
			c0.195,0.129,0.472,0.211,0.83,0.249L794.486,256.201z"/>
		<path id="XMLID_163_" style="fill:#FFFFFF;" d="M799.187,259.43l5.458-4.718l0.498,0.33l-5.458,4.718L799.187,259.43z
			 M806.266,253.684c-0.104-0.07-0.158-0.166-0.16-0.288c-0.004-0.122,0.059-0.237,0.184-0.345c0.111-0.097,0.246-0.152,0.402-0.166
			c0.158-0.014,0.291,0.016,0.398,0.087c0.109,0.072,0.168,0.167,0.177,0.283c0.009,0.117-0.048,0.228-0.169,0.333
			c-0.119,0.103-0.259,0.163-0.42,0.181C806.515,253.786,806.378,253.758,806.266,253.684z"/>
		<path id="XMLID_169_" style="fill:#FFFFFF;" d="M807.104,264.882c-0.498-0.33-0.82-0.725-0.966-1.183
			c-0.146-0.459-0.109-0.942,0.112-1.448c0.223-0.506,0.612-0.999,1.168-1.48c0.586-0.506,1.202-0.88,1.85-1.121
			c0.649-0.241,1.286-0.333,1.91-0.275c0.624,0.057,1.195,0.257,1.714,0.6c0.756,0.501,1.098,1.119,1.022,1.851
			c-0.074,0.732-0.558,1.483-1.448,2.254c-0.56,0.483-1.16,0.846-1.802,1.086c-0.643,0.241-1.271,0.336-1.886,0.288
			C808.164,265.405,807.606,265.215,807.104,264.882z M812.404,260.36c-0.632-0.418-1.351-0.557-2.155-0.415
			c-0.805,0.143-1.58,0.535-2.323,1.177c-0.714,0.617-1.104,1.23-1.171,1.839c-0.067,0.609,0.208,1.119,0.827,1.529
			c0.633,0.419,1.332,0.561,2.098,0.425c0.767-0.135,1.528-0.529,2.285-1.184c0.776-0.671,1.2-1.297,1.273-1.876
			C813.311,261.276,813.033,260.777,812.404,260.36z"/>
		<path id="XMLID_172_" style="fill:#FFFFFF;" d="M818.392,272.161l3.173-2.743c1.304-1.126,1.498-1.992,0.586-2.597
			c-0.502-0.332-1.104-0.444-1.809-0.335c-0.704,0.109-1.344,0.413-1.92,0.91l-3.134,2.708l-0.498-0.331l5.458-4.718l0.498,0.331
			l-0.986,0.853l0.02,0.013c1.136-0.388,2.111-0.312,2.926,0.229c0.571,0.379,0.812,0.838,0.723,1.38
			c-0.091,0.541-0.5,1.125-1.227,1.753l-3.321,2.871L818.392,272.161z"/>
		<path id="XMLID_174_" style="fill:#FFFFFF;" d="M834.325,282.725l0.987-0.854l-0.019-0.012c-1.111,0.403-2.053,0.35-2.825-0.162
			c-1.251-0.83-1.068-1.945,0.551-3.344l3.163-2.734l0.503,0.333l-3.04,2.627c-0.728,0.629-1.14,1.164-1.237,1.607
			s0.105,0.832,0.609,1.167c0.486,0.32,1.065,0.422,1.738,0.304c0.674-0.118,1.312-0.438,1.913-0.959l3.114-2.692l0.498,0.331
			l-5.458,4.718L834.325,282.725z"/>
		<path id="XMLID_176_" style="fill:#FFFFFF;" d="M843.286,288.664l0.166-3.997l-0.02-0.013l-2.689,2.324l-0.498-0.33l8.079-6.982
			l0.498,0.33l-5.202,4.496l0.02,0.013l4.975-0.644l0.643,0.426l-5.159,0.619L844,289.138L843.286,288.664z"/>
		<path id="XMLID_178_" style="fill:#FFFFFF;" d="M850.83,289.174l0.493-0.427l2.825,1.873l-0.493,0.427L850.83,289.174z"/>
		<path id="XMLID_180_" style="fill:#FFFFFF;" d="M856.5,296.128c0.021,0.251,0.112,0.502,0.274,0.755
			c0.161,0.253,0.337,0.442,0.53,0.57c0.822,0.545,1.578,0.521,2.267-0.072c0.229-0.199,0.347-0.426,0.349-0.678
			c0.001-0.253-0.121-0.614-0.368-1.084c-0.273-0.514-0.397-0.946-0.369-1.297c0.028-0.352,0.223-0.683,0.584-0.995
			c0.438-0.378,0.962-0.577,1.572-0.599c0.609-0.02,1.16,0.133,1.652,0.459c0.446,0.297,0.741,0.637,0.883,1.022l-0.573,0.495
			c-0.133-0.49-0.41-0.875-0.83-1.154c-0.339-0.225-0.708-0.33-1.108-0.316c-0.399,0.015-0.749,0.15-1.048,0.41
			c-0.204,0.176-0.333,0.337-0.385,0.482c-0.055,0.146-0.058,0.314-0.011,0.506c0.046,0.191,0.147,0.443,0.307,0.754
			c0.212,0.407,0.347,0.744,0.403,1.01c0.056,0.266,0.043,0.498-0.039,0.698c-0.081,0.2-0.245,0.406-0.492,0.619
			c-0.451,0.39-0.978,0.596-1.581,0.618c-0.604,0.021-1.175-0.146-1.714-0.504c-0.512-0.339-0.813-0.73-0.91-1.176L856.5,296.128z"
			/>
		<path id="XMLID_182_" style="fill:#FFFFFF;" d="M866.612,300.014c-0.74,0.64-1.153,1.25-1.239,1.831s0.166,1.067,0.752,1.456
			c0.598,0.396,1.4,0.586,2.411,0.572l-0.538,0.465c-0.948-0.02-1.76-0.254-2.436-0.703c-0.709-0.469-1.008-1.065-0.896-1.789
			c0.111-0.723,0.607-1.465,1.489-2.227c0.517-0.446,1.095-0.793,1.737-1.038c0.642-0.245,1.269-0.354,1.879-0.329
			c0.611,0.025,1.146,0.189,1.602,0.492c0.645,0.428,0.913,0.963,0.808,1.605c-0.106,0.643-0.581,1.329-1.423,2.057l-0.232,0.201
			L866.612,300.014z M870.477,301.866c0.603-0.551,0.94-1.065,1.013-1.545s-0.127-0.876-0.6-1.188
			c-0.498-0.331-1.08-0.453-1.747-0.367c-0.666,0.086-1.347,0.373-2.043,0.862L870.477,301.866z"/>
		<path id="XMLID_203_" style="fill:#FFFFFF;" d="M778.626,273.684c-0.64-0.042-1.231-0.245-1.778-0.606
			c-0.475-0.315-0.782-0.694-0.92-1.138c-0.139-0.444-0.098-0.914,0.124-1.41c0.222-0.497,0.604-0.979,1.147-1.448
			c0.565-0.489,1.188-0.855,1.869-1.098c0.681-0.242,1.349-0.336,2.002-0.281c0.653,0.054,1.236,0.25,1.748,0.589
			c0.414,0.275,0.723,0.61,0.926,1.006l-0.568,0.491c-0.144-0.462-0.439-0.842-0.891-1.141c-0.398-0.264-0.861-0.413-1.387-0.445
			c-0.527-0.033-1.065,0.056-1.616,0.267c-0.551,0.21-1.063,0.52-1.537,0.93c-0.704,0.608-1.094,1.213-1.168,1.814
			c-0.075,0.601,0.178,1.094,0.759,1.48c0.529,0.351,1.136,0.529,1.818,0.534L778.626,273.684z"/>
		<path id="XMLID_205_" style="fill:#FFFFFF;" d="M785.576,278.548c-0.367-0.058-0.663-0.162-0.887-0.309
			c-0.788-0.523-0.697-1.204,0.272-2.042l3.647-3.152l-0.953-0.632l0.464-0.401l0.953,0.632l1.411-1.22l0.662,0.174l-1.584,1.37
			l1.397,0.927l-0.464,0.401l-1.397-0.927l-3.578,3.093c-0.375,0.324-0.59,0.596-0.643,0.818c-0.052,0.221,0.062,0.425,0.343,0.611
			c0.194,0.129,0.471,0.211,0.829,0.249L785.576,278.548z"/>
		<path id="XMLID_207_" style="fill:#FFFFFF;" d="M790.277,281.777l5.458-4.718l0.498,0.33l-5.458,4.718L790.277,281.777z
			 M797.356,276.03c-0.105-0.069-0.16-0.165-0.162-0.288c-0.002-0.122,0.06-0.237,0.185-0.345c0.111-0.097,0.246-0.152,0.403-0.166
			c0.156-0.014,0.29,0.015,0.398,0.086c0.108,0.073,0.167,0.167,0.176,0.283c0.01,0.117-0.047,0.228-0.168,0.333
			c-0.119,0.103-0.259,0.163-0.421,0.181C797.604,276.133,797.469,276.105,797.356,276.03z"/>
		<path id="XMLID_210_" style="fill:#FFFFFF;" d="M798.195,287.229c-0.498-0.33-0.82-0.725-0.967-1.182
			c-0.146-0.46-0.108-0.942,0.113-1.448c0.222-0.507,0.611-0.999,1.167-1.479c0.586-0.507,1.202-0.881,1.851-1.121
			c0.648-0.242,1.285-0.333,1.91-0.276c0.624,0.058,1.195,0.258,1.713,0.601c0.756,0.502,1.098,1.119,1.023,1.851
			c-0.075,0.731-0.559,1.483-1.45,2.254c-0.559,0.483-1.159,0.846-1.8,1.086c-0.643,0.241-1.271,0.337-1.887,0.288
			S798.695,287.562,798.195,287.229z M803.494,282.707c-0.633-0.418-1.351-0.557-2.155-0.414c-0.805,0.142-1.58,0.534-2.323,1.177
			c-0.714,0.617-1.104,1.23-1.172,1.839c-0.066,0.609,0.209,1.118,0.829,1.529c0.632,0.419,1.331,0.561,2.097,0.425
			c0.766-0.135,1.527-0.529,2.284-1.184c0.776-0.671,1.202-1.297,1.274-1.876C804.4,283.623,804.123,283.124,803.494,282.707z"/>
		<path id="XMLID_213_" style="fill:#FFFFFF;" d="M809.481,294.508l3.173-2.743c1.303-1.126,1.498-1.991,0.586-2.597
			c-0.502-0.332-1.104-0.444-1.809-0.336c-0.704,0.109-1.344,0.413-1.919,0.91l-3.134,2.709l-0.498-0.33l5.458-4.719l0.498,0.331
			l-0.987,0.853l0.02,0.014c1.136-0.389,2.111-0.313,2.926,0.229c0.572,0.379,0.812,0.838,0.723,1.379
			c-0.091,0.541-0.5,1.125-1.227,1.754l-3.321,2.871L809.481,294.508z"/>
		<path id="XMLID_215_" style="fill:#FFFFFF;" d="M818.138,295.754l0.493-0.426l2.825,1.873l-0.493,0.426L818.138,295.754z"/>
		<path id="XMLID_217_" style="fill:#FFFFFF;" d="M826.986,306.112l0.987-0.854l-0.02-0.013c-0.538,0.191-1.076,0.258-1.614,0.195
			c-0.539-0.06-1.01-0.224-1.412-0.49c-0.664-0.44-0.949-1.011-0.854-1.712c0.094-0.7,0.564-1.417,1.41-2.147
			c0.572-0.495,1.187-0.87,1.844-1.126c0.656-0.255,1.294-0.366,1.912-0.333c0.619,0.033,1.162,0.204,1.627,0.513
			c0.793,0.525,1.021,1.187,0.689,1.987l0.02,0.013l3.489-3.017l0.497,0.33l-8.079,6.982L826.986,306.112z M830.303,303.246
			c0.529-0.458,0.804-0.939,0.823-1.444s-0.222-0.924-0.728-1.259c-0.564-0.374-1.248-0.485-2.047-0.332
			c-0.8,0.153-1.57,0.55-2.311,1.189c-0.721,0.623-1.135,1.22-1.243,1.791c-0.108,0.572,0.104,1.034,0.637,1.388
			c0.577,0.383,1.22,0.526,1.927,0.433c0.708-0.094,1.354-0.394,1.939-0.9L830.303,303.246z"/>
		<path id="XMLID_220_" style="fill:#FFFFFF;" d="M835.734,307.797c-0.74,0.639-1.153,1.25-1.239,1.831s0.165,1.066,0.752,1.456
			c0.598,0.396,1.399,0.586,2.41,0.572l-0.538,0.465c-0.947-0.021-1.76-0.255-2.436-0.703c-0.709-0.47-1.008-1.066-0.896-1.789
			s0.608-1.465,1.49-2.227c0.516-0.446,1.095-0.793,1.736-1.038c0.643-0.245,1.269-0.354,1.88-0.329
			c0.61,0.025,1.144,0.189,1.601,0.492c0.645,0.428,0.913,0.962,0.808,1.605c-0.106,0.643-0.581,1.329-1.423,2.057l-0.232,0.201
			L835.734,307.797z M839.598,309.648c0.603-0.55,0.94-1.064,1.014-1.544c0.072-0.479-0.129-0.876-0.6-1.188
			c-0.498-0.331-1.081-0.453-1.747-0.367s-1.347,0.373-2.043,0.862L839.598,309.648z"/>
		<path id="XMLID_223_" style="fill:#FFFFFF;" d="M851.874,311.078c-0.026-0.172-0.169-0.344-0.427-0.516
			c-0.648-0.43-1.421-0.256-2.319,0.52l-0.898,0.777l1.394,0.924l-0.464,0.4l-1.394-0.924l-4.994,4.316l-0.493-0.326l4.994-4.317
			l-0.948-0.628l0.464-0.401l0.948,0.628l0.963-0.832c0.532-0.46,1.089-0.74,1.668-0.838c0.579-0.099,1.099,0.005,1.559,0.31
			c0.228,0.15,0.38,0.306,0.461,0.464L851.874,311.078z"/>
		<path id="XMLID_225_" style="fill:#FFFFFF;" d="M851.817,322.574l1.081-0.935l-0.02-0.013c-0.557,0.208-1.103,0.3-1.637,0.274
			c-0.535-0.024-0.994-0.165-1.377-0.419c-0.494-0.328-0.749-0.716-0.762-1.163c-0.012-0.448,0.208-0.866,0.659-1.257
			c0.968-0.836,2.156-0.93,3.565-0.281l1.88,0.861c1.158-1,1.313-1.782,0.464-2.346c-0.584-0.387-1.393-0.557-2.425-0.507
			l0.606-0.524c0.4-0.006,0.813,0.052,1.233,0.173s0.786,0.284,1.097,0.489c0.555,0.369,0.808,0.801,0.758,1.298
			s-0.41,1.034-1.078,1.611l-3.548,3.067L851.817,322.574z M850.313,319.383c-0.332,0.287-0.493,0.59-0.481,0.906
			s0.196,0.594,0.554,0.83c0.329,0.219,0.717,0.341,1.162,0.367c0.446,0.027,0.905-0.046,1.375-0.219
			c0.471-0.173,0.899-0.428,1.288-0.763l0.533-0.461l-1.658-0.774c-0.625-0.294-1.148-0.431-1.57-0.408
			C851.093,318.882,850.692,319.057,850.313,319.383z"/>
		<path id="XMLID_228_" style="fill:#FFFFFF;" d="M861.119,328.739l0.987-0.854l-0.019-0.012c-1.112,0.403-2.055,0.35-2.826-0.162
			c-1.252-0.83-1.068-1.944,0.551-3.343l3.163-2.734l0.503,0.334l-3.04,2.627c-0.728,0.629-1.14,1.164-1.237,1.606
			s0.105,0.831,0.61,1.166c0.484,0.321,1.065,0.423,1.738,0.304c0.674-0.118,1.312-0.438,1.913-0.959l3.114-2.691l0.498,0.33
			l-5.458,4.719L861.119,328.739z"/>
		<path id="XMLID_230_" style="fill:#FFFFFF;" d="M867.038,332.664l8.079-6.983l0.498,0.33l-8.079,6.983L867.038,332.664z"/>
		<path id="XMLID_232_" style="fill:#FFFFFF;" d="M875.149,337.928c-0.368-0.059-0.664-0.162-0.887-0.31
			c-0.789-0.522-0.698-1.203,0.272-2.042l3.647-3.152l-0.953-0.632l0.464-0.401l0.953,0.633l1.412-1.221l0.66,0.174l-1.584,1.37
			l1.398,0.927l-0.464,0.4l-1.398-0.926l-3.578,3.092c-0.375,0.324-0.59,0.597-0.643,0.818c-0.052,0.221,0.063,0.425,0.343,0.611
			c0.194,0.129,0.471,0.211,0.83,0.248L875.149,337.928z"/>
		<path id="XMLID_234_" style="fill:#FFFFFF;" d="M885.618,336.961l-0.46-0.305l2.394-2.068l0.46,0.305L885.618,336.961z
			 M886.926,337.827l-0.46-0.305l2.394-2.068l0.46,0.305L886.926,337.827z"/>
		<path id="XMLID_238_" style="fill:#FFFFFF;" d="M888.433,345.58l0.528-0.457l5.272,0.782l0.02-0.017l-1.478-4.063l0.514-0.443
			l1.822,5.015l-0.109,0.094L888.433,345.58z"/>
		<path id="XMLID_240_" style="fill:#FFFFFF;" d="M799.781,311.62l0.108-0.094l6.807,0.706l-0.513,0.443l-5.509-0.569l-0.02,0.017
			l1.714,3.85l-0.528,0.457L799.781,311.62z"/>
		<path id="XMLID_242_" style="fill:#FFFFFF;" d="M810.633,323.524l0.986-0.854l-0.02-0.013c-0.537,0.191-1.075,0.257-1.614,0.195
			c-0.538-0.06-1.009-0.224-1.411-0.49c-0.664-0.44-0.949-1.011-0.854-1.712s0.565-1.417,1.411-2.147
			c0.572-0.495,1.187-0.871,1.844-1.127c0.656-0.255,1.294-0.366,1.912-0.332c0.619,0.033,1.161,0.204,1.627,0.513
			c0.792,0.524,1.021,1.187,0.689,1.987l0.02,0.012l3.488-3.016l0.498,0.33l-8.079,6.982L810.633,323.524z M813.949,320.658
			c0.529-0.459,0.804-0.939,0.823-1.444c0.021-0.505-0.223-0.924-0.728-1.259c-0.564-0.374-1.248-0.485-2.047-0.332
			c-0.8,0.152-1.57,0.55-2.311,1.189c-0.721,0.623-1.136,1.22-1.243,1.791c-0.108,0.572,0.104,1.034,0.637,1.388
			c0.577,0.383,1.22,0.526,1.927,0.433s1.354-0.395,1.939-0.9L813.949,320.658z"/>
		<path id="XMLID_245_" style="fill:#FFFFFF;" d="M816.553,327.449l5.458-4.719l0.498,0.331l-5.458,4.718L816.553,327.449z
			 M823.632,321.703c-0.104-0.07-0.159-0.166-0.162-0.288c-0.002-0.122,0.059-0.237,0.185-0.346
			c0.111-0.097,0.246-0.152,0.403-0.166s0.29,0.015,0.398,0.087c0.109,0.072,0.168,0.166,0.177,0.283
			c0.009,0.116-0.048,0.227-0.17,0.332c-0.118,0.103-0.258,0.162-0.421,0.182C823.881,321.805,823.744,321.777,823.632,321.703z"/>
		<path id="XMLID_248_" style="fill:#FFFFFF;" d="M824.226,332.535l-0.455-0.302l3.417-6.07l0.546,0.361l-2.757,4.775
			c-0.141,0.238-0.28,0.442-0.419,0.61l0.019,0.014c0.268-0.159,0.508-0.286,0.721-0.382l5.951-2.688l0.542,0.359L824.226,332.535z"
			/>
		<path id="XMLID_250_" style="fill:#FFFFFF;" d="M841.323,343.501c-0.639-0.042-1.231-0.244-1.777-0.605
			c-0.476-0.316-0.782-0.694-0.921-1.139c-0.138-0.443-0.098-0.913,0.125-1.41c0.222-0.495,0.604-0.979,1.146-1.447
			c0.566-0.489,1.189-0.855,1.869-1.098c0.682-0.241,1.348-0.336,2.002-0.282c0.653,0.054,1.236,0.25,1.747,0.59
			c0.414,0.274,0.725,0.609,0.927,1.006l-0.568,0.49c-0.143-0.461-0.439-0.842-0.89-1.141c-0.398-0.264-0.861-0.412-1.388-0.445
			s-1.065,0.057-1.615,0.268c-0.552,0.21-1.063,0.52-1.537,0.929c-0.704,0.608-1.094,1.214-1.169,1.814
			c-0.075,0.602,0.178,1.095,0.759,1.479c0.53,0.352,1.137,0.529,1.818,0.535L841.323,343.501z"/>
		<path id="XMLID_252_" style="fill:#FFFFFF;" d="M846.083,347.025l8.079-6.983l0.498,0.33l-8.079,6.983L846.083,347.025z"/>
		<path id="XMLID_254_" style="fill:#FFFFFF;" d="M855.158,353.041l1.08-0.934l-0.019-0.013c-0.558,0.208-1.104,0.3-1.639,0.274
			c-0.533-0.025-0.993-0.165-1.376-0.419c-0.495-0.328-0.748-0.716-0.761-1.164c-0.013-0.447,0.207-0.866,0.658-1.256
			c0.968-0.836,2.156-0.93,3.566-0.281l1.88,0.861c1.158-1.001,1.313-1.782,0.462-2.346c-0.583-0.388-1.393-0.557-2.424-0.507
			l0.606-0.525c0.4-0.006,0.813,0.053,1.233,0.174c0.421,0.12,0.787,0.284,1.097,0.489c0.556,0.368,0.809,0.801,0.758,1.298
			c-0.05,0.496-0.409,1.033-1.077,1.61l-3.548,3.067L855.158,353.041z M853.653,349.851c-0.332,0.288-0.493,0.589-0.48,0.905
			c0.012,0.317,0.195,0.594,0.553,0.831c0.329,0.218,0.718,0.341,1.163,0.367s0.904-0.046,1.375-0.22
			c0.47-0.172,0.899-0.427,1.288-0.763l0.532-0.46l-1.658-0.775c-0.625-0.294-1.148-0.43-1.57-0.408
			C854.432,349.35,854.032,349.523,853.653,349.851z"/>
		<path id="XMLID_257_" style="fill:#FFFFFF;" d="M861.543,355.978c0.021,0.251,0.111,0.501,0.273,0.755
			c0.162,0.252,0.338,0.442,0.53,0.569c0.823,0.546,1.579,0.522,2.267-0.072c0.23-0.199,0.347-0.425,0.348-0.678
			c0.002-0.253-0.12-0.614-0.366-1.083c-0.274-0.515-0.397-0.946-0.369-1.297c0.027-0.352,0.223-0.683,0.584-0.996
			c0.438-0.378,0.962-0.577,1.571-0.598c0.609-0.02,1.16,0.133,1.652,0.459c0.446,0.296,0.741,0.637,0.883,1.021l-0.572,0.495
			c-0.133-0.49-0.411-0.875-0.832-1.153c-0.338-0.225-0.707-0.33-1.106-0.316c-0.4,0.014-0.75,0.15-1.049,0.409
			c-0.204,0.177-0.333,0.337-0.386,0.483c-0.053,0.146-0.057,0.314-0.009,0.506c0.046,0.191,0.147,0.442,0.307,0.754
			c0.212,0.406,0.346,0.744,0.402,1.01c0.056,0.266,0.044,0.498-0.038,0.697c-0.081,0.2-0.246,0.406-0.492,0.62
			c-0.451,0.39-0.978,0.596-1.581,0.617c-0.604,0.022-1.177-0.146-1.715-0.503c-0.512-0.339-0.813-0.73-0.909-1.176L861.543,355.978
			z"/>
		<path id="XMLID_259_" style="fill:#FFFFFF;" d="M869.402,361.188c0.021,0.25,0.111,0.502,0.274,0.754
			c0.161,0.254,0.337,0.443,0.529,0.57c0.823,0.547,1.579,0.522,2.267-0.072c0.23-0.199,0.347-0.425,0.35-0.678
			c0-0.252-0.122-0.613-0.368-1.084c-0.274-0.514-0.397-0.945-0.369-1.296s0.223-0.683,0.584-0.995
			c0.438-0.379,0.962-0.578,1.571-0.598c0.61-0.021,1.16,0.133,1.652,0.458c0.446,0.296,0.742,0.637,0.883,1.022l-0.572,0.494
			c-0.133-0.49-0.411-0.875-0.831-1.153c-0.339-0.225-0.707-0.33-1.107-0.315c-0.4,0.014-0.749,0.15-1.048,0.408
			c-0.204,0.177-0.334,0.338-0.387,0.484c-0.053,0.145-0.057,0.313-0.009,0.506c0.046,0.19,0.147,0.441,0.307,0.753
			c0.212,0.407,0.347,0.743,0.402,1.01c0.056,0.266,0.044,0.499-0.038,0.698c-0.081,0.199-0.246,0.406-0.492,0.619
			c-0.451,0.39-0.978,0.596-1.581,0.617c-0.604,0.022-1.176-0.146-1.715-0.503c-0.512-0.339-0.813-0.73-0.909-1.175L869.402,361.188
			z"/>
		<path id="XMLID_261_" style="fill:#FFFFFF;" d="M878.864,365.824l0.458-0.396l4.702,3.117l-0.458,0.396L878.864,365.824z
			 M880.941,364.028l0.459-0.396l4.702,3.117l-0.459,0.396L880.941,364.028z"/>
		<path id="XMLID_264_" style="fill:#FFFFFF;" d="M893.086,370.165l-0.46-0.306l2.394-2.068l0.46,0.305L893.086,370.165z
			 M894.394,371.031l-0.46-0.305l2.394-2.068l0.46,0.305L894.394,371.031z"/>
		<path id="XMLID_267_" style="fill:#FFFFFF;" d="M898.112,381.516l0.987-0.853l-0.02-0.013c-1.111,0.404-2.054,0.351-2.826-0.162
			c-1.251-0.829-1.067-1.943,0.552-3.343l3.163-2.734l0.503,0.333l-3.04,2.628c-0.728,0.628-1.14,1.165-1.236,1.606
			c-0.099,0.443,0.104,0.832,0.609,1.166c0.484,0.322,1.065,0.424,1.738,0.305c0.674-0.119,1.312-0.439,1.913-0.959l3.114-2.692
			l0.498,0.331l-5.458,4.718L898.112,381.516z"/>
		<path id="XMLID_269_" style="fill:#FFFFFF;" d="M907.073,387.457l0.166-3.998l-0.02-0.013l-2.689,2.325l-0.498-0.33l8.079-6.983
			l0.498,0.33l-5.202,4.496l0.02,0.013l4.975-0.644l0.643,0.425l-5.16,0.62l-0.097,4.231L907.073,387.457z"/>
		<path id="XMLID_271_" style="fill:#FFFFFF;" d="M914.617,387.965l0.493-0.426l2.825,1.873l-0.494,0.426L914.617,387.965z"/>
		<path id="XMLID_273_" style="fill:#FFFFFF;" d="M781.428,332.048c-0.64-0.042-1.232-0.244-1.777-0.605
			c-0.477-0.315-0.783-0.694-0.921-1.139c-0.14-0.443-0.099-0.913,0.123-1.41c0.222-0.496,0.604-0.979,1.147-1.448
			c0.565-0.488,1.189-0.854,1.87-1.097c0.681-0.241,1.348-0.337,2.001-0.282c0.654,0.055,1.236,0.25,1.748,0.59
			c0.414,0.274,0.723,0.61,0.926,1.006l-0.567,0.49c-0.144-0.462-0.44-0.842-0.89-1.141c-0.399-0.264-0.861-0.412-1.388-0.445
			c-0.528-0.032-1.066,0.057-1.616,0.268c-0.551,0.209-1.063,0.52-1.537,0.929c-0.704,0.608-1.093,1.214-1.169,1.814
			c-0.074,0.603,0.179,1.095,0.76,1.479c0.529,0.352,1.136,0.529,1.818,0.535L781.428,332.048z"/>
		<path id="XMLID_275_" style="fill:#FFFFFF;" d="M788.184,337.1c-0.498-0.33-0.82-0.725-0.966-1.184
			c-0.146-0.459-0.108-0.941,0.113-1.447s0.61-1,1.167-1.48c0.585-0.506,1.202-0.88,1.851-1.121c0.647-0.24,1.285-0.332,1.909-0.275
			c0.625,0.058,1.195,0.258,1.713,0.601c0.756,0.501,1.098,1.118,1.023,1.851c-0.075,0.732-0.557,1.483-1.448,2.254
			c-0.56,0.483-1.159,0.846-1.802,1.086c-0.642,0.24-1.271,0.336-1.886,0.287C789.242,337.622,788.685,337.432,788.184,337.1z
			 M793.482,332.577c-0.632-0.419-1.35-0.558-2.155-0.415c-0.805,0.143-1.579,0.535-2.323,1.178c-0.713,0.617-1.104,1.23-1.17,1.839
			c-0.067,0.608,0.209,1.118,0.828,1.529c0.632,0.419,1.332,0.562,2.097,0.425c0.767-0.135,1.527-0.529,2.284-1.184
			c0.776-0.671,1.201-1.297,1.273-1.877C794.39,333.492,794.111,332.994,793.482,332.577z"/>
		<path id="XMLID_278_" style="fill:#FFFFFF;" d="M799.471,344.379l3.174-2.743c1.303-1.126,1.498-1.992,0.585-2.597
			c-0.501-0.332-1.104-0.444-1.808-0.336c-0.704,0.109-1.344,0.412-1.92,0.91l-3.134,2.709l-0.498-0.331l5.459-4.718l0.498,0.33
			l-0.987,0.854l0.02,0.013c1.136-0.388,2.11-0.312,2.926,0.229c0.571,0.379,0.812,0.839,0.722,1.38s-0.499,1.125-1.226,1.753
			l-3.322,2.871L799.471,344.379z"/>
		<path id="XMLID_280_" style="fill:#FFFFFF;" d="M807.472,349.569c-0.367-0.058-0.664-0.161-0.887-0.31
			c-0.789-0.522-0.697-1.203,0.273-2.042l3.647-3.152l-0.953-0.632l0.464-0.4l0.953,0.631l1.411-1.22l0.661,0.175l-1.584,1.369
			l1.398,0.928l-0.464,0.4l-1.398-0.928l-3.578,3.094c-0.375,0.323-0.59,0.596-0.643,0.817s0.061,0.425,0.342,0.611
			c0.194,0.129,0.471,0.212,0.83,0.249L807.472,349.569z"/>
		<path id="XMLID_282_" style="fill:#FFFFFF;" d="M815.328,354.891l1.081-0.934l-0.019-0.013c-0.557,0.208-1.104,0.3-1.638,0.274
			c-0.535-0.025-0.994-0.165-1.377-0.418c-0.494-0.328-0.749-0.717-0.761-1.164c-0.012-0.448,0.207-0.867,0.658-1.256
			c0.967-0.836,2.156-0.93,3.565-0.282l1.88,0.861c1.158-1.001,1.313-1.782,0.464-2.346c-0.584-0.387-1.393-0.557-2.426-0.507
			l0.607-0.525c0.401-0.005,0.813,0.053,1.233,0.174s0.787,0.284,1.097,0.489c0.556,0.368,0.808,0.801,0.758,1.298
			s-0.409,1.033-1.077,1.611l-3.549,3.066L815.328,354.891z M813.825,351.701c-0.332,0.287-0.493,0.588-0.481,0.905
			c0.012,0.316,0.196,0.594,0.554,0.831c0.328,0.217,0.716,0.34,1.161,0.366c0.447,0.027,0.904-0.046,1.375-0.219
			s0.9-0.428,1.289-0.763l0.532-0.461l-1.657-0.775c-0.625-0.293-1.148-0.43-1.572-0.408
			C814.604,351.199,814.203,351.373,813.825,351.701z"/>
		<path id="XMLID_285_" style="fill:#FFFFFF;" d="M821.138,358.742l5.459-4.719l0.498,0.331l-5.459,4.718L821.138,358.742z
			 M828.218,352.996c-0.105-0.07-0.16-0.166-0.162-0.288s0.059-0.237,0.184-0.346c0.112-0.097,0.247-0.151,0.404-0.165
			c0.156-0.015,0.29,0.014,0.398,0.086c0.109,0.072,0.166,0.166,0.176,0.283c0.009,0.116-0.047,0.228-0.169,0.332
			c-0.118,0.104-0.259,0.162-0.421,0.182C828.466,353.098,828.33,353.07,828.218,352.996z"/>
		<path id="XMLID_288_" style="fill:#FFFFFF;" d="M830.658,365.054l3.174-2.743c1.303-1.126,1.498-1.992,0.585-2.597
			c-0.501-0.333-1.104-0.444-1.808-0.336s-1.344,0.412-1.92,0.91l-3.134,2.708l-0.498-0.33l5.459-4.717l0.498,0.33l-0.987,0.853
			l0.02,0.013c1.136-0.387,2.11-0.312,2.926,0.229c0.571,0.379,0.812,0.839,0.722,1.38c-0.09,0.54-0.499,1.125-1.226,1.754
			l-3.322,2.87L830.658,365.054z"/>
		<path id="XMLID_290_" style="fill:#FFFFFF;" d="M839.297,366.664c-0.74,0.641-1.154,1.251-1.239,1.832
			c-0.086,0.582,0.165,1.066,0.752,1.456c0.598,0.396,1.4,0.587,2.41,0.572l-0.538,0.465c-0.947-0.02-1.76-0.254-2.436-0.702
			c-0.709-0.471-1.008-1.066-0.896-1.789s0.607-1.465,1.489-2.228c0.517-0.446,1.096-0.792,1.737-1.038
			c0.642-0.245,1.269-0.355,1.879-0.329c0.611,0.026,1.146,0.189,1.602,0.492c0.645,0.428,0.913,0.962,0.808,1.605
			c-0.106,0.644-0.58,1.329-1.423,2.057l-0.232,0.2L839.297,366.664z M843.161,368.518c0.603-0.551,0.94-1.065,1.012-1.545
			c0.072-0.479-0.127-0.876-0.6-1.189c-0.498-0.33-1.08-0.451-1.747-0.366c-0.665,0.087-1.346,0.374-2.042,0.862L843.161,368.518z"
			/>
		<path id="XMLID_293_" style="fill:#FFFFFF;" d="M852.992,372.337c-0.041-0.209-0.171-0.385-0.387-0.528
			c-0.438-0.291-1.021-0.325-1.75-0.104c-0.729,0.22-1.476,0.66-2.239,1.319l-2.576,2.227l-0.488-0.323l5.459-4.718l0.488,0.324
			l-1.204,1.04l0.02,0.013c0.525-0.273,1.036-0.425,1.532-0.453c0.495-0.028,0.915,0.071,1.261,0.3
			c0.194,0.129,0.337,0.274,0.428,0.435L852.992,372.337z"/>
		<path id="XMLID_295_" style="fill:#FFFFFF;" d="M858.553,375.525l-0.46-0.305l2.394-2.068l0.46,0.305L858.553,375.525z
			 M859.86,376.393l-0.46-0.306l2.394-2.068l0.46,0.306L859.86,376.393z"/>
		<path id="XMLID_298_" style="fill:#FFFFFF;" d="M861.367,384.145l0.528-0.457l5.272,0.782l0.02-0.017l-1.477-4.063l0.513-0.443
			l1.822,5.015l-0.108,0.094L861.367,384.145z"/>
	</g>
	<line id="XMLID_122_" style="fill:none;stroke:#FFFFFF;stroke-miterlimit:10;" x1="207.5" y1="335" x2="207.5" y2="380"/>
	<polyline id="XMLID_121_" style="opacity:0.7;fill:none;stroke:#FFFFFF;stroke-width:2;stroke-miterlimit:10;" points="26,211 
		52,211 112,171.75 111,157.875 150,132.938 162,136.469 195,115.234 201,97.867 	"/>
	<g id="XMLID_236_" style="opacity:0.5;">
		<g id="XMLID_53_">
			<g id="XMLID_4_">
				<g id="XMLID_6_">
					<g id="XMLID_7_">
						<g id="XMLID_8_">
							<path id="XMLID_9_" style="fill:#FFFFFF;stroke:#FFFFFF;stroke-miterlimit:10;" d="M758.181,452.737
								c0,0-0.044,0.265-0.13,0.788c-0.045,0.261-0.153,0.576-0.252,0.958c-0.096,0.383-0.223,0.825-0.431,1.311
								c-0.735,1.955-2.25,4.792-5.178,7.796c-2.867,3.045-7.059,6.225-12.362,9.346c-5.326,3.095-11.763,6.151-19.202,9.02
								c-14.868,5.779-33.643,10.954-55.473,15.361c-21.835,4.417-46.751,8.03-74.054,10.712
								c-27.306,2.663-57.008,4.377-88.448,4.883c-31.438,0.496-64.621-0.144-98.842-2.487
								c-34.202-2.387-69.508-6.301-104.783-13.472c-17.605-3.648-35.251-8.064-52.263-14.444
								c-8.471-3.228-16.824-6.956-24.385-11.916c-0.964-0.608-1.848-1.284-2.744-1.905c-0.864-0.68-1.76-1.322-2.584-2.051
								c-1.69-1.407-3.275-2.949-4.668-4.653c-1.395-1.697-2.612-3.56-3.451-5.597c-0.843-2.031-1.275-4.241-1.171-6.441
								c0.093-2.201,0.719-4.359,1.697-6.327c0.977-1.973,2.284-3.768,3.743-5.413c1.475-1.636,3.12-3.106,4.825-4.494
								c0.871-0.671,1.735-1.357,2.641-1.973c0.896-0.656,1.859-1.27,2.802-1.884c7.649-4.834,16.037-8.476,24.525-11.662
								c17.048-6.287,34.706-10.652,52.322-14.249c17.636-3.567,35.301-6.276,52.814-8.422c17.515-2.143,34.884-3.724,51.994-4.877
								c34.224-2.299,67.407-2.903,98.845-2.378c31.438,0.556,61.14,2.277,88.441,4.995c27.301,2.708,52.209,6.38,74.033,10.844
								c21.821,4.448,40.574,9.714,55.407,15.573c7.403,2.945,13.838,6.015,19.095,9.219c5.28,3.166,9.348,6.494,12.123,9.609
								c1.38,1.565,2.404,3.083,3.193,4.436c0.719,1.386,1.237,2.593,1.502,3.605c0.318,1.001,0.392,1.79,0.49,2.31
								c0.056,0.26,0.036,0.462,0.053,0.594c0.007,0.133,0.011,0.2,0.011,0.2l-1.481,0.098c0,0-0.003-0.06-0.009-0.179
								c-0.015-0.118,0.007-0.298-0.046-0.531c-0.091-0.467-0.152-1.172-0.442-2.078c-0.237-0.914-0.714-2.017-1.375-3.3
								c-0.736-1.256-1.692-2.681-3.007-4.173c-2.645-2.969-6.591-6.212-11.78-9.322c-5.163-3.148-11.528-6.187-18.872-9.108
								c-14.717-5.815-33.397-11.065-55.158-15.499c-21.764-4.452-46.625-8.117-73.883-10.821
								c-27.258-2.714-56.921-4.433-88.32-4.988c-31.399-0.525-64.544,0.079-98.719,2.375c-17.086,1.151-34.429,2.731-51.913,4.869
								c-17.482,2.141-35.112,4.846-52.699,8.403c-17.566,3.586-35.168,7.941-52.099,14.186
								c-8.426,3.161-16.741,6.778-24.245,11.522c-0.919,0.599-1.879,1.21-2.732,1.836c-0.842,0.571-1.656,1.218-2.47,1.844
								c-1.597,1.3-3.137,2.676-4.518,4.208c-1.366,1.54-2.589,3.22-3.504,5.068c-0.915,1.842-1.503,3.863-1.588,5.923
								c-0.097,2.059,0.306,4.129,1.095,6.03c0.785,1.907,1.925,3.651,3.231,5.24c1.305,1.595,2.788,3.039,4.37,4.356
								c0.772,0.683,1.61,1.284,2.419,1.921l1.258,0.891c0.446,0.322,0.899,0.635,1.368,0.931
								c7.407,4.861,15.684,8.564,24.092,11.765c16.891,6.335,34.481,10.741,52.035,14.378
								c35.179,7.152,70.434,11.062,104.586,13.445c34.172,2.34,67.317,2.979,98.716,2.484c31.401-0.506,61.064-2.217,88.327-4.876
								c27.26-2.678,52.13-6.285,73.905-10.69c21.769-4.394,40.475-9.553,55.23-15.29c7.383-2.846,13.751-5.873,18.99-8.917
								c5.215-3.069,9.297-6.176,12.038-9.09c2.807-2.881,4.19-5.516,4.863-7.294c0.192-0.443,0.305-0.844,0.391-1.19
								c0.089-0.345,0.19-0.63,0.229-0.865c0.076-0.469,0.115-0.707,0.115-0.707L758.181,452.737z"/>
							<path id="XMLID_10_" style="fill:#FFFFFF;stroke:#FFFFFF;stroke-miterlimit:10;" d="M600.839,382.953
								c0,0,2.611,0.29,7.18,0.798c4.568,0.527,11.091,1.306,18.91,2.393c15.637,2.159,36.457,5.546,57.14,10.459
								c20.683,4.885,41.215,11.405,56.293,19.236c3.77,1.948,7.199,3.971,10.204,6.008c3.004,2.039,5.58,4.125,7.648,6.051
								c2.076,1.894,3.621,3.73,4.65,4.996c0.512,0.647,0.886,1.197,1.142,1.545c0.254,0.356,0.385,0.54,0.385,0.54l-4.961,3.374
								c0,0-0.429-0.626-1.278-1.744c-0.879-1.073-2.185-2.642-4.03-4.323c-1.83-1.703-4.151-3.591-6.929-5.477
								c-2.779-1.883-6.002-3.788-9.589-5.642c-14.353-7.469-34.518-13.918-54.922-18.727c-20.41-4.849-41.059-8.211-56.576-10.353
								c-7.759-1.078-14.238-1.852-18.774-2.376c-4.538-0.504-7.132-0.792-7.132-0.792L600.839,382.953z"/>
							<path id="XMLID_11_" style="fill:#FFFFFF;stroke:#FFFFFF;stroke-miterlimit:10;" d="M769.514,452.252
								c0,0-0.01,0.157-0.03,0.466c-0.015,0.311-0.051,0.77-0.155,1.363c-0.098,0.592-0.203,1.343-0.395,2.199
								c-0.227,0.829-0.461,1.837-0.84,2.874c-0.734,2.11-1.898,4.484-3.492,6.903c-1.606,2.384-3.638,4.737-6.007,6.984
								c-4.746,4.51-10.805,8.527-17.828,12.181c-7.029,3.663-15.045,7.002-23.85,10.043
								c-35.218,12.184-83.02,20.157-130.978,24.523c-47.968,4.408-96.064,5.06-132.094,4.161
								c-18.02-0.429-33.031-1.202-43.535-1.854c-10.503-0.655-16.501-1.143-16.501-1.143l0.463-5.982c0,0,5.963,0.486,16.408,1.137
								c10.445,0.648,25.377,1.418,43.307,1.844c35.85,0.896,83.729,0.245,131.406-4.137c47.644-4.325,95.147-12.296,129.557-24.216
								c8.595-2.968,16.355-6.209,23.039-9.694c6.684-3.472,12.296-7.234,16.476-11.216c2.09-1.983,3.823-4.001,5.154-5.974
								c1.31-1.997,2.238-3.895,2.812-5.545c0.3-0.814,0.469-1.589,0.654-2.231c0.147-0.66,0.222-1.233,0.301-1.687
								c0.084-0.454,0.11-0.804,0.119-1.041c0.014-0.236,0.021-0.355,0.021-0.355L769.514,452.252z"/>
							<path id="XMLID_12_" style="fill:#FFFFFF;stroke:#FFFFFF;stroke-miterlimit:10;" d="M200.547,449.183
								c0,0,0-0.509,0.161-1.476c0.078-0.483,0.126-1.093,0.324-1.79c0.086-0.351,0.179-0.73,0.278-1.137
								c0.102-0.406,0.272-0.82,0.419-1.271c1.171-3.599,4.117-8.525,9.521-13.365c1.339-1.218,2.844-2.402,4.447-3.608
								c0.41-0.29,0.824-0.584,1.243-0.881c0.367-0.256,0.734-0.529,1.116-0.769c0.76-0.491,1.532-1.01,2.329-1.506
								c3.188-1.99,6.706-3.891,10.514-5.714c7.615-3.648,16.383-6.996,26.049-10.073c38.697-12.288,91.673-20.156,144.769-23.851
								c53.123-3.772,106.384-3.257,146.237-1.017c19.931,1.095,36.515,2.56,48.11,3.749c5.798,0.592,10.349,1.117,13.452,1.475
								c3.101,0.376,4.755,0.576,4.755,0.576l-0.245,1.985c0,0-1.65-0.2-4.744-0.574c-3.096-0.357-7.636-0.88-13.422-1.472
								c-11.57-1.187-28.121-2.649-48.016-3.742c-39.78-2.236-92.965-2.75-145.988,1.015
								c-52.99,3.685-105.866,11.551-144.303,23.762c-9.599,3.054-18.285,6.374-25.79,9.97c-3.752,1.796-7.207,3.665-10.322,5.609
								c-0.773,0.5-1.531,0.99-2.272,1.469c-0.373,0.234-0.728,0.5-1.085,0.748c-0.392,0.277-0.779,0.552-1.162,0.823
								c-1.502,1.122-2.91,2.227-4.169,3.359c-5.076,4.498-7.929,9.079-9.062,12.459c-0.327,0.832-0.518,1.597-0.677,2.259
								c-0.193,0.654-0.241,1.228-0.317,1.683c-0.159,0.91-0.156,1.389-0.156,1.389L200.547,449.183z"/>
							<path id="XMLID_13_" style="fill:#FFFFFF;stroke:#FFFFFF;stroke-miterlimit:10;" d="M207.467,476.959
								c0,0-0.639-0.574-1.597-1.436c-0.494-0.418-1.018-0.951-1.568-1.531c-0.548-0.581-1.169-1.174-1.724-1.815
								c-0.545-0.648-1.09-1.296-1.602-1.903c-0.497-0.616-0.914-1.222-1.287-1.729c-0.753-1.013-1.17-1.736-1.17-1.736l8.286-3.756
								c0,0,0.345,0.548,0.961,1.302c0.305,0.379,0.642,0.836,1.043,1.295c0.409,0.453,0.845,0.935,1.281,1.418
								c0.919,0.924,1.831,1.86,2.582,2.494c0.741,0.644,1.236,1.074,1.236,1.074L207.467,476.959z"/>
							<path id="XMLID_14_" style="fill:#FFFFFF;stroke:#FFFFFF;stroke-miterlimit:10;" d="M243.633,496.898
								c0,0-0.758-0.279-1.517-0.558c-0.758-0.291-1.516-0.583-1.516-0.583l3.234-8.399c0,0,0.726,0.279,1.452,0.558
								c0.729,0.268,1.457,0.536,1.457,0.536L243.633,496.898z"/>
							<polygon id="XMLID_15_" style="fill:#FFFFFF;stroke:#FFFFFF;stroke-miterlimit:10;" points="279.762,507.61 276.714,506.859 
								278.884,498.124 281.869,498.86 							"/>
							<polygon id="XMLID_16_" style="fill:#FFFFFF;stroke:#FFFFFF;stroke-miterlimit:10;" points="371.902,522.386 
								368.833,522.078 369.753,513.125 372.793,513.43 							"/>
							<path id="XMLID_17_" style="fill:#FFFFFF;stroke:#FFFFFF;stroke-miterlimit:10;" d="M194.364,457.461
								c0,0-0.118-0.535-0.295-1.336c-0.221-0.794-0.286-1.893-0.445-2.976c-0.073-1.092-0.173-2.188-0.131-3.009
								c0.045-0.821,0.074-1.368,0.074-1.368l8.981,0.399c0,0-0.023,0.427-0.059,1.067c-0.034,0.639,0.047,1.495,0.104,2.346
								c0.145,0.841,0.209,1.698,0.403,2.312c0.157,0.621,0.262,1.035,0.262,1.035L194.364,457.461z"/>
						</g>
						<path id="XMLID_18_" style="fill:none;stroke:#FFFFFF;stroke-miterlimit:10;" d="M539.619,381.293l0.783-16.481
							c0,0-3.106-0.136-8.541-0.373c-5.435-0.217-13.199-0.488-22.514-0.688c-18.631-0.413-43.458-0.439-68.304,0.43
							c-24.844,0.827-49.695,2.581-68.336,4.424c-9.321,0.913-17.089,1.801-22.528,2.476c-5.439,0.693-8.547,1.089-8.547,1.089"/>
						<path id="XMLID_19_" style="fill:none;stroke:#FFFFFF;stroke-miterlimit:10;" d="M396.659,373.58c0,0-2.459,0.191-7.07,0.549
							c-4.611,0.368-11.372,0.949-19.975,1.82c-8.603,0.87-19.047,2.047-31.019,3.695c-11.972,1.662-25.471,3.768-40.184,6.706
							c-14.715,2.971-30.634,6.644-47.485,12.155c-8.428,2.773-17.088,6.03-25.995,10.392c-4.455,2.213-8.973,4.68-13.567,7.84
							l-2.163,1.536c-0.763,0.559-1.483,1.171-2.226,1.757c-1.511,1.149-2.878,2.448-4.282,3.716
							c-2.677,2.646-5.141,5.495-7.127,8.621c-2.001,3.113-3.541,6.49-4.488,10.042c-0.24,0.886-0.395,1.795-0.597,2.693
							c-0.152,0.907-0.232,1.827-0.352,2.741c-0.073,0.92-0.119,1.844-0.157,2.767c0.045,0.923,0.083,1.849,0.165,2.772
							c0.634,7.413,4.007,14.417,9.039,20.277c2.544,2.914,5.369,5.678,8.55,8.075c0.773,0.63,1.543,1.223,2.404,1.823l1.093,0.768
							c0.304,0.213,0.609,0.433,0.91,0.624c1.208,0.786,2.427,1.604,3.635,2.313c4.847,2.934,9.691,5.372,14.537,7.531
							c9.692,4.302,19.416,7.639,29.18,10.54c9.763,2.902,19.563,5.328,29.368,7.483c19.61,4.271,39.243,7.409,58.588,9.871
							c19.344,2.458,38.4,4.19,56.846,5.434c36.897,2.466,71.348,2.899,100.867,2.375c29.525-0.523,54.128-2.071,71.34-3.473
							c8.606-0.704,15.367-1.347,19.975-1.823c4.608-0.485,7.066-0.744,7.066-0.744"/>
					</g>
					<path id="XMLID_20_" style="fill:#FFFFFF;stroke:#FFFFFF;stroke-miterlimit:10;" d="M251.03,468.922
						c0,0,6.432,2.571,16.705,5.652c10.251,3.101,24.343,6.592,38.704,9.374c14.348,2.822,28.905,5.037,39.863,6.491
						c5.479,0.73,10.058,1.282,13.265,1.66c3.209,0.366,5.043,0.575,5.043,0.575s-9.304,0.783-18.645,1.315
						c-9.338,0.56-18.721,0.87-18.721,0.87s-7.347-1.119-18.274-3.164c-10.914-2.069-25.414-5.134-39.511-9.19
						c-14.098-3.999-27.778-9.107-36.927-14.106c-2.277-1.247-4.325-2.428-6.011-3.561c-0.865-0.538-1.683-1.155-2.123-1.453
						c-0.541-0.383-1.011-0.771-1.45-1.102c-1.706-1.389-2.569-2.308-2.569-2.308s0.367,0.222,1.02,0.553
						c0.639,0.343,1.574,0.778,2.658,1.202c0.535,0.204,1.138,0.444,1.71,0.595c0.12,0.028,0.322,0.113,0.536,0.203
						c0.208,0.084,0.406,0.176,0.63,0.256c0.436,0.164,0.882,0.331,1.335,0.501c1.807,0.677,3.817,1.319,5.842,1.919
						c4.079,1.186,8.318,2.124,11.524,2.755C248.855,468.578,251.03,468.922,251.03,468.922z"/>
					<path id="XMLID_21_" style="fill:#FFFFFF;stroke:#FFFFFF;stroke-miterlimit:10;" d="M298.121,418.678
						c0,0-1.79,0.363-4.893,1.069c-3.111,0.686-7.532,1.725-12.785,3.069c-10.465,2.696-24.385,6.731-36.846,12.229
						c-3.096,1.374-6.088,2.834-8.838,4.36c-1.379,0.761-2.689,1.543-3.918,2.33c-0.597,0.4-1.236,0.781-1.777,1.185l-0.26,0.188
						l-0.186,0.125c-0.141,0.096-0.274,0.202-0.408,0.305c-1.075,0.82-2.043,1.715-2.815,2.687c-0.767,0.974-1.31,2.044-1.554,3.1
						c-0.208,1.062-0.14,2.08,0.113,2.92c0.249,0.846,0.636,1.518,0.974,2.049c0.716,1.044,1.253,1.536,1.253,1.536
						s-0.256-0.09-0.699-0.295c-0.442-0.207-1.089-0.525-1.828-1.039c-0.749-0.504-1.584-1.221-2.305-2.172
						c-0.725-0.946-1.286-2.135-1.539-3.408c-0.525-2.57,0.34-5.245,1.311-7.201c0.489-0.98,0.996-1.8,1.377-2.366
						c0.369-0.583,0.621-0.896,0.621-0.896s0.252-0.195,0.725-0.56c0.237-0.188,0.545-0.387,0.876-0.626
						c0.377-0.272,0.958-0.686,1.567-1.069c2.443-1.62,6.173-3.793,10.957-6.084c9.572-4.596,23.384-9.425,37.602-13.195
						c14.205-3.83,28.75-6.75,39.698-8.714c10.958-1.948,18.319-3.008,18.319-3.008s-8.867,3.121-17.558,6.491
						C306.597,415.039,298.121,418.678,298.121,418.678z"/>
					<path id="XMLID_22_" style="fill:#FFFFFF;stroke:#FFFFFF;stroke-miterlimit:10;" d="M448.732,402.789
						c0,0-7.415,0.191-18.523,0.685c-11.108,0.484-25.903,1.362-40.65,2.595c-14.747,1.231-29.437,2.842-40.401,4.28
						c-5.485,0.707-10.039,1.363-13.225,1.829c-3.182,0.481-5.001,0.755-5.001,0.755s8.738-3.171,17.633-6.1
						c8.879-2.954,17.881-5.709,17.881-5.709s7.399-0.835,18.534-1.81c11.133-0.988,26.008-2.062,40.91-2.771
						c14.9-0.734,29.822-1.118,41.015-1.258c11.194-0.145,18.658-0.103,18.658-0.103s-9.268,1.757-18.474,3.663
						C457.876,400.735,448.732,402.789,448.732,402.789z"/>
					<path id="XMLID_23_" style="fill:#FFFFFF;stroke:#FFFFFF;stroke-miterlimit:10;" d="M597.394,408.063
						c0,0-7.342-0.809-18.397-1.77c-11.053-0.973-25.831-2.001-40.638-2.702c-14.807-0.704-29.64-1.071-40.767-1.202
						c-11.128-0.137-18.549-0.078-18.549-0.078s9.199-1.823,18.455-3.486c9.251-1.683,18.558-3.194,18.558-3.194
						s7.46,0.182,18.64,0.665c11.179,0.483,26.075,1.324,40.929,2.562c14.856,1.217,29.668,2.812,40.732,4.251
						c11.07,1.413,18.406,2.579,18.406,2.579s-9.383,0.358-18.723,0.972C606.696,407.246,597.394,408.063,597.394,408.063z"/>
				</g>
				<polygon id="XMLID_24_" style="fill:#FFFFFF;stroke:#FFFFFF;stroke-miterlimit:10;" points="628.069,480.831 634.694,479.827 
					636.746,492.954 629.995,493.977 				"/>
				<polygon id="XMLID_25_" style="fill:#FFFFFF;stroke:#FFFFFF;stroke-miterlimit:10;" points="560.986,487.674 567.737,487.187 
					568.739,500.436 561.9,500.93 				"/>
				<path id="XMLID_26_" style="fill:#FFFFFF;stroke:#FFFFFF;stroke-miterlimit:10;" d="M650.683,477.121
					c0,0,1.636-0.302,3.272-0.605c1.63-0.315,3.261-0.629,3.261-0.629l2.542,13.041c0,0-1.67,0.322-3.34,0.644
					c-1.674,0.309-3.347,0.619-3.347,0.619L650.683,477.121z"/>
				<path id="XMLID_27_" style="fill:none;stroke:#FFFFFF;stroke-miterlimit:10;" d="M660.388,488.704c0,0-4.934,1.007-13.643,2.51
					c-8.711,1.495-21.209,3.449-36.312,5.268c-15.099,1.832-32.795,3.534-51.815,4.785c-19.019,1.257-39.358,2.052-59.711,2.321
					c-20.354,0.276-40.717,0.012-59.778-0.697c-19.062-0.701-36.823-1.851-52.003-3.156c-15.183-1.296-27.784-2.749-36.58-3.871
					c-8.798-1.122-13.801-1.878-13.801-1.878"/>
			</g>
		</g>
	</g>
	<g id="XMLID_434_">
		<g id="XMLID_435_">
			<g id="XMLID_440_">
				<polyline id="XMLID_442_" style="fill:none;stroke:#FFFFFF;stroke-width:2;stroke-miterlimit:10;" points="175.103,382.045 
					170.734,374.591 127.964,401.837 				"/>
				
					<line id="XMLID_441_" style="fill:none;stroke:#FFFFFF;stroke-width:2;stroke-miterlimit:10;" x1="141.541" y1="402.531" x2="5.2" y2="489.387"/>
			</g>
			<polygon id="XMLID_439_" style="fill:#FFFFFF;" points="92.5,448.524 66.123,465.327 72.419,456.896 98.796,440.093 			"/>
			<polygon id="XMLID_438_" style="fill:#FFFFFF;" points="127.111,426.33 100.734,443.134 107.03,434.702 133.407,417.899 			"/>
			<polygon id="XMLID_437_" style="fill:#FFFFFF;" points="161.046,404.857 134.669,421.661 140.965,413.229 167.342,396.426 			"/>
			<polygon id="XMLID_436_" style="fill:#FFFFFF;" points="194.161,383.762 167.784,400.565 174.079,392.134 200.456,375.33 			"/>
		</g>
	</g>
	<line id="XMLID_429_" style="fill:none;stroke:#FFFFFF;stroke-miterlimit:10;" x1="873.5" y1="412" x2="753.436" y2="337.106"/>
	<polygon id="XMLID_428_" style="fill:#FFFFFF;" points="838.024,384.716 874.289,405.903 883.976,405.284 847.711,384.097 	"/>
	<polyline id="XMLID_427_" style="opacity:0.7;fill:none;stroke:#FFFFFF;stroke-width:2;stroke-miterlimit:10;" points="936,232 
		909.5,232 849.5,194.75 850.5,181.875 811.5,157.438 799.5,161.219 766.5,140.109 760.75,120.805 	"/>
	<g id="XMLID_400_">
		<g id="XMLID_401_">
			<g id="XMLID_406_">
				<polyline id="XMLID_408_" style="fill:none;stroke:#FFFFFF;stroke-width:2;stroke-miterlimit:10;" points="785.397,382.045 
					789.766,374.591 832.536,401.837 				"/>
				
					<line id="XMLID_407_" style="fill:none;stroke:#FFFFFF;stroke-width:2;stroke-miterlimit:10;" x1="818.959" y1="403.531" x2="955.3" y2="490.387"/>
			</g>
			<polygon id="XMLID_405_" style="fill:#FFFFFF;" points="868,448.524 894.377,465.327 888.081,456.896 861.704,440.093 			"/>
			<polygon id="XMLID_404_" style="fill:#FFFFFF;" points="833.389,426.33 859.766,443.134 853.47,434.702 827.093,417.899 			"/>
			<polygon id="XMLID_403_" style="fill:#FFFFFF;" points="799.454,404.857 825.831,421.661 819.535,413.229 793.158,396.426 			"/>
			<polygon id="XMLID_402_" style="fill:#FFFFFF;" points="766.339,383.762 792.716,400.565 786.421,392.134 760.044,375.33 			"/>
		</g>
	</g>
	<rect id="XMLID_3_" x="240.134" y="36" style="fill:none;stroke:#FFFFFF;stroke-miterlimit:10;" width="481" height="310.906"/>
	<path id="XMLID_332_" style="fill:none;stroke:#FFFFFF;stroke-width:2;stroke-miterlimit:10;" d="M207,222v42h17v55h-17v44h17v51
		h-13.973c0,0,0.509,123.326,0.509,123.326c-5.118-0.17-10.23-0.451-15.318-1.025c-54.212-6.117-104.226-35.772-135.635-80.368
		C27.638,410.576,20.95,354.931,22,301c0.779-40.011,0.201-84.164,9.928-123.818C52.369,93.853,113.167,23.109,204.009,23.139
		c1.836,0.001,3.673,1.604,5.509,1.745L210.697,165H224v57H207z"/>
	<path id="XMLID_28_" style="fill:none;stroke:#FFFFFF;stroke-width:2;stroke-miterlimit:10;" d="M752,223v42h-17v55h17v44h-17v51
		h13.871l-0.509,123.326c5.118-0.17,10.23-0.451,15.318-1.025c54.212-6.117,104.226-35.772,135.635-80.368
		C931.26,411.576,937.948,355.931,936.898,302c-0.779-40.011-0.201-84.164-9.928-123.818
		C906.529,94.853,845.731,24.109,754.889,24.139c-1.836,0.001-3.673,1.604-5.509,1.745L748.201,166H735v57H752z"/>
	<g id="XMLID_29_">
		<g id="XMLID_146_" style="opacity:0.5;">
			<path id="XMLID_152_" style="fill:#FFFFFF;stroke:#FFFFFF;stroke-width:8;stroke-miterlimit:10;" d="M530.646,114.839
				c0,27.614-22.386,50-50,50c-27.614,0-50-22.386-50-50s50-90,50-90S530.646,87.225,530.646,114.839z"/>
		</g>
		<circle id="XMLID_30_" style="fill:#FFFFFF;" cx="450.113" cy="93.505" r="3.208"/>
		<circle id="XMLID_31_" style="fill:#FFFFFF;" cx="512.78" cy="92.639" r="3.208"/>
	</g>
	<g id="XMLID_42_">
		<g id="XMLID_45_" style="opacity:0.5;">
			<path id="XMLID_46_" style="fill:#FFFFFF;stroke:#FFFFFF;stroke-width:8;stroke-miterlimit:10;" d="M674.449,112.973
				c0,27.614-22.386,50-50,50c-27.614,0-50-22.386-50-50s50-90,50-90S674.449,85.358,674.449,112.973z"/>
		</g>
		<circle id="XMLID_44_" style="fill:#FFFFFF;" cx="593.916" cy="91.639" r="3.208"/>
		<circle id="XMLID_43_" style="fill:#FFFFFF;" cx="656.583" cy="90.773" r="3.208"/>
	</g>
	<g id="XMLID_33_">
		<g id="XMLID_40_" style="opacity:0.5;">
			<path id="XMLID_41_" style="fill:#FFFFFF;stroke:#FFFFFF;stroke-width:8;stroke-miterlimit:10;" d="M383.646,112.839
				c0,27.614-22.386,50-50,50c-27.614,0-50-22.386-50-50s50-90,50-90S383.646,85.225,383.646,112.839z"/>
		</g>
		<circle id="XMLID_39_" style="fill:#FFFFFF;" cx="303.113" cy="91.505" r="3.208"/>
		<circle id="XMLID_34_" style="fill:#FFFFFF;" cx="365.78" cy="90.639" r="3.208"/>
	</g>
	<path id="XMLID_32_" style="fill:none;stroke:#FFFFFF;stroke-miterlimit:10;" d="M208,263c0,0,241.5-112,543.5,1"/>
	<path id="XMLID_48_" style="fill:none;stroke:#FFFFFF;stroke-miterlimit:10;" d="M208.5,223c0,0,241.25,114.5,543.25,1.5"/>
	<path id="XMLID_186_" style="opacity:0.5;fill:#FFFFFF;" d="M224.219,283.271c-0.265-6.32,27.245-12.969,29.458-13.52
		c38.594-9.613,76.441,7.402,114.939,2.232c39.994-5.371,78.766-24.696,118.766-30.048c36.828-4.927,73.516,2.729,109.807,10.55
		c35.603,7.672,101.753,26.235,137.561,11.016c0.493,4.705-0.099,57.501,0,57.5c-0.006,0-509.757-1.094-509.757-1.094
		S224.221,283.304,224.219,283.271z"/>
	<g id="XMLID_35_">
	</g>
	<g id="XMLID_534_">
	</g>
	<g id="XMLID_535_">
	</g>
	<g id="XMLID_536_">
	</g>
	<g id="XMLID_537_">
	</g>
	<g id="XMLID_538_">
	</g>
	<g id="XMLID_539_">
	</g>
	<g id="XMLID_540_">
	</g>
	<g id="XMLID_541_">
	</g>
	<g id="XMLID_542_">
	</g>
	<g id="XMLID_543_">
	</g>
	<g id="XMLID_544_">
	</g>
	<g id="XMLID_545_">
	</g>
	<g id="XMLID_546_">
	</g>
	<g id="XMLID_547_">
	</g>
</g>
</svg>
