<?xml version="1.0" encoding="utf-8"?>
<!-- Generator: Adobe Illustrator 19.0.0, SVG Export Plug-In . SVG Version: 6.00 Build 0)  -->
<svg version="1.1" id="圖層_1" xmlns="http://www.w3.org/2000/svg" xmlns:xlink="http://www.w3.org/1999/xlink" x="0px" y="0px"
	 viewBox="0 0 700 200" style="enable-background:new 0 0 700 200;" xml:space="preserve">
<style type="text/css">
	.st0{fill:#FFF4CB;}
</style>
<g id="XMLID_117_">
	<rect id="XMLID_362_" x="170" y="0" class="st0" width="10" height="10"/>
	<rect id="XMLID_361_" x="180" y="10" class="st0" width="10" height="10"/>
	<rect id="XMLID_346_" x="160" y="10" class="st0" width="10" height="10"/>
	<rect id="XMLID_344_" x="150" y="0" class="st0" width="10" height="10"/>
	<rect id="XMLID_33_" x="510" y="10" class="st0" width="10" height="10"/>
	<rect id="XMLID_31_" x="520" class="st0" width="10" height="10"/>
	<rect id="XMLID_88_" x="530" y="10" class="st0" width="10" height="10"/>
	<rect id="XMLID_87_" x="540" y="0" class="st0" width="10" height="10"/>
	<rect id="XMLID_2_" x="190" y="0" class="st0" width="320" height="10"/>
</g>
<g id="XMLID_145_">
	<rect id="XMLID_86_" x="170" y="190" class="st0" width="10" height="10"/>
	<rect id="XMLID_85_" x="180" y="180" class="st0" width="10" height="10"/>
	<rect id="XMLID_70_" x="160" y="180" class="st0" width="10" height="10"/>
	<rect id="XMLID_68_" x="150" y="190" class="st0" width="10" height="10"/>
	<rect id="XMLID_52_" x="510" y="180" class="st0" width="10" height="10"/>
	<rect id="XMLID_50_" x="520" y="190" class="st0" width="10" height="10"/>
	<rect id="XMLID_90_" x="530" y="180" class="st0" width="10" height="10"/>
	<rect id="XMLID_89_" x="540" y="190" class="st0" width="10" height="10"/>
	<rect id="XMLID_3_" x="190" y="190" class="st0" width="320" height="10"/>
</g>
<polygon id="XMLID_12_" class="st0" points="550,70 550,20 540,20 540,80 550,80 620,80 620,70 "/>
<polygon id="XMLID_6_" class="st0" points="550,120 540,120 540,180 550,180 550,130 620,130 620,120 "/>
<g id="XMLID_4_">
	<polygon id="XMLID_7_" class="st0" points="150,20 150,70 90,70 90,80 150,80 160,80 160,70.3 160,20 	"/>
	<polygon id="XMLID_11_" class="st0" points="90,120 90,130 150,130 150,180 160,180 160,130 160,120 150,120 	"/>
</g>
</svg>
