<?xml version="1.0" encoding="utf-8"?>
<!-- Generator: Adobe Illustrator 19.0.0, SVG Export Plug-In . SVG Version: 6.00 Build 0)  -->
<svg version="1.1" id="圖層_1" xmlns="http://www.w3.org/2000/svg" xmlns:xlink="http://www.w3.org/1999/xlink" x="0px" y="0px"
	 viewBox="0 0 225 217.5" style="enable-background:new 0 0 225 217.5;" xml:space="preserve">
<style type="text/css">
	.st0{fill:#005504;}
	.st1{fill:#FFFFFF;}
	.st2{fill:#FFF4CB;}
</style>
<g id="XMLID_14_">
	<rect id="XMLID_12_" x="127.9" y="52.5" class="st0" width="10" height="10"/>
	<g id="XMLID_1_">
		<rect id="XMLID_3_" x="157.9" y="52.5" class="st0" width="10" height="10"/>
		<rect id="XMLID_4_" x="167.9" y="42.5" class="st0" width="10" height="10"/>
		<rect id="XMLID_5_" x="177.9" y="32.5" class="st0" width="10" height="10"/>
		<rect id="XMLID_8_" x="187.9" y="22.5" class="st0" width="10" height="10"/>
		<rect id="XMLID_6_" x="167.9" y="22.5" class="st0" width="10" height="10"/>
		<rect id="XMLID_13_" x="167.9" y="12.5" class="st0" width="10" height="10"/>
		<rect id="XMLID_7_" x="187.9" y="42.5" class="st0" width="10" height="10"/>
		<rect id="XMLID_9_" x="197.9" y="42.5" class="st0" width="10" height="10"/>
	</g>
	<g id="XMLID_15_">
		<rect id="XMLID_65_" x="57.9" y="52.5" class="st0" width="10" height="10"/>
		<rect id="XMLID_33_" x="47.9" y="42.5" class="st0" width="10" height="10"/>
		<rect id="XMLID_32_" x="37.9" y="32.5" class="st0" width="10" height="10"/>
		<rect id="XMLID_25_" x="27.9" y="22.5" class="st0" width="10" height="10"/>
		<rect id="XMLID_24_" x="47.9" y="22.5" class="st0" width="10" height="10"/>
		<rect id="XMLID_23_" x="47.9" y="12.5" class="st0" width="10" height="10"/>
		<rect id="XMLID_17_" x="27.9" y="42.5" class="st0" width="10" height="10"/>
		<rect id="XMLID_16_" x="17.9" y="42.5" class="st0" width="10" height="10"/>
	</g>
	<rect id="XMLID_11_" x="117.9" y="52.5" class="st0" width="10" height="10"/>
	<rect id="XMLID_10_" x="107.9" y="52.5" class="st0" width="10" height="10"/>
	<rect id="XMLID_22_" x="147.9" y="62.5" class="st0" width="10" height="10"/>
	<rect id="XMLID_21_" x="137.9" y="62.5" class="st0" width="10" height="10"/>
	<rect id="XMLID_31_" x="157.9" y="72.5" class="st0" width="10" height="10"/>
	<rect id="XMLID_64_" x="167.9" y="82.5" class="st0" width="10" height="10"/>
	<rect id="XMLID_57_" x="177.9" y="92.5" class="st0" width="10" height="10"/>
	<rect id="XMLID_49_" x="177.9" y="102.5" class="st0" width="10" height="10"/>
	<rect id="XMLID_44_" x="127.9" y="102.5" class="st0" width="10" height="10"/>
	<rect id="XMLID_43_" x="117.9" y="102.5" class="st0" width="10" height="10"/>
	<rect id="XMLID_41_" x="177.9" y="112.5" class="st0" width="10" height="10"/>
	<rect id="XMLID_36_" x="127.9" y="112.5" class="st0" width="10" height="10"/>
	<rect id="XMLID_35_" x="117.9" y="112.5" class="st0" width="10" height="10"/>
	<rect id="XMLID_121_" x="97.9" y="52.5" class="st0" width="10" height="10"/>
	<rect id="XMLID_120_" x="87.9" y="52.5" class="st0" width="10" height="10"/>
	<rect id="XMLID_111_" x="77.9" y="62.5" class="st0" width="10" height="10"/>
	<rect id="XMLID_110_" x="67.9" y="62.5" class="st0" width="10" height="10"/>
	<rect id="XMLID_101_" x="57.9" y="72.5" class="st0" width="10" height="10"/>
	<rect id="XMLID_95_" x="77.9" y="82.5" class="st1" width="10" height="10"/>
	<rect id="XMLID_94_" x="67.9" y="82.5" class="st1" width="10" height="10"/>
	<rect id="XMLID_92_" x="47.9" y="82.5" class="st0" width="10" height="10"/>
	<rect id="XMLID_88_" x="87.9" y="92.5" class="st1" width="10" height="10"/>
	<rect id="XMLID_87_" x="77.9" y="92.5" class="st1" width="10" height="10"/>
	<rect id="XMLID_86_" x="67.9" y="92.5" class="st1" width="10" height="10"/>
	<rect id="XMLID_85_" x="57.9" y="92.5" class="st1" width="10" height="10"/>
	<rect id="XMLID_83_" x="37.9" y="92.5" class="st0" width="10" height="10"/>
	<rect id="XMLID_80_" x="87.9" y="102.5" class="st1" width="10" height="10"/>
	<rect id="XMLID_79_" x="77.9" y="102.5" class="st1" width="10" height="10"/>
	<rect id="XMLID_78_" x="67.9" y="102.5" class="st0" width="10" height="10"/>
	<rect id="XMLID_77_" x="57.9" y="102.5" class="st0" width="10" height="10"/>
	<rect id="XMLID_75_" x="37.9" y="102.5" class="st0" width="10" height="10"/>
	<rect id="XMLID_72_" x="87.9" y="112.5" class="st1" width="10" height="10"/>
	<rect id="XMLID_71_" x="77.9" y="112.5" class="st1" width="10" height="10"/>
	<rect id="XMLID_70_" x="67.9" y="112.5" class="st0" width="10" height="10"/>
	<rect id="XMLID_69_" x="57.9" y="112.5" class="st0" width="10" height="10"/>
	<rect id="XMLID_67_" x="37.9" y="112.5" class="st0" width="10" height="10"/>
	<rect id="XMLID_257_" x="177.9" y="122.5" class="st0" width="10" height="10"/>
	<g id="XMLID_401_">
		<rect id="XMLID_61_" x="137.9" y="82.5" class="st1" width="10" height="10"/>
		<rect id="XMLID_60_" x="127.9" y="82.5" class="st1" width="10" height="10"/>
		<rect id="XMLID_54_" x="147.9" y="92.5" class="st1" width="10" height="10"/>
		<rect id="XMLID_53_" x="137.9" y="92.5" class="st1" width="10" height="10"/>
		<rect id="XMLID_52_" x="127.9" y="92.5" class="st1" width="10" height="10"/>
		<rect id="XMLID_51_" x="117.9" y="92.5" class="st1" width="10" height="10"/>
		<rect id="XMLID_46_" x="147.9" y="102.5" class="st1" width="10" height="10"/>
		<rect id="XMLID_45_" x="137.9" y="102.5" class="st1" width="10" height="10"/>
		<rect id="XMLID_38_" x="147.9" y="112.5" class="st1" width="10" height="10"/>
		<rect id="XMLID_37_" x="137.9" y="112.5" class="st1" width="10" height="10"/>
		<rect id="XMLID_253_" x="137.9" y="122.5" class="st1" width="10" height="10"/>
		<rect id="XMLID_252_" x="127.9" y="122.5" class="st1" width="10" height="10"/>
	</g>
	<rect id="XMLID_249_" x="177.9" y="132.5" class="st0" width="10" height="10"/>
	<rect id="XMLID_241_" x="177.9" y="142.5" class="st0" width="10" height="10"/>
	<rect id="XMLID_233_" x="177.9" y="152.5" class="st0" width="10" height="10"/>
	<rect id="XMLID_225_" x="177.9" y="162.5" class="st0" width="10" height="10"/>
	<rect id="XMLID_217_" x="177.9" y="172.5" class="st0" width="10" height="10"/>
	<rect id="XMLID_214_" x="147.9" y="172.5" class="st0" width="10" height="10"/>
	<rect id="XMLID_210_" x="107.9" y="172.5" class="st0" width="10" height="10"/>
	<rect id="XMLID_209_" x="177.9" y="182.5" class="st2" width="10" height="10"/>
	<rect id="XMLID_99_" x="187.9" y="192.5" class="st0" width="10" height="10"/>
	<rect id="XMLID_100_" x="187.9" y="182.5" class="st0" width="10" height="10"/>
	<rect id="XMLID_207_" x="157.9" y="182.5" class="st0" width="10" height="10"/>
	<rect id="XMLID_205_" x="137.9" y="182.5" class="st0" width="10" height="10"/>
	<rect id="XMLID_203_" x="117.9" y="182.5" class="st0" width="10" height="10"/>
	<rect id="XMLID_201_" x="177.9" y="192.5" class="st0" width="10" height="10"/>
	<rect id="XMLID_74_" x="197.9" y="192.5" class="st0" width="10" height="10"/>
	<rect id="XMLID_200_" x="167.9" y="192.5" class="st0" width="10" height="10"/>
	<rect id="XMLID_196_" x="127.9" y="192.5" class="st0" width="10" height="10"/>
	<rect id="XMLID_191_" x="77.9" y="122.5" class="st1" width="10" height="10"/>
	<rect id="XMLID_190_" x="67.9" y="122.5" class="st1" width="10" height="10"/>
	<rect id="XMLID_187_" x="37.9" y="122.5" class="st0" width="10" height="10"/>
	<rect id="XMLID_179_" x="37.9" y="132.5" class="st0" width="10" height="10"/>
	<rect id="XMLID_171_" x="37.9" y="142.5" class="st0" width="10" height="10"/>
	<rect id="XMLID_163_" x="37.9" y="152.5" class="st0" width="10" height="10"/>
	<rect id="XMLID_155_" x="37.9" y="162.5" class="st0" width="10" height="10"/>
	<rect id="XMLID_150_" x="67.9" y="172.5" class="st0" width="10" height="10"/>
	<rect id="XMLID_147_" x="37.9" y="172.5" class="st0" width="10" height="10"/>
	<rect id="XMLID_145_" x="97.9" y="182.5" class="st0" width="10" height="10"/>
	<rect id="XMLID_143_" x="77.9" y="182.5" class="st0" width="10" height="10"/>
	<rect id="XMLID_141_" x="57.9" y="182.5" class="st0" width="10" height="10"/>
	<g id="XMLID_2_">
		<rect id="XMLID_20_" x="127.9" y="62.5" class="st2" width="10" height="10"/>
		<rect id="XMLID_19_" x="117.9" y="62.5" class="st2" width="10" height="10"/>
		<rect id="XMLID_18_" x="107.9" y="62.5" class="st2" width="10" height="10"/>
		<rect id="XMLID_30_" x="147.9" y="72.5" class="st2" width="10" height="10"/>
		<rect id="XMLID_29_" x="137.9" y="72.5" class="st2" width="10" height="10"/>
		<rect id="XMLID_28_" x="127.9" y="72.5" class="st2" width="10" height="10"/>
		<rect id="XMLID_27_" x="117.9" y="72.5" class="st2" width="10" height="10"/>
		<rect id="XMLID_26_" x="107.9" y="72.5" class="st2" width="10" height="10"/>
		<rect id="XMLID_63_" x="157.9" y="82.5" class="st2" width="10" height="10"/>
		<rect id="XMLID_62_" x="147.9" y="82.5" class="st2" width="10" height="10"/>
		<rect id="XMLID_59_" x="117.9" y="82.5" class="st2" width="10" height="10"/>
		<rect id="XMLID_58_" x="107.9" y="82.5" class="st2" width="10" height="10"/>
		<rect id="XMLID_56_" x="167.9" y="92.5" class="st2" width="10" height="10"/>
		<rect id="XMLID_55_" x="157.9" y="92.5" class="st2" width="10" height="10"/>
		<rect id="XMLID_50_" x="107.9" y="92.5" class="st2" width="10" height="10"/>
		<rect id="XMLID_48_" x="167.9" y="102.5" class="st2" width="10" height="10"/>
		<rect id="XMLID_47_" x="157.9" y="102.5" class="st2" width="10" height="10"/>
		<rect id="XMLID_42_" x="107.9" y="102.5" class="st2" width="10" height="10"/>
		<rect id="XMLID_40_" x="167.9" y="112.5" class="st2" width="10" height="10"/>
		<rect id="XMLID_39_" x="157.9" y="112.5" class="st2" width="10" height="10"/>
		<rect id="XMLID_34_" x="107.9" y="112.5" class="st2" width="10" height="10"/>
		<rect id="XMLID_113_" x="97.9" y="62.5" class="st2" width="10" height="10"/>
		<rect id="XMLID_112_" x="87.9" y="62.5" class="st2" width="10" height="10"/>
		<rect id="XMLID_105_" x="97.9" y="72.5" class="st2" width="10" height="10"/>
		<rect id="XMLID_104_" x="87.9" y="72.5" class="st2" width="10" height="10"/>
		<rect id="XMLID_103_" x="77.9" y="72.5" class="st2" width="10" height="10"/>
		<rect id="XMLID_102_" x="67.9" y="72.5" class="st2" width="10" height="10"/>
		<rect id="XMLID_97_" x="97.9" y="82.5" class="st2" width="10" height="10"/>
		<rect id="XMLID_96_" x="87.9" y="82.5" class="st2" width="10" height="10"/>
		<rect id="XMLID_93_" x="57.9" y="82.5" class="st2" width="10" height="10"/>
		<rect id="XMLID_89_" x="97.9" y="92.5" class="st2" width="10" height="10"/>
		<rect id="XMLID_84_" x="47.9" y="92.5" class="st2" width="10" height="10"/>
		<rect id="XMLID_81_" x="97.9" y="102.5" class="st2" width="10" height="10"/>
		<rect id="XMLID_76_" x="47.9" y="102.5" class="st2" width="10" height="10"/>
		<rect id="XMLID_73_" x="97.9" y="112.5" class="st2" width="10" height="10"/>
		<rect id="XMLID_68_" x="47.9" y="112.5" class="st2" width="10" height="10"/>
		<rect id="XMLID_256_" x="167.9" y="122.5" class="st2" width="10" height="10"/>
		<rect id="XMLID_255_" x="157.9" y="122.5" class="st2" width="10" height="10"/>
		<rect id="XMLID_254_" x="147.9" y="122.5" class="st2" width="10" height="10"/>
		<rect id="XMLID_251_" x="117.9" y="122.5" class="st2" width="10" height="10"/>
		<rect id="XMLID_250_" x="107.9" y="122.5" class="st2" width="10" height="10"/>
		<rect id="XMLID_248_" x="167.9" y="132.5" class="st2" width="10" height="10"/>
		<rect id="XMLID_247_" x="157.9" y="132.5" class="st2" width="10" height="10"/>
		<rect id="XMLID_246_" x="147.9" y="132.5" class="st2" width="10" height="10"/>
		<rect id="XMLID_245_" x="137.9" y="132.5" class="st2" width="10" height="10"/>
		<rect id="XMLID_244_" x="127.9" y="132.5" class="st2" width="10" height="10"/>
		<rect id="XMLID_243_" x="117.9" y="132.5" class="st2" width="10" height="10"/>
		<rect id="XMLID_242_" x="107.9" y="132.5" class="st2" width="10" height="10"/>
		<rect id="XMLID_240_" x="167.9" y="142.5" class="st2" width="10" height="10"/>
		<rect id="XMLID_239_" x="157.9" y="142.5" class="st2" width="10" height="10"/>
		<rect id="XMLID_238_" x="147.9" y="142.5" class="st2" width="10" height="10"/>
		<rect id="XMLID_237_" x="137.9" y="142.5" class="st2" width="10" height="10"/>
		<rect id="XMLID_236_" x="127.9" y="142.5" class="st2" width="10" height="10"/>
		<rect id="XMLID_235_" x="117.9" y="142.5" class="st2" width="10" height="10"/>
		<rect id="XMLID_234_" x="107.9" y="142.5" class="st2" width="10" height="10"/>
		<rect id="XMLID_232_" x="167.9" y="152.5" class="st2" width="10" height="10"/>
		<rect id="XMLID_231_" x="157.9" y="152.5" class="st2" width="10" height="10"/>
		<rect id="XMLID_230_" x="147.9" y="152.5" class="st2" width="10" height="10"/>
		<rect id="XMLID_229_" x="137.9" y="152.5" class="st2" width="10" height="10"/>
		<rect id="XMLID_228_" x="127.9" y="152.5" class="st2" width="10" height="10"/>
		<rect id="XMLID_227_" x="117.9" y="152.5" class="st2" width="10" height="10"/>
		<rect id="XMLID_226_" x="107.9" y="152.5" class="st2" width="10" height="10"/>
		<rect id="XMLID_224_" x="167.9" y="162.5" class="st2" width="10" height="10"/>
		<rect id="XMLID_223_" x="157.9" y="162.5" class="st2" width="10" height="10"/>
		<rect id="XMLID_222_" x="147.9" y="162.5" class="st2" width="10" height="10"/>
		<rect id="XMLID_221_" x="137.9" y="162.5" class="st2" width="10" height="10"/>
		<rect id="XMLID_220_" x="127.9" y="162.5" class="st2" width="10" height="10"/>
		<rect id="XMLID_219_" x="117.9" y="162.5" class="st2" width="10" height="10"/>
		<rect id="XMLID_218_" x="107.9" y="162.5" class="st2" width="10" height="10"/>
		<rect id="XMLID_216_" x="167.9" y="172.5" class="st2" width="10" height="10"/>
		<rect id="XMLID_215_" x="157.9" y="172.5" class="st2" width="10" height="10"/>
		<rect id="XMLID_213_" x="137.9" y="172.5" class="st2" width="10" height="10"/>
		<rect id="XMLID_212_" x="127.9" y="172.5" class="st2" width="10" height="10"/>
		<rect id="XMLID_211_" x="117.9" y="172.5" class="st2" width="10" height="10"/>
		<rect id="XMLID_208_" x="167.9" y="182.5" class="st2" width="10" height="10"/>
		<rect id="XMLID_204_" x="127.9" y="182.5" class="st2" width="10" height="10"/>
		<rect id="XMLID_193_" x="97.9" y="122.5" class="st2" width="10" height="10"/>
		<rect id="XMLID_192_" x="87.9" y="122.5" class="st2" width="10" height="10"/>
		<rect id="XMLID_189_" x="57.9" y="122.5" class="st2" width="10" height="10"/>
		<rect id="XMLID_188_" x="47.9" y="122.5" class="st2" width="10" height="10"/>
		<rect id="XMLID_185_" x="97.9" y="132.5" class="st2" width="10" height="10"/>
		<rect id="XMLID_184_" x="87.9" y="132.5" class="st2" width="10" height="10"/>
		<rect id="XMLID_183_" x="77.9" y="132.5" class="st2" width="10" height="10"/>
		<rect id="XMLID_182_" x="67.9" y="132.5" class="st2" width="10" height="10"/>
		<rect id="XMLID_181_" x="57.9" y="132.5" class="st2" width="10" height="10"/>
		<rect id="XMLID_180_" x="47.9" y="132.5" class="st2" width="10" height="10"/>
		<rect id="XMLID_177_" x="97.9" y="142.5" class="st2" width="10" height="10"/>
		<rect id="XMLID_176_" x="87.9" y="142.5" class="st2" width="10" height="10"/>
		<rect id="XMLID_175_" x="77.9" y="142.5" class="st2" width="10" height="10"/>
		<rect id="XMLID_174_" x="67.9" y="142.5" class="st2" width="10" height="10"/>
		<rect id="XMLID_173_" x="57.9" y="142.5" class="st2" width="10" height="10"/>
		<rect id="XMLID_172_" x="47.9" y="142.5" class="st2" width="10" height="10"/>
		<rect id="XMLID_169_" x="97.9" y="152.5" class="st2" width="10" height="10"/>
		<rect id="XMLID_168_" x="87.9" y="152.5" class="st2" width="10" height="10"/>
		<rect id="XMLID_167_" x="77.9" y="152.5" class="st2" width="10" height="10"/>
		<rect id="XMLID_166_" x="67.9" y="152.5" class="st2" width="10" height="10"/>
		<rect id="XMLID_165_" x="57.9" y="152.5" class="st2" width="10" height="10"/>
		<rect id="XMLID_164_" x="47.9" y="152.5" class="st2" width="10" height="10"/>
		<rect id="XMLID_161_" x="97.9" y="162.5" class="st2" width="10" height="10"/>
		<rect id="XMLID_160_" x="87.9" y="162.5" class="st2" width="10" height="10"/>
		<rect id="XMLID_159_" x="77.9" y="162.5" class="st2" width="10" height="10"/>
		<rect id="XMLID_158_" x="67.9" y="162.5" class="st2" width="10" height="10"/>
		<rect id="XMLID_157_" x="57.9" y="162.5" class="st2" width="10" height="10"/>
		<rect id="XMLID_156_" x="47.9" y="162.5" class="st2" width="10" height="10"/>
		<rect id="XMLID_153_" x="97.9" y="172.5" class="st2" width="10" height="10"/>
		<rect id="XMLID_152_" x="87.9" y="172.5" class="st2" width="10" height="10"/>
		<rect id="XMLID_151_" x="77.9" y="172.5" class="st2" width="10" height="10"/>
		<rect id="XMLID_149_" x="57.9" y="172.5" class="st2" width="10" height="10"/>
		<rect id="XMLID_148_" x="47.9" y="172.5" class="st2" width="10" height="10"/>
		<rect id="XMLID_144_" x="87.9" y="182.5" class="st2" width="10" height="10"/>
		<rect id="XMLID_140_" x="47.9" y="182.5" class="st2" width="10" height="10"/>
	</g>
	<rect id="XMLID_139_" x="37.9" y="182.5" class="st0" width="10" height="10"/>
	<rect id="XMLID_136_" x="87.9" y="192.5" class="st0" width="10" height="10"/>
	<rect id="XMLID_132_" x="47.9" y="192.5" class="st2" width="10" height="10"/>
	<rect id="XMLID_131_" x="37.9" y="192.5" class="st0" width="10" height="10"/>
	<rect id="XMLID_82_" x="47.9" y="202.5" class="st0" width="10" height="10"/>
	<rect id="XMLID_90_" x="57.9" y="202.5" class="st0" width="10" height="10"/>
	<rect id="XMLID_91_" x="67.9" y="202.5" class="st0" width="10" height="10"/>
	<rect id="XMLID_98_" x="57.9" y="192.5" class="st0" width="10" height="10"/>
</g>
</svg>
