<?xml version="1.0" encoding="iso-8859-1"?>
<!-- Generator: Adobe Illustrator 19.0.0, SVG Export Plug-In . SVG Version: 6.00 Build 0)  -->
<svg version="1.1" id="&#x5716;&#x5C64;_1" xmlns="http://www.w3.org/2000/svg" xmlns:xlink="http://www.w3.org/1999/xlink" x="0px"
	 y="0px" viewBox="0 0 121 139.923" style="enable-background:new 0 0 121 139.923;" xml:space="preserve">
<path id="XMLID_25_" style="fill:#CC4A09;" d="M58.75,6.506c-32.115,0-58.406,25.21-58.496,56.34L0,62.85v54.06v6.409v2.147
	c0,5.672,5.034,10.313,10.882,10.313c5.09,0,9.494-3.519,10.518-8.171c-0.001-0.031,0.053-0.059,0.053-0.09
	c0-2.939,2.474-5.322,5.487-5.322c2.658,0,4.897,1.856,5.382,4.311h0.016c0.558,5.16,5.055,9.182,10.522,9.182
	c5.467,0,9.965-4.022,10.522-9.182h0.016c0.485-2.455,2.693-4.311,5.351-4.311s4.866,1.856,5.351,4.311h0.016
	c0.558,5.16,5.055,9.182,10.522,9.182c5.467,0,9.964-4.022,10.522-9.182h0.016c0.485-2.455,2.693-4.311,5.351-4.311
	c3.013,0,5.456,2.383,5.456,5.322c0,0.031-0.009,0.059-0.009,0.09c1.024,4.653,5.303,8.171,10.393,8.171
	c5.848,0,10.632-4.641,10.632-10.313v-1.836v-6.721V63.006C117,31.802,90.921,6.506,58.75,6.506z"/>
<path id="XMLID_26_" style="fill:#BC3E06;" d="M30,25.006c0,0-26,7.5-26.5,43.002c-0.126,8.954-0.198,17.909-0.218,26.864
	c-0.01,4.478-0.007,8.955,0.008,13.433c0.007,2.159,0.218,4.421,0.032,6.571c-0.319,3.692-0.923,7.563,0.027,11.212
	c1.613,6.194,10.364,9.658,13.997,3.317c2.612-4.56,2.424-10.417,2.857-15.495c0.009-0.104,0.018-0.208,0.028-0.311
	c1.308-13.71-0.119-27.297-0.206-40.997C19.955,61.726,17.014,30.789,30,25.006z"/>
<path id="XMLID_22_" style="fill:none;stroke:#000000;stroke-width:3;stroke-miterlimit:10;" d="M62.554,1.506
	c-32.708,0-60.094,25.917-60.185,57.919L1.5,115.003v6.589v2.208c0,5.831,6.926,10.602,12.882,10.602
	c5.184,0,10.569-3.618,11.612-8.4c-0.001-0.031,0.504-0.061,0.504-0.092c0-3.022,2.744-3.403,5.813-3.403
	c2.707,0,5.213,3.5,5.707,6.5h0.016c0.568,5,5.148,9.439,10.716,9.439c5.568,0,10.148-4.439,10.716-9.439h0.016
	c0.494-3,2.743-4.431,5.45-4.431c2.707,0,4.956,1.431,5.45,4.431h0.016c0.568,5,5.148,9.439,10.716,9.439
	c5.568,0,10.148-4.439,10.716-9.439h0.016c0.494-3,2.743-6.5,5.45-6.5c3.069,0,5.556,1.415,5.556,4.437
	c0,0.032-0.009-0.456-0.009-0.425c1.043,4.783,3.023,8.142,8.207,8.142c5.955,0,8.45-5.029,8.45-10.86v-1.887v-6.91V59.589
	C119.5,27.511,95.318,1.506,62.554,1.506z"/>
<circle id="XMLID_14_" style="fill:#FFFFFF;" cx="42.821" cy="26.339" r="11.821"/>
<circle id="XMLID_29_" style="fill:#FFFFFF;" cx="75.846" cy="26.339" r="11.821"/>
<circle id="XMLID_28_" cx="39.915" cy="30.812" r="4.187"/>
<circle id="XMLID_33_" cx="78.94" cy="30.812" r="4.187"/>
</svg>
